<svg width="49" height="49" viewBox="0 0 49 49" fill="none" xmlns="http://www.w3.org/2000/svg">
<path d="M24.5 37.9995C24.3517 37.9995 24.2067 38.0435 24.0834 38.1259C23.96 38.2083 23.8639 38.3255 23.8071 38.4625C23.7504 38.5996 23.7355 38.7504 23.7644 38.8958C23.7934 39.0413 23.8648 39.175 23.9697 39.2799C24.0746 39.3847 24.2082 39.4562 24.3537 39.4851C24.4992 39.5141 24.65 39.4992 24.787 39.4424C24.9241 39.3857 25.0412 39.2895 25.1236 39.1662C25.206 39.0429 25.25 38.8979 25.25 38.7495C25.25 38.5506 25.171 38.3598 25.0304 38.2192C24.8897 38.0785 24.6989 37.9995 24.5 37.9995Z" stroke="#E1662F" stroke-width="3" stroke-linecap="round" stroke-linejoin="round"/>
<path d="M24.5 31.9995V16.9995" stroke="#E1662F" stroke-width="3" stroke-linecap="round"/>
<path d="M27.742 4.01952C27.4444 3.41355 26.9828 2.90314 26.4098 2.54617C25.8368 2.18921 25.1751 2 24.5 2C23.8249 2 23.1633 2.18921 22.5902 2.54617C22.0172 2.90314 21.5557 3.41355 21.258 4.01952L2.31202 42.6155C2.08396 43.0795 1.97789 43.5939 2.00383 44.1102C2.02977 44.6265 2.18686 45.1277 2.46027 45.5664C2.73369 46.0051 3.1144 46.367 3.56647 46.6177C4.01854 46.8685 4.52706 46.9999 5.04402 46.9995H43.956C44.473 46.9999 44.9815 46.8685 45.4336 46.6177C45.8856 46.367 46.2664 46.0051 46.5398 45.5664C46.8132 45.1277 46.9703 44.6265 46.9962 44.1102C47.0221 43.5939 46.9161 43.0795 46.688 42.6155L27.742 4.01952Z" stroke="black" stroke-width="3" stroke-linecap="round" stroke-linejoin="round"/>
</svg>
