<svg width="623" height="179" viewBox="0 0 623 179" fill="none" xmlns="http://www.w3.org/2000/svg">
<rect width="623" height="179" rx="10" fill="#EFEFEF"/>
<rect x="122" y="63" width="55" height="52" rx="7" fill="white"/>
<rect x="470" y="63" width="55" height="52" rx="7" fill="white"/>
<path d="M141 101.404V76.7063H150.918C156.072 76.7063 159.143 79.8815 159.143 84.362C159.143 88.8424 156.072 92.0177 150.918 92.0177H145.694V101.402L141 101.404ZM145.695 88.1021H150.707C151.211 88.1218 151.713 88.0396 152.184 87.8605C152.656 87.6814 153.086 87.4091 153.449 87.0598C153.812 86.7106 154.101 86.2916 154.299 85.828C154.496 85.3645 154.598 84.8658 154.598 84.362C154.598 83.8581 154.496 83.3595 154.299 82.8959C154.101 82.4324 153.812 82.0134 153.449 81.6641C153.086 81.3149 152.656 81.0426 152.184 80.8635C151.713 80.6844 151.211 80.6022 150.707 80.6219H145.695V88.1021Z" fill="#231F20"/>
<path d="M470 91C470.552 91 471 90.5523 471 90C471 89.4477 470.552 89 470 89V91ZM189.293 89.2929C188.902 89.6834 188.902 90.3166 189.293 90.7071L195.657 97.0711C196.047 97.4616 196.681 97.4616 197.071 97.0711C197.462 96.6805 197.462 96.0474 197.071 95.6569L191.414 90L197.071 84.3431C197.462 83.9526 197.462 83.3195 197.071 82.9289C196.681 82.5384 196.047 82.5384 195.657 82.9289L189.293 89.2929ZM468 89C467.448 89 467 89.4477 467 90C467 90.5523 467.448 91 468 91V89ZM464 91C464.552 91 465 90.5523 465 90C465 89.4477 464.552 89 464 89V91ZM460 89C459.448 89 459 89.4477 459 90C459 90.5523 459.448 91 460 91V89ZM456 91C456.552 91 457 90.5523 457 90C457 89.4477 456.552 89 456 89V91ZM452 89C451.448 89 451 89.4477 451 90C451 90.5523 451.448 91 452 91V89ZM448 91C448.552 91 449 90.5523 449 90C449 89.4477 448.552 89 448 89V91ZM444 89C443.448 89 443 89.4477 443 90C443 90.5523 443.448 91 444 91V89ZM440 91C440.552 91 441 90.5523 441 90C441 89.4477 440.552 89 440 89V91ZM436 89C435.448 89 435 89.4477 435 90C435 90.5523 435.448 91 436 91V89ZM432 91C432.552 91 433 90.5523 433 90C433 89.4477 432.552 89 432 89V91ZM428 89C427.448 89 427 89.4477 427 90C427 90.5523 427.448 91 428 91V89ZM424 91C424.552 91 425 90.5523 425 90C425 89.4477 424.552 89 424 89V91ZM420 89C419.448 89 419 89.4477 419 90C419 90.5523 419.448 91 420 91V89ZM416 91C416.552 91 417 90.5523 417 90C417 89.4477 416.552 89 416 89V91ZM412 89C411.448 89 411 89.4477 411 90C411 90.5523 411.448 91 412 91V89ZM408 91C408.552 91 409 90.5523 409 90C409 89.4477 408.552 89 408 89V91ZM404 89C403.448 89 403 89.4477 403 90C403 90.5523 403.448 91 404 91V89ZM400 91C400.552 91 401 90.5523 401 90C401 89.4477 400.552 89 400 89V91ZM396 89C395.448 89 395 89.4477 395 90C395 90.5523 395.448 91 396 91V89ZM392 91C392.552 91 393 90.5523 393 90C393 89.4477 392.552 89 392 89V91ZM388 89C387.448 89 387 89.4477 387 90C387 90.5523 387.448 91 388 91V89ZM384 91C384.552 91 385 90.5523 385 90C385 89.4477 384.552 89 384 89V91ZM380 89C379.448 89 379 89.4477 379 90C379 90.5523 379.448 91 380 91V89ZM376 91C376.552 91 377 90.5523 377 90C377 89.4477 376.552 89 376 89V91ZM372 89C371.448 89 371 89.4477 371 90C371 90.5523 371.448 91 372 91V89ZM368 91C368.552 91 369 90.5523 369 90C369 89.4477 368.552 89 368 89V91ZM364 89C363.448 89 363 89.4477 363 90C363 90.5523 363.448 91 364 91V89ZM360 91C360.552 91 361 90.5523 361 90C361 89.4477 360.552 89 360 89V91ZM356 89C355.448 89 355 89.4477 355 90C355 90.5523 355.448 91 356 91V89ZM352 91C352.552 91 353 90.5523 353 90C353 89.4477 352.552 89 352 89V91ZM348 89C347.448 89 347 89.4477 347 90C347 90.5523 347.448 91 348 91V89ZM344 91C344.552 91 345 90.5523 345 90C345 89.4477 344.552 89 344 89V91ZM340 89C339.448 89 339 89.4477 339 90C339 90.5523 339.448 91 340 91V89ZM336 91C336.552 91 337 90.5523 337 90C337 89.4477 336.552 89 336 89V91ZM332 89C331.448 89 331 89.4477 331 90C331 90.5523 331.448 91 332 91V89ZM328 91C328.552 91 329 90.5523 329 90C329 89.4477 328.552 89 328 89V91ZM324 89C323.448 89 323 89.4477 323 90C323 90.5523 323.448 91 324 91V89ZM320 91C320.552 91 321 90.5523 321 90C321 89.4477 320.552 89 320 89V91ZM316 89C315.448 89 315 89.4477 315 90C315 90.5523 315.448 91 316 91V89ZM312 91C312.552 91 313 90.5523 313 90C313 89.4477 312.552 89 312 89V91ZM308 89C307.448 89 307 89.4477 307 90C307 90.5523 307.448 91 308 91V89ZM304 91C304.552 91 305 90.5523 305 90C305 89.4477 304.552 89 304 89V91ZM300 89C299.448 89 299 89.4477 299 90C299 90.5523 299.448 91 300 91V89ZM296 91C296.552 91 297 90.5523 297 90C297 89.4477 296.552 89 296 89V91ZM292 89C291.448 89 291 89.4477 291 90C291 90.5523 291.448 91 292 91V89ZM288 91C288.552 91 289 90.5523 289 90C289 89.4477 288.552 89 288 89V91ZM284 89C283.448 89 283 89.4477 283 90C283 90.5523 283.448 91 284 91V89ZM280 91C280.552 91 281 90.5523 281 90C281 89.4477 280.552 89 280 89V91ZM276 89C275.448 89 275 89.4477 275 90C275 90.5523 275.448 91 276 91V89ZM272 91C272.552 91 273 90.5523 273 90C273 89.4477 272.552 89 272 89V91ZM268 89C267.448 89 267 89.4477 267 90C267 90.5523 267.448 91 268 91V89ZM264 91C264.552 91 265 90.5523 265 90C265 89.4477 264.552 89 264 89V91ZM260 89C259.448 89 259 89.4477 259 90C259 90.5523 259.448 91 260 91V89ZM256 91C256.552 91 257 90.5523 257 90C257 89.4477 256.552 89 256 89V91ZM252 89C251.448 89 251 89.4477 251 90C251 90.5523 251.448 91 252 91V89ZM248 91C248.552 91 249 90.5523 249 90C249 89.4477 248.552 89 248 89V91ZM244 89C243.448 89 243 89.4477 243 90C243 90.5523 243.448 91 244 91V89ZM240 91C240.552 91 241 90.5523 241 90C241 89.4477 240.552 89 240 89V91ZM236 89C235.448 89 235 89.4477 235 90C235 90.5523 235.448 91 236 91V89ZM232 91C232.552 91 233 90.5523 233 90C233 89.4477 232.552 89 232 89V91ZM228 89C227.448 89 227 89.4477 227 90C227 90.5523 227.448 91 228 91V89ZM224 91C224.552 91 225 90.5523 225 90C225 89.4477 224.552 89 224 89V91ZM220 89C219.448 89 219 89.4477 219 90C219 90.5523 219.448 91 220 91V89ZM216 91C216.552 91 217 90.5523 217 90C217 89.4477 216.552 89 216 89V91ZM212 89C211.448 89 211 89.4477 211 90C211 90.5523 211.448 91 212 91V89ZM208 91C208.552 91 209 90.5523 209 90C209 89.4477 208.552 89 208 89V91ZM204 89C203.448 89 203 89.4477 203 90C203 90.5523 203.448 91 204 91V89ZM200 91C200.552 91 201 90.5523 201 90C201 89.4477 200.552 89 200 89V91ZM196 89C195.448 89 195 89.4477 195 90C195 90.5523 195.448 91 196 91V89ZM192 91C192.552 91 193 90.5523 193 90C193 89.4477 192.552 89 192 89V91ZM470 89H468V91H470V89ZM464 89H460V91H464V89ZM456 89H452V91H456V89ZM448 89H444V91H448V89ZM440 89H436V91H440V89ZM432 89H428V91H432V89ZM424 89H420V91H424V89ZM416 89H412V91H416V89ZM408 89H404V91H408V89ZM400 89H396V91H400V89ZM392 89H388V91H392V89ZM384 89H380V91H384V89ZM376 89H372V91H376V89ZM368 89H364V91H368V89ZM360 89H356V91H360V89ZM352 89H348V91H352V89ZM344 89H340V91H344V89ZM336 89H332V91H336V89ZM328 89H324V91H328V89ZM320 89H316V91H320V89ZM312 89H308V91H312V89ZM304 89H300V91H304V89ZM296 89H292V91H296V89ZM288 89H284V91H288V89ZM280 89H276V91H280V89ZM272 89H268V91H272V89ZM264 89H260V91H264V89ZM256 89H252V91H256V89ZM248 89H244V91H248V89ZM240 89H236V91H240V89ZM232 89H228V91H232V89ZM224 89H220V91H224V89ZM216 89H212V91H216V89ZM208 89H204V91H208V89ZM200 89H196V91H200V89ZM192 89H190V91H192V89Z" fill="#4DAAC6"/>
<circle cx="177" cy="90" r="5" fill="#4DAAC6"/>
<circle cx="470" cy="90" r="5" fill="#4DAAC6"/>
<g clip-path="url(#clip0_2929_5791)">
<path d="M490.937 85.3125H489.479C489.092 85.3125 488.721 85.4661 488.448 85.7396C488.174 86.0131 488.021 86.3841 488.021 86.7708C488.021 87.1576 488.174 87.5285 488.448 87.802C488.721 88.0755 489.092 88.2292 489.479 88.2292H490.937C491.324 88.2292 491.695 88.0755 491.968 87.802C492.242 87.5285 492.396 87.1576 492.396 86.7708C492.396 86.3841 492.242 86.0131 491.968 85.7396C491.695 85.4661 491.324 85.3125 490.937 85.3125Z" fill="black"/>
<path d="M498.229 85.3125H496.771C496.384 85.3125 496.013 85.4661 495.74 85.7396C495.466 86.0131 495.312 86.3841 495.312 86.7708C495.312 87.1576 495.466 87.5285 495.74 87.802C496.013 88.0755 496.384 88.2292 496.771 88.2292H498.229C498.616 88.2292 498.987 88.0755 499.26 87.802C499.534 87.5285 499.688 87.1576 499.688 86.7708C499.688 86.3841 499.534 86.0131 499.26 85.7396C498.987 85.4661 498.616 85.3125 498.229 85.3125Z" fill="black"/>
<path d="M505.521 85.3125H504.062C503.676 85.3125 503.305 85.4661 503.031 85.7396C502.758 86.0131 502.604 86.3841 502.604 86.7708C502.604 87.1576 502.758 87.5285 503.031 87.802C503.305 88.0755 503.676 88.2292 504.062 88.2292H505.521C505.907 88.2292 506.278 88.0755 506.552 87.802C506.825 87.5285 506.979 87.1576 506.979 86.7708C506.979 86.3841 506.825 86.0131 506.552 85.7396C506.278 85.4661 505.907 85.3125 505.521 85.3125Z" fill="black"/>
<path d="M490.937 91.1459H489.479C489.092 91.1459 488.721 91.2995 488.448 91.573C488.174 91.8465 488.021 92.2174 488.021 92.6042C488.021 92.991 488.174 93.3619 488.448 93.6354C488.721 93.9089 489.092 94.0625 489.479 94.0625H490.937C491.324 94.0625 491.695 93.9089 491.968 93.6354C492.242 93.3619 492.396 92.991 492.396 92.6042C492.396 92.2174 492.242 91.8465 491.968 91.573C491.695 91.2995 491.324 91.1459 490.937 91.1459Z" fill="black"/>
<path d="M498.229 91.1459H496.771C496.384 91.1459 496.013 91.2995 495.74 91.573C495.466 91.8465 495.312 92.2174 495.312 92.6042C495.312 92.991 495.466 93.3619 495.74 93.6354C496.013 93.9089 496.384 94.0625 496.771 94.0625H498.229C498.616 94.0625 498.987 93.9089 499.26 93.6354C499.534 93.3619 499.688 92.991 499.688 92.6042C499.688 92.2174 499.534 91.8465 499.26 91.573C498.987 91.2995 498.616 91.1459 498.229 91.1459Z" fill="black"/>
<path d="M505.521 91.1459H504.062C503.676 91.1459 503.305 91.2995 503.031 91.573C502.758 91.8465 502.604 92.2174 502.604 92.6042C502.604 92.991 502.758 93.3619 503.031 93.6354C503.305 93.9089 503.676 94.0625 504.062 94.0625H505.521C505.907 94.0625 506.278 93.9089 506.552 93.6354C506.825 93.3619 506.979 92.991 506.979 92.6042C506.979 92.2174 506.825 91.8465 506.552 91.573C506.278 91.2995 505.907 91.1459 505.521 91.1459Z" fill="black"/>
<path d="M490.937 96.9791H489.479C489.092 96.9791 488.721 97.1328 488.448 97.4063C488.174 97.6798 488.021 98.0507 488.021 98.4375C488.021 98.8242 488.174 99.1952 488.448 99.4687C488.721 99.7421 489.092 99.8958 489.479 99.8958H490.937C491.324 99.8958 491.695 99.7421 491.968 99.4687C492.242 99.1952 492.396 98.8242 492.396 98.4375C492.396 98.0507 492.242 97.6798 491.968 97.4063C491.695 97.1328 491.324 96.9791 490.937 96.9791Z" fill="black"/>
<path d="M498.229 96.9791H496.771C496.384 96.9791 496.013 97.1328 495.74 97.4063C495.466 97.6798 495.312 98.0507 495.312 98.4375C495.312 98.8242 495.466 99.1952 495.74 99.4687C496.013 99.7421 496.384 99.8958 496.771 99.8958H498.229C498.616 99.8958 498.987 99.7421 499.26 99.4687C499.534 99.1952 499.688 98.8242 499.688 98.4375C499.688 98.0507 499.534 97.6798 499.26 97.4063C498.987 97.1328 498.616 96.9791 498.229 96.9791Z" fill="black"/>
<path d="M505.521 96.9791H504.062C503.676 96.9791 503.305 97.1328 503.031 97.4063C502.758 97.6798 502.604 98.0507 502.604 98.4375C502.604 98.8242 502.758 99.1952 503.031 99.4687C503.305 99.7421 503.676 99.8958 504.062 99.8958H505.521C505.907 99.8958 506.278 99.7421 506.552 99.4687C506.825 99.1952 506.979 98.8242 506.979 98.4375C506.979 98.0507 506.825 97.6798 506.552 97.4063C506.278 97.1328 505.907 96.9791 505.521 96.9791Z" fill="black"/>
<path d="M511.354 74.375H507.344C507.247 74.375 507.154 74.3366 507.086 74.2682C507.017 74.1998 506.979 74.1071 506.979 74.0104V71.4583C506.979 71.0716 506.825 70.7006 506.552 70.4271C506.278 70.1536 505.907 70 505.521 70C505.134 70 504.763 70.1536 504.489 70.4271C504.216 70.7006 504.062 71.0716 504.062 71.4583V78.3854C504.062 78.6755 503.947 78.9537 503.742 79.1588C503.537 79.3639 503.259 79.4792 502.969 79.4792C502.679 79.4792 502.4 79.3639 502.195 79.1588C501.99 78.9537 501.875 78.6755 501.875 78.3854V75.1042C501.875 74.9108 501.798 74.7253 501.661 74.5886C501.525 74.4518 501.339 74.375 501.146 74.375H492.031C491.934 74.375 491.842 74.3366 491.773 74.2682C491.705 74.1998 491.667 74.1071 491.667 74.0104V71.4583C491.667 71.0716 491.513 70.7006 491.239 70.4271C490.966 70.1536 490.595 70 490.208 70C489.821 70 489.45 70.1536 489.177 70.4271C488.903 70.7006 488.75 71.0716 488.75 71.4583V78.3854C488.75 78.6755 488.635 78.9537 488.429 79.1588C488.224 79.3639 487.946 79.4792 487.656 79.4792C487.366 79.4792 487.088 79.3639 486.883 79.1588C486.678 78.9537 486.562 78.6755 486.562 78.3854V75.1042C486.562 74.9108 486.486 74.7253 486.349 74.5886C486.212 74.4518 486.027 74.375 485.833 74.375H483.646C482.872 74.375 482.13 74.6823 481.583 75.2293C481.036 75.7763 480.729 76.5181 480.729 77.2917V102.083C480.729 102.857 481.036 103.599 481.583 104.146C482.13 104.693 482.872 105 483.646 105H511.354C512.128 105 512.869 104.693 513.416 104.146C513.963 103.599 514.271 102.857 514.271 102.083V77.2917C514.271 76.5181 513.963 75.7763 513.416 75.2293C512.869 74.6823 512.128 74.375 511.354 74.375ZM511.354 101.354C511.354 101.548 511.277 101.733 511.14 101.87C511.004 102.007 510.818 102.083 510.625 102.083H484.375C484.181 102.083 483.996 102.007 483.859 101.87C483.722 101.733 483.646 101.548 483.646 101.354V83.8542C483.646 83.6608 483.722 83.4753 483.859 83.3386C483.996 83.2018 484.181 83.125 484.375 83.125H510.625C510.818 83.125 511.004 83.2018 511.14 83.3386C511.277 83.4753 511.354 83.6608 511.354 83.8542V101.354Z" fill="black"/>
</g>
<defs>
<clipPath id="clip0_2929_5791">
<rect width="35" height="35" fill="white" transform="translate(480 70)"/>
</clipPath>
</defs>
</svg>
