<svg width="623" height="179" viewBox="0 0 623 179" fill="none" xmlns="http://www.w3.org/2000/svg">
<rect width="623" height="179" rx="10" fill="#EFEFEF"/>
<rect x="122" y="63" width="55" height="52" rx="7" fill="white"/>
<rect x="470" y="63" width="55" height="52" rx="7" fill="white"/>
<path d="M141 101.404V76.7063H150.918C156.072 76.7063 159.143 79.8815 159.143 84.362C159.143 88.8424 156.072 92.0177 150.918 92.0177H145.694V101.402L141 101.404ZM145.695 88.1021H150.707C151.211 88.1218 151.713 88.0396 152.184 87.8605C152.656 87.6814 153.086 87.4091 153.449 87.0598C153.812 86.7106 154.101 86.2916 154.299 85.828C154.496 85.3645 154.598 84.8658 154.598 84.362C154.598 83.8581 154.496 83.3595 154.299 82.8959C154.101 82.4324 153.812 82.0134 153.449 81.6641C153.086 81.3149 152.656 81.0426 152.184 80.8635C151.713 80.6844 151.211 80.6022 150.707 80.6219H145.695V88.1021Z" fill="#231F20"/>
<path d="M179 88C178.448 88 178 88.4477 178 89C178 89.5523 178.448 90 179 90L179 88ZM460.707 89.7071C461.098 89.3166 461.098 88.6834 460.707 88.2929L454.343 81.9289C453.953 81.5384 453.319 81.5384 452.929 81.9289C452.538 82.3194 452.538 82.9526 452.929 83.3431L458.586 89L452.929 94.6568C452.538 95.0474 452.538 95.6805 452.929 96.071C453.319 96.4616 453.953 96.4616 454.343 96.071L460.707 89.7071ZM181.007 90C181.559 90 182.007 89.5523 182.007 89C182.007 88.4477 181.559 88 181.007 88L181.007 90ZM185.021 88C184.469 88 184.021 88.4477 184.021 89C184.021 89.5523 184.469 90 185.021 90L185.021 88ZM189.036 90C189.588 90 190.036 89.5523 190.036 89C190.036 88.4477 189.588 88 189.036 88L189.036 90ZM193.05 88C192.498 88 192.05 88.4477 192.05 89C192.05 89.5523 192.498 90 193.05 90L193.05 88ZM197.064 90C197.617 90 198.064 89.5523 198.064 89C198.064 88.4477 197.617 88 197.064 88L197.064 90ZM201.079 88C200.526 88 200.079 88.4477 200.079 89C200.079 89.5523 200.526 90 201.079 90L201.079 88ZM205.093 90C205.645 90 206.093 89.5523 206.093 89C206.093 88.4477 205.645 88 205.093 88L205.093 90ZM209.107 88C208.555 88 208.107 88.4477 208.107 89C208.107 89.5523 208.555 90 209.107 90L209.107 88ZM213.121 90C213.674 90 214.121 89.5523 214.121 89C214.121 88.4477 213.674 88 213.121 88L213.121 90ZM217.136 88C216.583 88 216.136 88.4477 216.136 89C216.136 89.5523 216.583 90 217.136 90L217.136 88ZM221.15 90C221.702 90 222.15 89.5523 222.15 89C222.15 88.4477 221.702 88 221.15 88L221.15 90ZM225.164 88C224.612 88 224.164 88.4477 224.164 89C224.164 89.5523 224.612 90 225.164 90L225.164 88ZM229.179 90C229.731 90 230.179 89.5523 230.179 89C230.179 88.4477 229.731 88 229.179 88L229.179 90ZM233.193 88C232.641 88 232.193 88.4477 232.193 89C232.193 89.5523 232.641 90 233.193 90L233.193 88ZM237.207 90C237.759 90 238.207 89.5523 238.207 89C238.207 88.4477 237.759 88 237.207 88L237.207 90ZM241.221 88C240.669 88 240.221 88.4477 240.221 89C240.221 89.5523 240.669 90 241.221 90L241.221 88ZM245.236 90C245.788 90 246.236 89.5523 246.236 89C246.236 88.4477 245.788 88 245.236 88L245.236 90ZM249.25 88C248.698 88 248.25 88.4477 248.25 89C248.25 89.5523 248.698 90 249.25 90L249.25 88ZM253.264 90C253.817 90 254.264 89.5523 254.264 89C254.264 88.4477 253.817 88 253.264 88L253.264 90ZM257.279 88C256.726 88 256.279 88.4477 256.279 89C256.279 89.5523 256.726 90 257.279 90L257.279 88ZM261.293 90C261.845 90 262.293 89.5523 262.293 89C262.293 88.4477 261.845 88 261.293 88L261.293 90ZM265.307 88C264.755 88 264.307 88.4477 264.307 89C264.307 89.5523 264.755 90 265.307 90L265.307 88ZM269.321 90C269.874 90 270.321 89.5523 270.321 89C270.321 88.4477 269.874 88 269.321 88L269.321 90ZM273.336 88C272.783 88 272.336 88.4477 272.336 89C272.336 89.5523 272.783 90 273.336 90L273.336 88ZM277.35 90C277.902 90 278.35 89.5523 278.35 89C278.35 88.4477 277.902 88 277.35 88L277.35 90ZM281.364 88C280.812 88 280.364 88.4477 280.364 89C280.364 89.5523 280.812 90 281.364 90L281.364 88ZM285.379 90C285.931 90 286.379 89.5523 286.379 89C286.379 88.4477 285.931 88 285.379 88L285.379 90ZM289.393 88C288.841 88 288.393 88.4477 288.393 89C288.393 89.5523 288.841 90 289.393 90L289.393 88ZM293.407 90C293.959 90 294.407 89.5523 294.407 89C294.407 88.4477 293.959 88 293.407 88L293.407 90ZM297.421 88C296.869 88 296.421 88.4477 296.421 89C296.421 89.5523 296.869 90 297.421 90L297.421 88ZM301.436 90C301.988 90 302.436 89.5523 302.436 89C302.436 88.4477 301.988 88 301.436 88L301.436 90ZM305.45 88C304.898 88 304.45 88.4477 304.45 89C304.45 89.5523 304.898 90 305.45 90L305.45 88ZM309.464 90C310.017 90 310.464 89.5523 310.464 89C310.464 88.4477 310.017 88 309.464 88L309.464 90ZM313.479 88C312.926 88 312.479 88.4477 312.479 89C312.479 89.5523 312.926 90 313.479 90L313.479 88ZM317.493 90C318.045 90 318.493 89.5523 318.493 89C318.493 88.4477 318.045 88 317.493 88L317.493 90ZM321.507 88C320.955 88 320.507 88.4477 320.507 89C320.507 89.5523 320.955 90 321.507 90L321.507 88ZM325.521 90C326.074 90 326.521 89.5523 326.521 89C326.521 88.4477 326.074 88 325.521 88L325.521 90ZM329.536 88C328.983 88 328.536 88.4477 328.536 89C328.536 89.5523 328.983 90 329.536 90L329.536 88ZM333.55 90C334.102 90 334.55 89.5523 334.55 89C334.55 88.4477 334.102 88 333.55 88L333.55 90ZM337.564 88C337.012 88 336.564 88.4477 336.564 89C336.564 89.5523 337.012 90 337.564 90L337.564 88ZM341.578 90C342.131 90 342.578 89.5523 342.578 89C342.578 88.4477 342.131 88 341.578 88L341.578 90ZM345.593 88C345.04 88 344.593 88.4477 344.593 89C344.593 89.5523 345.04 90 345.593 90L345.593 88ZM349.607 90C350.159 90 350.607 89.5523 350.607 89C350.607 88.4477 350.159 88 349.607 88L349.607 90ZM353.621 88C353.069 88 352.621 88.4477 352.621 89C352.621 89.5523 353.069 90 353.621 90L353.621 88ZM357.636 90C358.188 90 358.636 89.5523 358.636 89C358.636 88.4477 358.188 88 357.636 88L357.636 90ZM361.65 88C361.098 88 360.65 88.4477 360.65 89C360.65 89.5523 361.098 90 361.65 90L361.65 88ZM365.664 90C366.216 90 366.664 89.5523 366.664 89C366.664 88.4477 366.216 88 365.664 88L365.664 90ZM369.678 88C369.126 88 368.678 88.4477 368.678 89C368.678 89.5523 369.126 90 369.678 90L369.678 88ZM373.693 90C374.245 90 374.693 89.5523 374.693 89C374.693 88.4477 374.245 88 373.693 88L373.693 90ZM377.707 88C377.155 88 376.707 88.4477 376.707 89C376.707 89.5523 377.155 90 377.707 90L377.707 88ZM381.721 90C382.274 90 382.721 89.5523 382.721 89C382.721 88.4477 382.274 88 381.721 88L381.721 90ZM385.736 88C385.183 88 384.736 88.4477 384.736 89C384.736 89.5523 385.183 90 385.736 90L385.736 88ZM389.75 90C390.302 90 390.75 89.5523 390.75 89C390.75 88.4477 390.302 88 389.75 88L389.75 90ZM393.764 88C393.212 88 392.764 88.4477 392.764 89C392.764 89.5523 393.212 90 393.764 90L393.764 88ZM397.778 90C398.331 90 398.778 89.5523 398.778 89C398.778 88.4477 398.331 88 397.778 88L397.778 90ZM401.793 88C401.24 88 400.793 88.4477 400.793 89C400.793 89.5523 401.24 90 401.793 90L401.793 88ZM405.807 90C406.359 90 406.807 89.5523 406.807 89C406.807 88.4477 406.359 88 405.807 88L405.807 90ZM409.821 88C409.269 88 408.821 88.4477 408.821 89C408.821 89.5523 409.269 90 409.821 90L409.821 88ZM413.836 90C414.388 90 414.836 89.5523 414.836 89C414.836 88.4477 414.388 88 413.836 88L413.836 90ZM417.85 88C417.298 88 416.85 88.4477 416.85 89C416.85 89.5523 417.298 90 417.85 90L417.85 88ZM421.864 90C422.416 90 422.864 89.5523 422.864 89C422.864 88.4477 422.416 88 421.864 88L421.864 90ZM425.878 88C425.326 88 424.878 88.4477 424.878 89C424.878 89.5523 425.326 90 425.878 90L425.878 88ZM429.893 90C430.445 90 430.893 89.5523 430.893 89C430.893 88.4477 430.445 88 429.893 88L429.893 90ZM433.907 88C433.355 88 432.907 88.4477 432.907 89C432.907 89.5523 433.355 90 433.907 90L433.907 88ZM437.921 90C438.474 90 438.921 89.5523 438.921 89C438.921 88.4477 438.474 88 437.921 88L437.921 90ZM441.936 88C441.383 88 440.936 88.4477 440.936 89C440.936 89.5523 441.383 90 441.936 90L441.936 88ZM445.95 90C446.502 90 446.95 89.5523 446.95 89C446.95 88.4477 446.502 88 445.95 88L445.95 90ZM449.964 88C449.412 88 448.964 88.4477 448.964 89C448.964 89.5523 449.412 90 449.964 90L449.964 88ZM453.978 90C454.531 90 454.978 89.5523 454.978 89C454.978 88.4477 454.531 88 453.978 88L453.978 90ZM457.993 88C457.44 88 456.993 88.4477 456.993 89C456.993 89.5523 457.44 90 457.993 90L457.993 88ZM179 90L181.007 90L181.007 88L179 88L179 90ZM185.021 90L189.036 90L189.036 88L185.021 88L185.021 90ZM193.05 90L197.064 90L197.064 88L193.05 88L193.05 90ZM201.079 90L205.093 90L205.093 88L201.079 88L201.079 90ZM209.107 90L213.121 90L213.121 88L209.107 88L209.107 90ZM217.136 90L221.15 90L221.15 88L217.136 88L217.136 90ZM225.164 90L229.179 90L229.179 88L225.164 88L225.164 90ZM233.193 90L237.207 90L237.207 88L233.193 88L233.193 90ZM241.221 90L245.236 90L245.236 88L241.221 88L241.221 90ZM249.25 90L253.264 90L253.264 88L249.25 88L249.25 90ZM257.279 90L261.293 90L261.293 88L257.279 88L257.279 90ZM265.307 90L269.321 90L269.321 88L265.307 88L265.307 90ZM273.336 90L277.35 90L277.35 88L273.336 88L273.336 90ZM281.364 90L285.379 90L285.379 88L281.364 88L281.364 90ZM289.393 90L293.407 90L293.407 88L289.393 88L289.393 90ZM297.421 90L301.436 90L301.436 88L297.421 88L297.421 90ZM305.45 90L309.464 90L309.464 88L305.45 88L305.45 90ZM313.479 90L317.493 90L317.493 88L313.479 88L313.479 90ZM321.507 90L325.521 90L325.521 88L321.507 88L321.507 90ZM329.536 90L333.55 90L333.55 88L329.536 88L329.536 90ZM337.564 90L341.578 90L341.578 88L337.564 88L337.564 90ZM345.593 90L349.607 90L349.607 88L345.593 88L345.593 90ZM353.621 90L357.636 90L357.636 88L353.621 88L353.621 90ZM361.65 90L365.664 90L365.664 88L361.65 88L361.65 90ZM369.678 90L373.693 90L373.693 88L369.678 88L369.678 90ZM377.707 90L381.721 90L381.721 88L377.707 88L377.707 90ZM385.736 90L389.75 90L389.75 88L385.736 88L385.736 90ZM393.764 90L397.778 90L397.778 88L393.764 88L393.764 90ZM401.793 90L405.807 90L405.807 88L401.793 88L401.793 90ZM409.821 90L413.836 90L413.836 88L409.821 88L409.821 90ZM417.85 90L421.864 90L421.864 88L417.85 88L417.85 90ZM425.878 90L429.893 90L429.893 88L425.878 88L425.878 90ZM433.907 90L437.921 90L437.921 88L433.907 88L433.907 90ZM441.936 90L445.95 90L445.95 88L441.936 88L441.936 90ZM449.964 90L453.978 90L453.978 88L449.964 88L449.964 90ZM457.993 90L460 90L460 88L457.993 88L457.993 90Z" fill="#4DAAC6"/>
<circle cx="177" cy="89" r="5" fill="#4DAAC6"/>
<circle cx="470" cy="89" r="5" fill="#4DAAC6"/>
<g clip-path="url(#clip0_2929_5792)">
<path d="M490.937 85.3125H489.479C489.092 85.3125 488.721 85.4661 488.448 85.7396C488.174 86.0131 488.021 86.3841 488.021 86.7708C488.021 87.1576 488.174 87.5285 488.448 87.802C488.721 88.0755 489.092 88.2292 489.479 88.2292H490.937C491.324 88.2292 491.695 88.0755 491.968 87.802C492.242 87.5285 492.396 87.1576 492.396 86.7708C492.396 86.3841 492.242 86.0131 491.968 85.7396C491.695 85.4661 491.324 85.3125 490.937 85.3125Z" fill="black"/>
<path d="M498.229 85.3125H496.771C496.384 85.3125 496.013 85.4661 495.74 85.7396C495.466 86.0131 495.312 86.3841 495.312 86.7708C495.312 87.1576 495.466 87.5285 495.74 87.802C496.013 88.0755 496.384 88.2292 496.771 88.2292H498.229C498.616 88.2292 498.987 88.0755 499.26 87.802C499.534 87.5285 499.688 87.1576 499.688 86.7708C499.688 86.3841 499.534 86.0131 499.26 85.7396C498.987 85.4661 498.616 85.3125 498.229 85.3125Z" fill="black"/>
<path d="M505.521 85.3125H504.062C503.676 85.3125 503.305 85.4661 503.031 85.7396C502.758 86.0131 502.604 86.3841 502.604 86.7708C502.604 87.1576 502.758 87.5285 503.031 87.802C503.305 88.0755 503.676 88.2292 504.062 88.2292H505.521C505.907 88.2292 506.278 88.0755 506.552 87.802C506.825 87.5285 506.979 87.1576 506.979 86.7708C506.979 86.3841 506.825 86.0131 506.552 85.7396C506.278 85.4661 505.907 85.3125 505.521 85.3125Z" fill="black"/>
<path d="M490.937 91.1459H489.479C489.092 91.1459 488.721 91.2995 488.448 91.573C488.174 91.8465 488.021 92.2174 488.021 92.6042C488.021 92.991 488.174 93.3619 488.448 93.6354C488.721 93.9089 489.092 94.0625 489.479 94.0625H490.937C491.324 94.0625 491.695 93.9089 491.968 93.6354C492.242 93.3619 492.396 92.991 492.396 92.6042C492.396 92.2174 492.242 91.8465 491.968 91.573C491.695 91.2995 491.324 91.1459 490.937 91.1459Z" fill="black"/>
<path d="M498.229 91.1459H496.771C496.384 91.1459 496.013 91.2995 495.74 91.573C495.466 91.8465 495.312 92.2174 495.312 92.6042C495.312 92.991 495.466 93.3619 495.74 93.6354C496.013 93.9089 496.384 94.0625 496.771 94.0625H498.229C498.616 94.0625 498.987 93.9089 499.26 93.6354C499.534 93.3619 499.688 92.991 499.688 92.6042C499.688 92.2174 499.534 91.8465 499.26 91.573C498.987 91.2995 498.616 91.1459 498.229 91.1459Z" fill="black"/>
<path d="M505.521 91.1459H504.062C503.676 91.1459 503.305 91.2995 503.031 91.573C502.758 91.8465 502.604 92.2174 502.604 92.6042C502.604 92.991 502.758 93.3619 503.031 93.6354C503.305 93.9089 503.676 94.0625 504.062 94.0625H505.521C505.907 94.0625 506.278 93.9089 506.552 93.6354C506.825 93.3619 506.979 92.991 506.979 92.6042C506.979 92.2174 506.825 91.8465 506.552 91.573C506.278 91.2995 505.907 91.1459 505.521 91.1459Z" fill="black"/>
<path d="M490.937 96.9791H489.479C489.092 96.9791 488.721 97.1328 488.448 97.4063C488.174 97.6798 488.021 98.0507 488.021 98.4375C488.021 98.8242 488.174 99.1952 488.448 99.4687C488.721 99.7421 489.092 99.8958 489.479 99.8958H490.937C491.324 99.8958 491.695 99.7421 491.968 99.4687C492.242 99.1952 492.396 98.8242 492.396 98.4375C492.396 98.0507 492.242 97.6798 491.968 97.4063C491.695 97.1328 491.324 96.9791 490.937 96.9791Z" fill="black"/>
<path d="M498.229 96.9791H496.771C496.384 96.9791 496.013 97.1328 495.74 97.4063C495.466 97.6798 495.312 98.0507 495.312 98.4375C495.312 98.8242 495.466 99.1952 495.74 99.4687C496.013 99.7421 496.384 99.8958 496.771 99.8958H498.229C498.616 99.8958 498.987 99.7421 499.26 99.4687C499.534 99.1952 499.688 98.8242 499.688 98.4375C499.688 98.0507 499.534 97.6798 499.26 97.4063C498.987 97.1328 498.616 96.9791 498.229 96.9791Z" fill="black"/>
<path d="M505.521 96.9791H504.062C503.676 96.9791 503.305 97.1328 503.031 97.4063C502.758 97.6798 502.604 98.0507 502.604 98.4375C502.604 98.8242 502.758 99.1952 503.031 99.4687C503.305 99.7421 503.676 99.8958 504.062 99.8958H505.521C505.907 99.8958 506.278 99.7421 506.552 99.4687C506.825 99.1952 506.979 98.8242 506.979 98.4375C506.979 98.0507 506.825 97.6798 506.552 97.4063C506.278 97.1328 505.907 96.9791 505.521 96.9791Z" fill="black"/>
<path d="M511.354 74.375H507.344C507.247 74.375 507.154 74.3366 507.086 74.2682C507.017 74.1998 506.979 74.1071 506.979 74.0104V71.4583C506.979 71.0716 506.825 70.7006 506.552 70.4271C506.278 70.1536 505.907 70 505.521 70C505.134 70 504.763 70.1536 504.489 70.4271C504.216 70.7006 504.062 71.0716 504.062 71.4583V78.3854C504.062 78.6755 503.947 78.9537 503.742 79.1588C503.537 79.3639 503.259 79.4792 502.969 79.4792C502.679 79.4792 502.4 79.3639 502.195 79.1588C501.99 78.9537 501.875 78.6755 501.875 78.3854V75.1042C501.875 74.9108 501.798 74.7253 501.661 74.5886C501.525 74.4518 501.339 74.375 501.146 74.375H492.031C491.934 74.375 491.842 74.3366 491.773 74.2682C491.705 74.1998 491.667 74.1071 491.667 74.0104V71.4583C491.667 71.0716 491.513 70.7006 491.239 70.4271C490.966 70.1536 490.595 70 490.208 70C489.821 70 489.45 70.1536 489.177 70.4271C488.903 70.7006 488.75 71.0716 488.75 71.4583V78.3854C488.75 78.6755 488.635 78.9537 488.429 79.1588C488.224 79.3639 487.946 79.4792 487.656 79.4792C487.366 79.4792 487.088 79.3639 486.883 79.1588C486.678 78.9537 486.562 78.6755 486.562 78.3854V75.1042C486.562 74.9108 486.486 74.7253 486.349 74.5886C486.212 74.4518 486.027 74.375 485.833 74.375H483.646C482.872 74.375 482.13 74.6823 481.583 75.2293C481.036 75.7763 480.729 76.5181 480.729 77.2917V102.083C480.729 102.857 481.036 103.599 481.583 104.146C482.13 104.693 482.872 105 483.646 105H511.354C512.128 105 512.869 104.693 513.416 104.146C513.963 103.599 514.271 102.857 514.271 102.083V77.2917C514.271 76.5181 513.963 75.7763 513.416 75.2293C512.869 74.6823 512.128 74.375 511.354 74.375ZM511.354 101.354C511.354 101.548 511.277 101.733 511.14 101.87C511.004 102.007 510.818 102.083 510.625 102.083H484.375C484.181 102.083 483.996 102.007 483.859 101.87C483.722 101.733 483.646 101.548 483.646 101.354V83.8542C483.646 83.6608 483.722 83.4753 483.859 83.3386C483.996 83.2018 484.181 83.125 484.375 83.125H510.625C510.818 83.125 511.004 83.2018 511.14 83.3386C511.277 83.4753 511.354 83.6608 511.354 83.8542V101.354Z" fill="black"/>
</g>
<defs>
<clipPath id="clip0_2929_5792">
<rect width="35" height="35" fill="white" transform="translate(480 70)"/>
</clipPath>
</defs>
</svg>
