<svg width="623" height="179" viewBox="0 0 623 179" fill="none" xmlns="http://www.w3.org/2000/svg">
<rect width="623" height="179" rx="10" fill="#EFEFEF"/>
<rect x="122" y="63" width="55" height="52" rx="7" fill="white"/>
<rect x="470" y="63" width="55" height="52" rx="7" fill="white"/>
<path d="M141 101.404V76.7063H150.918C156.072 76.7063 159.143 79.8815 159.143 84.362C159.143 88.8424 156.072 92.0177 150.918 92.0177H145.694V101.402L141 101.404ZM145.695 88.1021H150.707C151.211 88.1218 151.713 88.0396 152.184 87.8605C152.656 87.6814 153.086 87.4091 153.449 87.0598C153.812 86.7106 154.101 86.2916 154.299 85.828C154.496 85.3645 154.598 84.8658 154.598 84.362C154.598 83.8581 154.496 83.3595 154.299 82.8959C154.101 82.4324 153.812 82.0134 153.449 81.6641C153.086 81.3149 152.656 81.0426 152.184 80.8635C151.713 80.6844 151.211 80.6022 150.707 80.6219H145.695V88.1021Z" fill="#231F20"/>
<path d="M179 76C178.448 76 178 76.4477 178 77C178 77.5523 178.448 78 179 78L179 76ZM460.707 77.7071C461.098 77.3166 461.098 76.6834 460.707 76.2929L454.343 69.9289C453.953 69.5384 453.319 69.5384 452.929 69.9289C452.538 70.3194 452.538 70.9526 452.929 71.3431L458.586 77L452.929 82.6568C452.538 83.0474 452.538 83.6805 452.929 84.071C453.319 84.4616 453.953 84.4616 454.343 84.071L460.707 77.7071ZM181.007 78C181.559 78 182.007 77.5523 182.007 77C182.007 76.4477 181.559 76 181.007 76L181.007 78ZM185.021 76C184.469 76 184.021 76.4477 184.021 77C184.021 77.5523 184.469 78 185.021 78L185.021 76ZM189.036 78C189.588 78 190.036 77.5523 190.036 77C190.036 76.4477 189.588 76 189.036 76L189.036 78ZM193.05 76C192.498 76 192.05 76.4477 192.05 77C192.05 77.5523 192.498 78 193.05 78L193.05 76ZM197.064 78C197.617 78 198.064 77.5523 198.064 77C198.064 76.4477 197.617 76 197.064 76L197.064 78ZM201.079 76C200.526 76 200.079 76.4477 200.079 77C200.079 77.5523 200.526 78 201.079 78L201.079 76ZM205.093 78C205.645 78 206.093 77.5523 206.093 77C206.093 76.4477 205.645 76 205.093 76L205.093 78ZM209.107 76C208.555 76 208.107 76.4477 208.107 77C208.107 77.5523 208.555 78 209.107 78L209.107 76ZM213.121 78C213.674 78 214.121 77.5523 214.121 77C214.121 76.4477 213.674 76 213.121 76L213.121 78ZM217.136 76C216.583 76 216.136 76.4477 216.136 77C216.136 77.5523 216.583 78 217.136 78L217.136 76ZM221.15 78C221.702 78 222.15 77.5523 222.15 77C222.15 76.4477 221.702 76 221.15 76L221.15 78ZM225.164 76C224.612 76 224.164 76.4477 224.164 77C224.164 77.5523 224.612 78 225.164 78L225.164 76ZM229.179 78C229.731 78 230.179 77.5523 230.179 77C230.179 76.4477 229.731 76 229.179 76L229.179 78ZM233.193 76C232.641 76 232.193 76.4477 232.193 77C232.193 77.5523 232.641 78 233.193 78L233.193 76ZM237.207 78C237.759 78 238.207 77.5523 238.207 77C238.207 76.4477 237.759 76 237.207 76L237.207 78ZM241.221 76C240.669 76 240.221 76.4477 240.221 77C240.221 77.5523 240.669 78 241.221 78L241.221 76ZM245.236 78C245.788 78 246.236 77.5523 246.236 77C246.236 76.4477 245.788 76 245.236 76L245.236 78ZM249.25 76C248.698 76 248.25 76.4477 248.25 77C248.25 77.5523 248.698 78 249.25 78L249.25 76ZM253.264 78C253.817 78 254.264 77.5523 254.264 77C254.264 76.4477 253.817 76 253.264 76L253.264 78ZM257.279 76C256.726 76 256.279 76.4477 256.279 77C256.279 77.5523 256.726 78 257.279 78L257.279 76ZM261.293 78C261.845 78 262.293 77.5523 262.293 77C262.293 76.4477 261.845 76 261.293 76L261.293 78ZM265.307 76C264.755 76 264.307 76.4477 264.307 77C264.307 77.5523 264.755 78 265.307 78L265.307 76ZM269.321 78C269.874 78 270.321 77.5523 270.321 77C270.321 76.4477 269.874 76 269.321 76L269.321 78ZM273.336 76C272.783 76 272.336 76.4477 272.336 77C272.336 77.5523 272.783 78 273.336 78L273.336 76ZM277.35 78C277.902 78 278.35 77.5523 278.35 77C278.35 76.4477 277.902 76 277.35 76L277.35 78ZM281.364 76C280.812 76 280.364 76.4477 280.364 77C280.364 77.5523 280.812 78 281.364 78L281.364 76ZM285.379 78C285.931 78 286.379 77.5523 286.379 77C286.379 76.4477 285.931 76 285.379 76L285.379 78ZM289.393 76C288.841 76 288.393 76.4477 288.393 77C288.393 77.5523 288.841 78 289.393 78L289.393 76ZM293.407 78C293.959 78 294.407 77.5523 294.407 77C294.407 76.4477 293.959 76 293.407 76L293.407 78ZM297.421 76C296.869 76 296.421 76.4477 296.421 77C296.421 77.5523 296.869 78 297.421 78L297.421 76ZM301.436 78C301.988 78 302.436 77.5523 302.436 77C302.436 76.4477 301.988 76 301.436 76L301.436 78ZM305.45 76C304.898 76 304.45 76.4477 304.45 77C304.45 77.5523 304.898 78 305.45 78L305.45 76ZM309.464 78C310.017 78 310.464 77.5523 310.464 77C310.464 76.4477 310.017 76 309.464 76L309.464 78ZM313.479 76C312.926 76 312.479 76.4477 312.479 77C312.479 77.5523 312.926 78 313.479 78L313.479 76ZM317.493 78C318.045 78 318.493 77.5523 318.493 77C318.493 76.4477 318.045 76 317.493 76L317.493 78ZM321.507 76C320.955 76 320.507 76.4477 320.507 77C320.507 77.5523 320.955 78 321.507 78L321.507 76ZM325.521 78C326.074 78 326.521 77.5523 326.521 77C326.521 76.4477 326.074 76 325.521 76L325.521 78ZM329.536 76C328.983 76 328.536 76.4477 328.536 77C328.536 77.5523 328.983 78 329.536 78L329.536 76ZM333.55 78C334.102 78 334.55 77.5523 334.55 77C334.55 76.4477 334.102 76 333.55 76L333.55 78ZM337.564 76C337.012 76 336.564 76.4477 336.564 77C336.564 77.5523 337.012 78 337.564 78L337.564 76ZM341.578 78C342.131 78 342.578 77.5523 342.578 77C342.578 76.4477 342.131 76 341.578 76L341.578 78ZM345.593 76C345.04 76 344.593 76.4477 344.593 77C344.593 77.5523 345.04 78 345.593 78L345.593 76ZM349.607 78C350.159 78 350.607 77.5523 350.607 77C350.607 76.4477 350.159 76 349.607 76L349.607 78ZM353.621 76C353.069 76 352.621 76.4477 352.621 77C352.621 77.5523 353.069 78 353.621 78L353.621 76ZM357.636 78C358.188 78 358.636 77.5523 358.636 77C358.636 76.4477 358.188 76 357.636 76L357.636 78ZM361.65 76C361.098 76 360.65 76.4477 360.65 77C360.65 77.5523 361.098 78 361.65 78L361.65 76ZM365.664 78C366.216 78 366.664 77.5523 366.664 77C366.664 76.4477 366.216 76 365.664 76L365.664 78ZM369.678 76C369.126 76 368.678 76.4477 368.678 77C368.678 77.5523 369.126 78 369.678 78L369.678 76ZM373.693 78C374.245 78 374.693 77.5523 374.693 77C374.693 76.4477 374.245 76 373.693 76L373.693 78ZM377.707 76C377.155 76 376.707 76.4477 376.707 77C376.707 77.5523 377.155 78 377.707 78L377.707 76ZM381.721 78C382.274 78 382.721 77.5523 382.721 77C382.721 76.4477 382.274 76 381.721 76L381.721 78ZM385.736 76C385.183 76 384.736 76.4477 384.736 77C384.736 77.5523 385.183 78 385.736 78L385.736 76ZM389.75 78C390.302 78 390.75 77.5523 390.75 77C390.75 76.4477 390.302 76 389.75 76L389.75 78ZM393.764 76C393.212 76 392.764 76.4477 392.764 77C392.764 77.5523 393.212 78 393.764 78L393.764 76ZM397.778 78C398.331 78 398.778 77.5523 398.778 77C398.778 76.4477 398.331 76 397.778 76L397.778 78ZM401.793 76C401.24 76 400.793 76.4477 400.793 77C400.793 77.5523 401.24 78 401.793 78L401.793 76ZM405.807 78C406.359 78 406.807 77.5523 406.807 77C406.807 76.4477 406.359 76 405.807 76L405.807 78ZM409.821 76C409.269 76 408.821 76.4477 408.821 77C408.821 77.5523 409.269 78 409.821 78L409.821 76ZM413.836 78C414.388 78 414.836 77.5523 414.836 77C414.836 76.4477 414.388 76 413.836 76L413.836 78ZM417.85 76C417.298 76 416.85 76.4477 416.85 77C416.85 77.5523 417.298 78 417.85 78L417.85 76ZM421.864 78C422.416 78 422.864 77.5523 422.864 77C422.864 76.4477 422.416 76 421.864 76L421.864 78ZM425.878 76C425.326 76 424.878 76.4477 424.878 77C424.878 77.5523 425.326 78 425.878 78L425.878 76ZM429.893 78C430.445 78 430.893 77.5523 430.893 77C430.893 76.4477 430.445 76 429.893 76L429.893 78ZM433.907 76C433.355 76 432.907 76.4477 432.907 77C432.907 77.5523 433.355 78 433.907 78L433.907 76ZM437.921 78C438.474 78 438.921 77.5523 438.921 77C438.921 76.4477 438.474 76 437.921 76L437.921 78ZM441.936 76C441.383 76 440.936 76.4477 440.936 77C440.936 77.5523 441.383 78 441.936 78L441.936 76ZM445.95 78C446.502 78 446.95 77.5523 446.95 77C446.95 76.4477 446.502 76 445.95 76L445.95 78ZM449.964 76C449.412 76 448.964 76.4477 448.964 77C448.964 77.5523 449.412 78 449.964 78L449.964 76ZM453.978 78C454.531 78 454.978 77.5523 454.978 77C454.978 76.4477 454.531 76 453.978 76L453.978 78ZM457.993 76C457.44 76 456.993 76.4477 456.993 77C456.993 77.5523 457.44 78 457.993 78L457.993 76ZM179 78L181.007 78L181.007 76L179 76L179 78ZM185.021 78L189.036 78L189.036 76L185.021 76L185.021 78ZM193.05 78L197.064 78L197.064 76L193.05 76L193.05 78ZM201.079 78L205.093 78L205.093 76L201.079 76L201.079 78ZM209.107 78L213.121 78L213.121 76L209.107 76L209.107 78ZM217.136 78L221.15 78L221.15 76L217.136 76L217.136 78ZM225.164 78L229.179 78L229.179 76L225.164 76L225.164 78ZM233.193 78L237.207 78L237.207 76L233.193 76L233.193 78ZM241.221 78L245.236 78L245.236 76L241.221 76L241.221 78ZM249.25 78L253.264 78L253.264 76L249.25 76L249.25 78ZM257.279 78L261.293 78L261.293 76L257.279 76L257.279 78ZM265.307 78L269.321 78L269.321 76L265.307 76L265.307 78ZM273.336 78L277.35 78L277.35 76L273.336 76L273.336 78ZM281.364 78L285.379 78L285.379 76L281.364 76L281.364 78ZM289.393 78L293.407 78L293.407 76L289.393 76L289.393 78ZM297.421 78L301.436 78L301.436 76L297.421 76L297.421 78ZM305.45 78L309.464 78L309.464 76L305.45 76L305.45 78ZM313.479 78L317.493 78L317.493 76L313.479 76L313.479 78ZM321.507 78L325.521 78L325.521 76L321.507 76L321.507 78ZM329.536 78L333.55 78L333.55 76L329.536 76L329.536 78ZM337.564 78L341.578 78L341.578 76L337.564 76L337.564 78ZM345.593 78L349.607 78L349.607 76L345.593 76L345.593 78ZM353.621 78L357.636 78L357.636 76L353.621 76L353.621 78ZM361.65 78L365.664 78L365.664 76L361.65 76L361.65 78ZM369.678 78L373.693 78L373.693 76L369.678 76L369.678 78ZM377.707 78L381.721 78L381.721 76L377.707 76L377.707 78ZM385.736 78L389.75 78L389.75 76L385.736 76L385.736 78ZM393.764 78L397.778 78L397.778 76L393.764 76L393.764 78ZM401.793 78L405.807 78L405.807 76L401.793 76L401.793 78ZM409.821 78L413.836 78L413.836 76L409.821 76L409.821 78ZM417.85 78L421.864 78L421.864 76L417.85 76L417.85 78ZM425.878 78L429.893 78L429.893 76L425.878 76L425.878 78ZM433.907 78L437.921 78L437.921 76L433.907 76L433.907 78ZM441.936 78L445.95 78L445.95 76L441.936 76L441.936 78ZM449.964 78L453.978 78L453.978 76L449.964 76L449.964 78ZM457.993 78L460 78L460 76L457.993 76L457.993 78Z" fill="#4DAAC6"/>
<path d="M470 103C470.552 103 471 102.552 471 102C471 101.448 470.552 101 470 101V103ZM189.293 101.293C188.902 101.683 188.902 102.317 189.293 102.707L195.657 109.071C196.047 109.462 196.681 109.462 197.071 109.071C197.462 108.681 197.462 108.047 197.071 107.657L191.414 102L197.071 96.3431C197.462 95.9526 197.462 95.3195 197.071 94.9289C196.681 94.5384 196.047 94.5384 195.657 94.9289L189.293 101.293ZM468 101C467.448 101 467 101.448 467 102C467 102.552 467.448 103 468 103V101ZM464 103C464.552 103 465 102.552 465 102C465 101.448 464.552 101 464 101V103ZM460 101C459.448 101 459 101.448 459 102C459 102.552 459.448 103 460 103V101ZM456 103C456.552 103 457 102.552 457 102C457 101.448 456.552 101 456 101V103ZM452 101C451.448 101 451 101.448 451 102C451 102.552 451.448 103 452 103V101ZM448 103C448.552 103 449 102.552 449 102C449 101.448 448.552 101 448 101V103ZM444 101C443.448 101 443 101.448 443 102C443 102.552 443.448 103 444 103V101ZM440 103C440.552 103 441 102.552 441 102C441 101.448 440.552 101 440 101V103ZM436 101C435.448 101 435 101.448 435 102C435 102.552 435.448 103 436 103V101ZM432 103C432.552 103 433 102.552 433 102C433 101.448 432.552 101 432 101V103ZM428 101C427.448 101 427 101.448 427 102C427 102.552 427.448 103 428 103V101ZM424 103C424.552 103 425 102.552 425 102C425 101.448 424.552 101 424 101V103ZM420 101C419.448 101 419 101.448 419 102C419 102.552 419.448 103 420 103V101ZM416 103C416.552 103 417 102.552 417 102C417 101.448 416.552 101 416 101V103ZM412 101C411.448 101 411 101.448 411 102C411 102.552 411.448 103 412 103V101ZM408 103C408.552 103 409 102.552 409 102C409 101.448 408.552 101 408 101V103ZM404 101C403.448 101 403 101.448 403 102C403 102.552 403.448 103 404 103V101ZM400 103C400.552 103 401 102.552 401 102C401 101.448 400.552 101 400 101V103ZM396 101C395.448 101 395 101.448 395 102C395 102.552 395.448 103 396 103V101ZM392 103C392.552 103 393 102.552 393 102C393 101.448 392.552 101 392 101V103ZM388 101C387.448 101 387 101.448 387 102C387 102.552 387.448 103 388 103V101ZM384 103C384.552 103 385 102.552 385 102C385 101.448 384.552 101 384 101V103ZM380 101C379.448 101 379 101.448 379 102C379 102.552 379.448 103 380 103V101ZM376 103C376.552 103 377 102.552 377 102C377 101.448 376.552 101 376 101V103ZM372 101C371.448 101 371 101.448 371 102C371 102.552 371.448 103 372 103V101ZM368 103C368.552 103 369 102.552 369 102C369 101.448 368.552 101 368 101V103ZM364 101C363.448 101 363 101.448 363 102C363 102.552 363.448 103 364 103V101ZM360 103C360.552 103 361 102.552 361 102C361 101.448 360.552 101 360 101V103ZM356 101C355.448 101 355 101.448 355 102C355 102.552 355.448 103 356 103V101ZM352 103C352.552 103 353 102.552 353 102C353 101.448 352.552 101 352 101V103ZM348 101C347.448 101 347 101.448 347 102C347 102.552 347.448 103 348 103V101ZM344 103C344.552 103 345 102.552 345 102C345 101.448 344.552 101 344 101V103ZM340 101C339.448 101 339 101.448 339 102C339 102.552 339.448 103 340 103V101ZM336 103C336.552 103 337 102.552 337 102C337 101.448 336.552 101 336 101V103ZM332 101C331.448 101 331 101.448 331 102C331 102.552 331.448 103 332 103V101ZM328 103C328.552 103 329 102.552 329 102C329 101.448 328.552 101 328 101V103ZM324 101C323.448 101 323 101.448 323 102C323 102.552 323.448 103 324 103V101ZM320 103C320.552 103 321 102.552 321 102C321 101.448 320.552 101 320 101V103ZM316 101C315.448 101 315 101.448 315 102C315 102.552 315.448 103 316 103V101ZM312 103C312.552 103 313 102.552 313 102C313 101.448 312.552 101 312 101V103ZM308 101C307.448 101 307 101.448 307 102C307 102.552 307.448 103 308 103V101ZM304 103C304.552 103 305 102.552 305 102C305 101.448 304.552 101 304 101V103ZM300 101C299.448 101 299 101.448 299 102C299 102.552 299.448 103 300 103V101ZM296 103C296.552 103 297 102.552 297 102C297 101.448 296.552 101 296 101V103ZM292 101C291.448 101 291 101.448 291 102C291 102.552 291.448 103 292 103V101ZM288 103C288.552 103 289 102.552 289 102C289 101.448 288.552 101 288 101V103ZM284 101C283.448 101 283 101.448 283 102C283 102.552 283.448 103 284 103V101ZM280 103C280.552 103 281 102.552 281 102C281 101.448 280.552 101 280 101V103ZM276 101C275.448 101 275 101.448 275 102C275 102.552 275.448 103 276 103V101ZM272 103C272.552 103 273 102.552 273 102C273 101.448 272.552 101 272 101V103ZM268 101C267.448 101 267 101.448 267 102C267 102.552 267.448 103 268 103V101ZM264 103C264.552 103 265 102.552 265 102C265 101.448 264.552 101 264 101V103ZM260 101C259.448 101 259 101.448 259 102C259 102.552 259.448 103 260 103V101ZM256 103C256.552 103 257 102.552 257 102C257 101.448 256.552 101 256 101V103ZM252 101C251.448 101 251 101.448 251 102C251 102.552 251.448 103 252 103V101ZM248 103C248.552 103 249 102.552 249 102C249 101.448 248.552 101 248 101V103ZM244 101C243.448 101 243 101.448 243 102C243 102.552 243.448 103 244 103V101ZM240 103C240.552 103 241 102.552 241 102C241 101.448 240.552 101 240 101V103ZM236 101C235.448 101 235 101.448 235 102C235 102.552 235.448 103 236 103V101ZM232 103C232.552 103 233 102.552 233 102C233 101.448 232.552 101 232 101V103ZM228 101C227.448 101 227 101.448 227 102C227 102.552 227.448 103 228 103V101ZM224 103C224.552 103 225 102.552 225 102C225 101.448 224.552 101 224 101V103ZM220 101C219.448 101 219 101.448 219 102C219 102.552 219.448 103 220 103V101ZM216 103C216.552 103 217 102.552 217 102C217 101.448 216.552 101 216 101V103ZM212 101C211.448 101 211 101.448 211 102C211 102.552 211.448 103 212 103V101ZM208 103C208.552 103 209 102.552 209 102C209 101.448 208.552 101 208 101V103ZM204 101C203.448 101 203 101.448 203 102C203 102.552 203.448 103 204 103V101ZM200 103C200.552 103 201 102.552 201 102C201 101.448 200.552 101 200 101V103ZM196 101C195.448 101 195 101.448 195 102C195 102.552 195.448 103 196 103V101ZM192 103C192.552 103 193 102.552 193 102C193 101.448 192.552 101 192 101V103ZM470 101H468V103H470V101ZM464 101H460V103H464V101ZM456 101H452V103H456V101ZM448 101H444V103H448V101ZM440 101H436V103H440V101ZM432 101H428V103H432V101ZM424 101H420V103H424V101ZM416 101H412V103H416V101ZM408 101H404V103H408V101ZM400 101H396V103H400V101ZM392 101H388V103H392V101ZM384 101H380V103H384V101ZM376 101H372V103H376V101ZM368 101H364V103H368V101ZM360 101H356V103H360V101ZM352 101H348V103H352V101ZM344 101H340V103H344V101ZM336 101H332V103H336V101ZM328 101H324V103H328V101ZM320 101H316V103H320V101ZM312 101H308V103H312V101ZM304 101H300V103H304V101ZM296 101H292V103H296V101ZM288 101H284V103H288V101ZM280 101H276V103H280V101ZM272 101H268V103H272V101ZM264 101H260V103H264V101ZM256 101H252V103H256V101ZM248 101H244V103H248V101ZM240 101H236V103H240V101ZM232 101H228V103H232V101ZM224 101H220V103H224V101ZM216 101H212V103H216V101ZM208 101H204V103H208V101ZM200 101H196V103H200V101ZM192 101H190V103H192V101Z" fill="#4DAAC6"/>
<circle cx="177" cy="77" r="5" fill="#4DAAC6"/>
<circle cx="177" cy="102" r="5" fill="#4DAAC6"/>
<circle cx="470" cy="102" r="5" fill="#4DAAC6"/>
<circle cx="470" cy="77" r="5" fill="#4DAAC6"/>
<g clip-path="url(#clip0_2929_5790)">
<path d="M490.937 85.3125H489.479C489.092 85.3125 488.721 85.4661 488.448 85.7396C488.174 86.0131 488.021 86.3841 488.021 86.7708C488.021 87.1576 488.174 87.5285 488.448 87.802C488.721 88.0755 489.092 88.2292 489.479 88.2292H490.937C491.324 88.2292 491.695 88.0755 491.968 87.802C492.242 87.5285 492.396 87.1576 492.396 86.7708C492.396 86.3841 492.242 86.0131 491.968 85.7396C491.695 85.4661 491.324 85.3125 490.937 85.3125Z" fill="black"/>
<path d="M498.229 85.3125H496.771C496.384 85.3125 496.013 85.4661 495.74 85.7396C495.466 86.0131 495.312 86.3841 495.312 86.7708C495.312 87.1576 495.466 87.5285 495.74 87.802C496.013 88.0755 496.384 88.2292 496.771 88.2292H498.229C498.616 88.2292 498.987 88.0755 499.26 87.802C499.534 87.5285 499.688 87.1576 499.688 86.7708C499.688 86.3841 499.534 86.0131 499.26 85.7396C498.987 85.4661 498.616 85.3125 498.229 85.3125Z" fill="black"/>
<path d="M505.521 85.3125H504.062C503.676 85.3125 503.305 85.4661 503.031 85.7396C502.758 86.0131 502.604 86.3841 502.604 86.7708C502.604 87.1576 502.758 87.5285 503.031 87.802C503.305 88.0755 503.676 88.2292 504.062 88.2292H505.521C505.907 88.2292 506.278 88.0755 506.552 87.802C506.825 87.5285 506.979 87.1576 506.979 86.7708C506.979 86.3841 506.825 86.0131 506.552 85.7396C506.278 85.4661 505.907 85.3125 505.521 85.3125Z" fill="black"/>
<path d="M490.937 91.1459H489.479C489.092 91.1459 488.721 91.2995 488.448 91.573C488.174 91.8465 488.021 92.2174 488.021 92.6042C488.021 92.991 488.174 93.3619 488.448 93.6354C488.721 93.9089 489.092 94.0625 489.479 94.0625H490.937C491.324 94.0625 491.695 93.9089 491.968 93.6354C492.242 93.3619 492.396 92.991 492.396 92.6042C492.396 92.2174 492.242 91.8465 491.968 91.573C491.695 91.2995 491.324 91.1459 490.937 91.1459Z" fill="black"/>
<path d="M498.229 91.1459H496.771C496.384 91.1459 496.013 91.2995 495.74 91.573C495.466 91.8465 495.312 92.2174 495.312 92.6042C495.312 92.991 495.466 93.3619 495.74 93.6354C496.013 93.9089 496.384 94.0625 496.771 94.0625H498.229C498.616 94.0625 498.987 93.9089 499.26 93.6354C499.534 93.3619 499.688 92.991 499.688 92.6042C499.688 92.2174 499.534 91.8465 499.26 91.573C498.987 91.2995 498.616 91.1459 498.229 91.1459Z" fill="black"/>
<path d="M505.521 91.1459H504.062C503.676 91.1459 503.305 91.2995 503.031 91.573C502.758 91.8465 502.604 92.2174 502.604 92.6042C502.604 92.991 502.758 93.3619 503.031 93.6354C503.305 93.9089 503.676 94.0625 504.062 94.0625H505.521C505.907 94.0625 506.278 93.9089 506.552 93.6354C506.825 93.3619 506.979 92.991 506.979 92.6042C506.979 92.2174 506.825 91.8465 506.552 91.573C506.278 91.2995 505.907 91.1459 505.521 91.1459Z" fill="black"/>
<path d="M490.937 96.9791H489.479C489.092 96.9791 488.721 97.1328 488.448 97.4063C488.174 97.6798 488.021 98.0507 488.021 98.4375C488.021 98.8242 488.174 99.1952 488.448 99.4687C488.721 99.7421 489.092 99.8958 489.479 99.8958H490.937C491.324 99.8958 491.695 99.7421 491.968 99.4687C492.242 99.1952 492.396 98.8242 492.396 98.4375C492.396 98.0507 492.242 97.6798 491.968 97.4063C491.695 97.1328 491.324 96.9791 490.937 96.9791Z" fill="black"/>
<path d="M498.229 96.9791H496.771C496.384 96.9791 496.013 97.1328 495.74 97.4063C495.466 97.6798 495.312 98.0507 495.312 98.4375C495.312 98.8242 495.466 99.1952 495.74 99.4687C496.013 99.7421 496.384 99.8958 496.771 99.8958H498.229C498.616 99.8958 498.987 99.7421 499.26 99.4687C499.534 99.1952 499.688 98.8242 499.688 98.4375C499.688 98.0507 499.534 97.6798 499.26 97.4063C498.987 97.1328 498.616 96.9791 498.229 96.9791Z" fill="black"/>
<path d="M505.521 96.9791H504.062C503.676 96.9791 503.305 97.1328 503.031 97.4063C502.758 97.6798 502.604 98.0507 502.604 98.4375C502.604 98.8242 502.758 99.1952 503.031 99.4687C503.305 99.7421 503.676 99.8958 504.062 99.8958H505.521C505.907 99.8958 506.278 99.7421 506.552 99.4687C506.825 99.1952 506.979 98.8242 506.979 98.4375C506.979 98.0507 506.825 97.6798 506.552 97.4063C506.278 97.1328 505.907 96.9791 505.521 96.9791Z" fill="black"/>
<path d="M511.354 74.375H507.344C507.247 74.375 507.154 74.3366 507.086 74.2682C507.017 74.1998 506.979 74.1071 506.979 74.0104V71.4583C506.979 71.0716 506.825 70.7006 506.552 70.4271C506.278 70.1536 505.907 70 505.521 70C505.134 70 504.763 70.1536 504.489 70.4271C504.216 70.7006 504.062 71.0716 504.062 71.4583V78.3854C504.062 78.6755 503.947 78.9537 503.742 79.1588C503.537 79.3639 503.259 79.4792 502.969 79.4792C502.679 79.4792 502.4 79.3639 502.195 79.1588C501.99 78.9537 501.875 78.6755 501.875 78.3854V75.1042C501.875 74.9108 501.798 74.7253 501.661 74.5886C501.525 74.4518 501.339 74.375 501.146 74.375H492.031C491.934 74.375 491.842 74.3366 491.773 74.2682C491.705 74.1998 491.667 74.1071 491.667 74.0104V71.4583C491.667 71.0716 491.513 70.7006 491.239 70.4271C490.966 70.1536 490.595 70 490.208 70C489.821 70 489.45 70.1536 489.177 70.4271C488.903 70.7006 488.75 71.0716 488.75 71.4583V78.3854C488.75 78.6755 488.635 78.9537 488.429 79.1588C488.224 79.3639 487.946 79.4792 487.656 79.4792C487.366 79.4792 487.088 79.3639 486.883 79.1588C486.678 78.9537 486.562 78.6755 486.562 78.3854V75.1042C486.562 74.9108 486.486 74.7253 486.349 74.5886C486.212 74.4518 486.027 74.375 485.833 74.375H483.646C482.872 74.375 482.13 74.6823 481.583 75.2293C481.036 75.7763 480.729 76.5181 480.729 77.2917V102.083C480.729 102.857 481.036 103.599 481.583 104.146C482.13 104.693 482.872 105 483.646 105H511.354C512.128 105 512.869 104.693 513.416 104.146C513.963 103.599 514.271 102.857 514.271 102.083V77.2917C514.271 76.5181 513.963 75.7763 513.416 75.2293C512.869 74.6823 512.128 74.375 511.354 74.375ZM511.354 101.354C511.354 101.548 511.277 101.733 511.14 101.87C511.004 102.007 510.818 102.083 510.625 102.083H484.375C484.181 102.083 483.996 102.007 483.859 101.87C483.722 101.733 483.646 101.548 483.646 101.354V83.8542C483.646 83.6608 483.722 83.4753 483.859 83.3386C483.996 83.2018 484.181 83.125 484.375 83.125H510.625C510.818 83.125 511.004 83.2018 511.14 83.3386C511.277 83.4753 511.354 83.6608 511.354 83.8542V101.354Z" fill="black"/>
</g>
<defs>
<clipPath id="clip0_2929_5790">
<rect width="35" height="35" fill="white" transform="translate(480 70)"/>
</clipPath>
</defs>
</svg>
