<svg width="623" height="179" viewBox="0 0 623 179" fill="none" xmlns="http://www.w3.org/2000/svg">
<rect width="623" height="179" rx="10" fill="#EFEFEF"/>
<path d="M245 88C244.448 88 244 88.4477 244 89C244 89.5523 244.448 90 245 90L245 88ZM247.025 90C247.577 90 248.025 89.5523 248.025 89C248.025 88.4477 247.577 88 247.025 88L247.025 90ZM251.075 88C250.523 88 250.075 88.4477 250.075 89C250.075 89.5523 250.523 90 251.075 90L251.075 88ZM255.125 90C255.677 90 256.125 89.5523 256.125 89C256.125 88.4477 255.677 88 255.125 88L255.125 90ZM259.175 88C258.623 88 258.175 88.4477 258.175 89C258.175 89.5523 258.623 90 259.175 90L259.175 88ZM263.225 90C263.777 90 264.225 89.5523 264.225 89C264.225 88.4477 263.777 88 263.225 88L263.225 90ZM267.275 88C266.723 88 266.275 88.4477 266.275 89C266.275 89.5523 266.723 90 267.275 90L267.275 88ZM271.325 90C271.877 90 272.325 89.5523 272.325 89C272.325 88.4477 271.877 88 271.325 88L271.325 90ZM275.375 88C274.823 88 274.375 88.4477 274.375 89C274.375 89.5523 274.823 90 275.375 90L275.375 88ZM279.425 90C279.977 90 280.425 89.5523 280.425 89C280.425 88.4477 279.977 88 279.425 88L279.425 90ZM283.475 88C282.923 88 282.475 88.4477 282.475 89C282.475 89.5523 282.923 90 283.475 90L283.475 88ZM287.525 90C288.077 90 288.525 89.5523 288.525 89C288.525 88.4477 288.077 88 287.525 88L287.525 90ZM291.575 88C291.023 88 290.575 88.4477 290.575 89C290.575 89.5523 291.023 90 291.575 90L291.575 88ZM295.625 90C296.177 90 296.625 89.5523 296.625 89C296.625 88.4477 296.177 88 295.625 88L295.625 90ZM299.675 88C299.123 88 298.675 88.4477 298.675 89C298.675 89.5523 299.123 90 299.675 90L299.675 88ZM303.725 90C304.277 90 304.725 89.5523 304.725 89C304.725 88.4477 304.277 88 303.725 88L303.725 90ZM307.775 88C307.223 88 306.775 88.4477 306.775 89C306.775 89.5523 307.223 90 307.775 90L307.775 88ZM311.825 90C312.377 90 312.825 89.5523 312.825 89C312.825 88.4477 312.377 88 311.825 88L311.825 90ZM315.875 88C315.323 88 314.875 88.4477 314.875 89C314.875 89.5523 315.323 90 315.875 90L315.875 88ZM319.925 90C320.477 90 320.925 89.5523 320.925 89C320.925 88.4477 320.477 88 319.925 88L319.925 90ZM323.975 88C323.423 88 322.975 88.4477 322.975 89C322.975 89.5523 323.423 90 323.975 90L323.975 88ZM328.025 90C328.577 90 329.025 89.5523 329.025 89C329.025 88.4477 328.577 88 328.025 88L328.025 90ZM332.075 88C331.523 88 331.075 88.4477 331.075 89C331.075 89.5523 331.523 90 332.075 90L332.075 88ZM336.125 90C336.677 90 337.125 89.5523 337.125 89C337.125 88.4477 336.677 88 336.125 88L336.125 90ZM340.175 88C339.623 88 339.175 88.4477 339.175 89C339.175 89.5523 339.623 90 340.175 90L340.175 88ZM344.225 90C344.777 90 345.225 89.5523 345.225 89C345.225 88.4477 344.777 88 344.225 88L344.225 90ZM348.275 88C347.723 88 347.275 88.4477 347.275 89C347.275 89.5523 347.723 90 348.275 90L348.275 88ZM352.325 90C352.877 90 353.325 89.5523 353.325 89C353.325 88.4477 352.877 88 352.325 88L352.325 90ZM356.375 88C355.823 88 355.375 88.4477 355.375 89C355.375 89.5523 355.823 90 356.375 90L356.375 88ZM360.425 90C360.977 90 361.425 89.5523 361.425 89C361.425 88.4477 360.977 88 360.425 88L360.425 90ZM364.475 88C363.923 88 363.475 88.4477 363.475 89C363.475 89.5523 363.923 90 364.475 90L364.475 88ZM368.525 90C369.077 90 369.525 89.5523 369.525 89C369.525 88.4477 369.077 88 368.525 88L368.525 90ZM372.575 88C372.023 88 371.575 88.4477 371.575 89C371.575 89.5523 372.023 90 372.575 90L372.575 88ZM376.625 90C377.177 90 377.625 89.5523 377.625 89C377.625 88.4477 377.177 88 376.625 88L376.625 90ZM380.675 88C380.123 88 379.675 88.4477 379.675 89C379.675 89.5523 380.123 90 380.675 90L380.675 88ZM384.725 90C385.277 90 385.725 89.5523 385.725 89C385.725 88.4477 385.277 88 384.725 88L384.725 90ZM388.775 88C388.223 88 387.775 88.4477 387.775 89C387.775 89.5523 388.223 90 388.775 90L388.775 88ZM392.825 90C393.377 90 393.825 89.5523 393.825 89C393.825 88.4477 393.377 88 392.825 88L392.825 90ZM396.875 88C396.323 88 395.875 88.4477 395.875 89C395.875 89.5523 396.323 90 396.875 90L396.875 88ZM400.925 90C401.477 90 401.925 89.5523 401.925 89C401.925 88.4477 401.477 88 400.925 88L400.925 90ZM404.975 88C404.423 88 403.975 88.4477 403.975 89C403.975 89.5523 404.423 90 404.975 90L404.975 88ZM245 90L247.025 90L247.025 88L245 88L245 90ZM251.075 90L255.125 90L255.125 88L251.075 88L251.075 90ZM259.175 90L263.225 90L263.225 88L259.175 88L259.175 90ZM267.275 90L271.325 90L271.325 88L267.275 88L267.275 90ZM275.375 90L279.425 90L279.425 88L275.375 88L275.375 90ZM283.475 90L287.525 90L287.525 88L283.475 88L283.475 90ZM291.575 90L295.625 90L295.625 88L291.575 88L291.575 90ZM299.675 90L303.725 90L303.725 88L299.675 88L299.675 90ZM307.775 90L311.825 90L311.825 88L307.775 88L307.775 90ZM315.875 90L319.925 90L319.925 88L315.875 88L315.875 90ZM323.975 90L328.025 90L328.025 88L323.975 88L323.975 90ZM332.075 90L336.125 90L336.125 88L332.075 88L332.075 90ZM340.175 90L344.225 90L344.225 88L340.175 88L340.175 90ZM348.275 90L352.325 90L352.325 88L348.275 88L348.275 90ZM356.375 90L360.425 90L360.425 88L356.375 88L356.375 90ZM364.475 90L368.525 90L368.525 88L364.475 88L364.475 90ZM372.575 90L376.625 90L376.625 88L372.575 88L372.575 90ZM380.675 90L384.725 90L384.725 88L380.675 88L380.675 90ZM388.775 90L392.825 90L392.825 88L388.775 88L388.775 90ZM396.875 90L400.925 90L400.925 88L396.875 88L396.875 90ZM404.975 90L407 90L407 88L404.975 88L404.975 90Z" fill="#E1662F"/>
<path d="M323.446 87.5L319 80H323.197L325.959 85.142H326.069L328.83 80H333L328.499 87.5L333 95H328.83L326.069 89.8295H325.959L323.225 95H319.028L323.446 87.5Z" fill="#E1662F"/>
<rect x="122" y="63" width="55" height="52" rx="7" fill="white"/>
<rect x="470" y="63" width="55" height="52" rx="7" fill="white"/>
<path d="M141 101.404V76.7063H150.918C156.072 76.7063 159.143 79.8815 159.143 84.362C159.143 88.8424 156.072 92.0177 150.918 92.0177H145.694V101.402L141 101.404ZM145.695 88.1021H150.707C151.211 88.1218 151.713 88.0396 152.184 87.8605C152.656 87.6814 153.086 87.4091 153.449 87.0598C153.812 86.7106 154.101 86.2916 154.299 85.828C154.496 85.3645 154.598 84.8658 154.598 84.362C154.598 83.8581 154.496 83.3595 154.299 82.8959C154.101 82.4324 153.812 82.0134 153.449 81.6641C153.086 81.3149 152.656 81.0426 152.184 80.8635C151.713 80.6844 151.211 80.6022 150.707 80.6219H145.695V88.1021Z" fill="#231F20"/>
<circle cx="177" cy="89" r="5" fill="#E1662F"/>
<circle cx="470" cy="89" r="5" fill="#E1662F"/>
<g clip-path="url(#clip0_2929_5793)">
<path d="M490.937 85.3125H489.479C489.092 85.3125 488.721 85.4661 488.448 85.7396C488.174 86.0131 488.021 86.3841 488.021 86.7708C488.021 87.1576 488.174 87.5285 488.448 87.802C488.721 88.0755 489.092 88.2292 489.479 88.2292H490.937C491.324 88.2292 491.695 88.0755 491.968 87.802C492.242 87.5285 492.396 87.1576 492.396 86.7708C492.396 86.3841 492.242 86.0131 491.968 85.7396C491.695 85.4661 491.324 85.3125 490.937 85.3125Z" fill="black"/>
<path d="M498.229 85.3125H496.771C496.384 85.3125 496.013 85.4661 495.74 85.7396C495.466 86.0131 495.312 86.3841 495.312 86.7708C495.312 87.1576 495.466 87.5285 495.74 87.802C496.013 88.0755 496.384 88.2292 496.771 88.2292H498.229C498.616 88.2292 498.987 88.0755 499.26 87.802C499.534 87.5285 499.688 87.1576 499.688 86.7708C499.688 86.3841 499.534 86.0131 499.26 85.7396C498.987 85.4661 498.616 85.3125 498.229 85.3125Z" fill="black"/>
<path d="M505.521 85.3125H504.062C503.676 85.3125 503.305 85.4661 503.031 85.7396C502.758 86.0131 502.604 86.3841 502.604 86.7708C502.604 87.1576 502.758 87.5285 503.031 87.802C503.305 88.0755 503.676 88.2292 504.062 88.2292H505.521C505.907 88.2292 506.278 88.0755 506.552 87.802C506.825 87.5285 506.979 87.1576 506.979 86.7708C506.979 86.3841 506.825 86.0131 506.552 85.7396C506.278 85.4661 505.907 85.3125 505.521 85.3125Z" fill="black"/>
<path d="M490.937 91.1458H489.479C489.092 91.1458 488.721 91.2995 488.448 91.5729C488.174 91.8464 488.021 92.2174 488.021 92.6041C488.021 92.9909 488.174 93.3619 488.448 93.6353C488.721 93.9088 489.092 94.0625 489.479 94.0625H490.937C491.324 94.0625 491.695 93.9088 491.968 93.6353C492.242 93.3619 492.396 92.9909 492.396 92.6041C492.396 92.2174 492.242 91.8464 491.968 91.5729C491.695 91.2995 491.324 91.1458 490.937 91.1458Z" fill="black"/>
<path d="M498.229 91.1458H496.771C496.384 91.1458 496.013 91.2995 495.74 91.5729C495.466 91.8464 495.312 92.2174 495.312 92.6041C495.312 92.9909 495.466 93.3619 495.74 93.6353C496.013 93.9088 496.384 94.0625 496.771 94.0625H498.229C498.616 94.0625 498.987 93.9088 499.26 93.6353C499.534 93.3619 499.688 92.9909 499.688 92.6041C499.688 92.2174 499.534 91.8464 499.26 91.5729C498.987 91.2995 498.616 91.1458 498.229 91.1458Z" fill="black"/>
<path d="M505.521 91.1458H504.062C503.676 91.1458 503.305 91.2995 503.031 91.5729C502.758 91.8464 502.604 92.2174 502.604 92.6041C502.604 92.9909 502.758 93.3619 503.031 93.6353C503.305 93.9088 503.676 94.0625 504.062 94.0625H505.521C505.907 94.0625 506.278 93.9088 506.552 93.6353C506.825 93.3619 506.979 92.9909 506.979 92.6041C506.979 92.2174 506.825 91.8464 506.552 91.5729C506.278 91.2995 505.907 91.1458 505.521 91.1458Z" fill="black"/>
<path d="M490.937 96.9792H489.479C489.092 96.9792 488.721 97.1328 488.448 97.4063C488.174 97.6798 488.021 98.0507 488.021 98.4375C488.021 98.8243 488.174 99.1952 488.448 99.4687C488.721 99.7422 489.092 99.8959 489.479 99.8959H490.937C491.324 99.8959 491.695 99.7422 491.968 99.4687C492.242 99.1952 492.396 98.8243 492.396 98.4375C492.396 98.0507 492.242 97.6798 491.968 97.4063C491.695 97.1328 491.324 96.9792 490.937 96.9792Z" fill="black"/>
<path d="M498.229 96.9792H496.771C496.384 96.9792 496.013 97.1328 495.74 97.4063C495.466 97.6798 495.312 98.0507 495.312 98.4375C495.312 98.8243 495.466 99.1952 495.74 99.4687C496.013 99.7422 496.384 99.8959 496.771 99.8959H498.229C498.616 99.8959 498.987 99.7422 499.26 99.4687C499.534 99.1952 499.688 98.8243 499.688 98.4375C499.688 98.0507 499.534 97.6798 499.26 97.4063C498.987 97.1328 498.616 96.9792 498.229 96.9792Z" fill="black"/>
<path d="M505.521 96.9792H504.062C503.676 96.9792 503.305 97.1328 503.031 97.4063C502.758 97.6798 502.604 98.0507 502.604 98.4375C502.604 98.8243 502.758 99.1952 503.031 99.4687C503.305 99.7422 503.676 99.8959 504.062 99.8959H505.521C505.907 99.8959 506.278 99.7422 506.552 99.4687C506.825 99.1952 506.979 98.8243 506.979 98.4375C506.979 98.0507 506.825 97.6798 506.552 97.4063C506.278 97.1328 505.907 96.9792 505.521 96.9792Z" fill="black"/>
<path d="M511.354 74.375H507.344C507.247 74.375 507.154 74.3366 507.086 74.2682C507.017 74.1998 506.979 74.1071 506.979 74.0104V71.4583C506.979 71.0716 506.825 70.7006 506.552 70.4271C506.278 70.1536 505.907 70 505.521 70C505.134 70 504.763 70.1536 504.489 70.4271C504.216 70.7006 504.062 71.0716 504.062 71.4583V78.3854C504.062 78.6755 503.947 78.9537 503.742 79.1588C503.537 79.3639 503.259 79.4792 502.969 79.4792C502.679 79.4792 502.4 79.3639 502.195 79.1588C501.99 78.9537 501.875 78.6755 501.875 78.3854V75.1042C501.875 74.9108 501.798 74.7253 501.661 74.5886C501.525 74.4518 501.339 74.375 501.146 74.375H492.031C491.934 74.375 491.842 74.3366 491.773 74.2682C491.705 74.1998 491.667 74.1071 491.667 74.0104V71.4583C491.667 71.0716 491.513 70.7006 491.239 70.4271C490.966 70.1536 490.595 70 490.208 70C489.821 70 489.45 70.1536 489.177 70.4271C488.903 70.7006 488.75 71.0716 488.75 71.4583V78.3854C488.75 78.6755 488.635 78.9537 488.429 79.1588C488.224 79.3639 487.946 79.4792 487.656 79.4792C487.366 79.4792 487.088 79.3639 486.883 79.1588C486.678 78.9537 486.562 78.6755 486.562 78.3854V75.1042C486.562 74.9108 486.486 74.7253 486.349 74.5886C486.212 74.4518 486.027 74.375 485.833 74.375H483.646C482.872 74.375 482.13 74.6823 481.583 75.2293C481.036 75.7763 480.729 76.5181 480.729 77.2917V102.083C480.729 102.857 481.036 103.599 481.583 104.146C482.13 104.693 482.872 105 483.646 105H511.354C512.128 105 512.869 104.693 513.416 104.146C513.963 103.599 514.271 102.857 514.271 102.083V77.2917C514.271 76.5181 513.963 75.7763 513.416 75.2293C512.869 74.6823 512.128 74.375 511.354 74.375ZM511.354 101.354C511.354 101.548 511.277 101.733 511.14 101.87C511.004 102.007 510.818 102.083 510.625 102.083H484.375C484.181 102.083 483.996 102.007 483.859 101.87C483.722 101.733 483.646 101.548 483.646 101.354V83.8542C483.646 83.6608 483.722 83.4753 483.859 83.3386C483.996 83.2018 484.181 83.125 484.375 83.125H510.625C510.818 83.125 511.004 83.2018 511.14 83.3386C511.277 83.4753 511.354 83.6608 511.354 83.8542V101.354Z" fill="black"/>
</g>
<defs>
<clipPath id="clip0_2929_5793">
<rect width="35" height="35" fill="white" transform="translate(480 70)"/>
</clipPath>
</defs>
</svg>
