<?xml version="1.0" encoding="utf-8"?>
<svg version="1.1" xmlns="http://www.w3.org/2000/svg" xmlns:xlink="http://www.w3.org/1999/xlink">
  <svg id="eye" viewBox="0 0 24 24"><path d="M15 12c0 1.654-1.346 3-3 3s-3-1.346-3-3 1.346-3 3-3 3 1.346 3 3zm9-.449s-4.252 8.449-11.985 8.449c-7.18 0-12.015-8.449-12.015-8.449s4.446-7.551 12.015-7.551c7.694 0 11.985 7.551 11.985 7.551zm-7 .449c0-2.757-2.243-5-5-5s-5 2.243-5 5 2.243 5 5 5 5-2.243 5-5z"/></svg>
  <svg id="closed-eye" viewBox="0 0 24 24"><path d="m11.885 14.988 3.104-3.098.011.11c0 1.654-1.346 3-3 3zm8.048-8.032-3.274 3.268c.212.554.341 1.149.341 1.776 0 2.757-2.243 5-5 5-.631 0-1.229-.13-1.785-.344l-2.377 2.372c1.276.588 2.671.972 4.177.972 7.733 0 11.985-8.449 11.985-8.449s-1.415-2.478-4.067-4.595zm1.431-3.536-18.619 18.58-1.382-1.422 3.455-3.447c-3.022-2.45-4.818-5.58-4.818-5.58s4.446-7.551 12.015-7.551c1.825 0 3.456.426 4.886 1.075l3.081-3.075 1.382 1.42zm-13.751 10.922 1.519-1.515c-.077-.264-.132-.538-.132-.827 0-1.654 1.346-3 3-3 .291 0 .567.055.833.134l1.518-1.515c-.704-.382-1.496-.619-2.351-.619-2.757 0-5 2.243-5 5 0 .852.235 1.641.613 2.342z"/></svg>
  <svg id="sparkles" viewBox="0 0 36 36">
    <path d="M21.167,13.333l1.927-4.24,4.24-1.927L23.094,5.24,21.167,1,19.24,5.24,15,7.167l4.24,1.927Z" transform="translate(6.583 -1)"/>
    <path d="M21.167,15,19.24,19.24,15,21.167l4.24,1.927,1.927,4.24,1.927-4.24,4.24-1.927-4.24-1.927Z" transform="translate(6.583 6.583)"/>
    <path d="M17.188,12.479,13.333,4,9.479,12.479,1,16.333l8.479,3.854,3.854,8.479,3.854-8.479,8.479-3.854ZM14.86,17.86,13.333,21.22,11.807,17.86,8.446,16.333l3.361-1.526,1.526-3.361,1.526,3.361,3.361,1.526Z" transform="translate(-1 0.625)"/>
  </svg>
  <svg id="logo" viewBox="0 0 109.429 23.63">
    <g transform="translate(-107.178 -118.976)">
      <path d="M107.178,143.139V120.417H116.3c4.739,0,7.563,2.921,7.563,7.044s-2.824,7.044-7.563,7.044h-4.8v8.634ZM111.5,130.9H116.1a3.443,3.443,0,1,0,0-6.881H111.5Z" transform="translate(0 -0.791)" />
      <path d="M149.521,151.72V136.042h3.993V151.72Z" transform="translate(-23.255 -9.373)" />
      <path d="M164.355,142.393a8.06,8.06,0,0,1,8.309-8.439c4.122,0,7.466,2.467,7.822,6.232h-3.959a3.67,3.67,0,0,0-3.765-2.792c-2.759,0-4.252,2.143-4.252,5s1.526,5,4.317,5a3.632,3.632,0,0,0,3.733-2.694h4.025c-.52,3.57-3.7,6.134-7.92,6.134A8.06,8.06,0,0,1,164.355,142.393Z" transform="translate(-31.402 -8.226)" />
      <path d="M203.746,145.12h3.635a2.853,2.853,0,0,0,3.148,2.532c1.558,0,2.6-.779,2.6-1.753,0-3.635-8.959-.162-8.959-7.076,0-2.856,2.5-4.869,5.875-4.869,3.831,0,6.46,2.11,6.622,5.291h-3.635a2.817,2.817,0,0,0-2.889-2.3c-1.428,0-2.369.649-2.369,1.753,0,3.538,9.088-.357,9.088,7.044,0,3.083-2.5,5.1-6.33,5.1C206.57,150.832,203.941,148.625,203.746,145.12Z" transform="translate(-53.036 -8.226)" />
      <path d="M252.979,145.12c-.616,3.473-3.667,5.712-7.693,5.712a8.2,8.2,0,0,1-8.342-8.5c0-4.317,2.662-8.374,8.018-8.374,5.486,0,7.952,3.993,7.952,7.887,0,.552-.033,1.039-.065,1.364H240.774c.292,2.629,1.98,4.317,4.512,4.317,2.045,0,3.376-.844,3.8-2.4Zm-12.107-4.544h8.05a3.751,3.751,0,0,0-3.959-3.636C242.722,136.94,241.294,138.109,240.871,140.576Z" transform="translate(-71.269 -8.226)" />
      <path d="M279,142.347V118.976h3.96v23.371Z" transform="translate(-94.365 0)" />
      <path d="M296.712,142.347V118.976h3.96v23.371Z" transform="translate(-104.094 0)" />
      <path d="M311.98,142.393a8.554,8.554,0,1,1,8.569,8.439A8.219,8.219,0,0,1,311.98,142.393Zm13.081,0c0-2.954-1.818-5-4.512-5-2.726,0-4.544,2.045-4.544,5s1.818,5,4.544,5C323.243,147.392,325.061,145.347,325.061,142.393Z" transform="translate(-112.479 -8.226)" />
      <circle cx="2.626" cy="2.626" r="2.626" transform="translate(125.636 119.817)" />
    </g>
  </svg>
  <svg id="pencil" viewBox="0 0 25 25">
    <g transform="translate(-297 -100)">
      <path d="M2.5,12H0V9.5L7.373,2.128l2.5,2.5Zm8.086-8.086h0l-2.5-2.5L9.306.195a.664.664,0,0,1,.94,0l1.56,1.56a.666.666,0,0,1,0,.94l-1.22,1.219Z" transform="translate(304 107)" />
    </g>
  </svg>
  <svg id="close" viewBox="0 0 25 25">
    <g transform="translate(-312 -99)">
      <path d="M18.05,18.309a1.269,1.269,0,0,1-1.795,0l-2.8-3.2-2.8,3.2a1.269,1.269,0,0,1-1.795-1.795l2.917-3.332L8.851,9.847a1.269,1.269,0,0,1,1.795-1.795l2.8,3.206,2.8-3.206A1.269,1.269,0,0,1,18.05,9.847l-2.917,3.334,2.917,3.332A1.27,1.27,0,0,1,18.05,18.309Z" transform="translate(311.049 98.319)"/>
    </g>
  </svg>
  <svg id="back" viewBox="0 0 10 20">
    <path d="M9,1l-8,9l8,9" stroke-width="2" fill="none"/>
  </svg>
  <svg id="forth" viewBox="0 0 10 20">
    <path d="M1,1l8,9l-8,9" stroke-width="2" fill="none"/>
  </svg>
  <svg id="down" viewBox="0 0 20 10">
    <path d="M1,1l9,8l9,-8" stroke-width="2" fill="none"/>
  </svg>
  <svg id="close-modal" viewBox="0 0 20 20">
    <path d="M1,1L18,18M1,18L18,1" stroke-width="2" stroke-linecap="round"/>
  </svg>
  <svg width="57" height="57" viewBox="0 0 57 57" fill="none" id="confetti">
    <path d="M23.0227 33.977C25.3418 36.2961 28.0266 38.0597 30.4865 38.8796C32.9463 39.6996 34.9797 39.5088 36.1392 38.3492C37.2988 37.1896 37.4896 35.1562 36.6697 32.6964C35.8497 30.2366 34.0862 27.5518 31.7671 25.2326C29.4479 22.9135 26.7631 21.1499 24.3033 20.33C21.8434 19.5101 19.8101 19.7009 18.6505 20.8604C17.4909 22.02 17.3001 24.0534 18.1201 26.5132C18.94 28.973 20.7035 31.6578 23.0227 33.977V33.977Z" stroke="black" stroke-width="3" stroke-linecap="round" stroke-linejoin="round"/>
    <path d="M17.6652 23.0818L2.32616 49.984C2.02271 50.6404 1.92796 51.374 2.05469 52.086C2.18143 52.7979 2.52355 53.4538 3.03487 53.9651C3.54619 54.4764 4.20209 54.8186 4.91402 54.9453C5.62594 55.072 6.35961 54.9773 7.01598 54.6738L33.9182 39.3465" stroke="black" stroke-width="3" stroke-linecap="round" stroke-linejoin="round"/>
    <path d="M37.3878 18.3708C37.4701 18.4528 37.5353 18.5503 37.5799 18.6576C37.6244 18.7649 37.6473 18.88 37.6473 18.9961C37.6473 19.1123 37.6244 19.2274 37.5799 19.3347C37.5353 19.442 37.4701 19.5395 37.3878 19.6215" stroke="#4DAAC6" stroke-width="3" stroke-linecap="round" stroke-linejoin="round"/>
    <path d="M36.1394 18.3708C36.305 18.2054 36.5295 18.1124 36.7636 18.1124C36.9977 18.1124 37.2222 18.2054 37.3878 18.3708" stroke="#4DAAC6" stroke-width="3" stroke-linecap="round" stroke-linejoin="round"/>
    <path d="M36.1394 19.6121C35.9744 19.4458 35.8818 19.221 35.8818 18.9867C35.8818 18.7525 35.9744 18.5277 36.1394 18.3613" stroke="#4DAAC6" stroke-width="3" stroke-linecap="round" stroke-linejoin="round"/>
    <path d="M37.3878 19.6121C37.2222 19.7776 36.9977 19.8705 36.7636 19.8705C36.5295 19.8705 36.305 19.7776 36.1394 19.6121" stroke="#4DAAC6" stroke-width="3" stroke-linecap="round" stroke-linejoin="round"/>
    <path d="M47.3823 8.36928C47.4645 8.45113 47.5297 8.54841 47.5742 8.65552C47.6187 8.76264 47.6416 8.87749 47.6416 8.99349C47.6416 9.10948 47.6187 9.22433 47.5742 9.33145C47.5297 9.43857 47.4645 9.53585 47.3823 9.6177" stroke="black" stroke-width="3" stroke-linecap="round" stroke-linejoin="round"/>
    <path d="M46.1339 8.36929C46.2158 8.2871 46.313 8.22189 46.4202 8.17739C46.5273 8.13289 46.6421 8.10999 46.7581 8.10999C46.8741 8.10999 46.989 8.13289 47.0961 8.17739C47.2032 8.22189 47.3005 8.2871 47.3823 8.36929" stroke="black" stroke-width="3" stroke-linecap="round" stroke-linejoin="round"/>
    <path d="M46.1338 9.6177C46.0516 9.53585 45.9864 9.43857 45.9419 9.33145C45.8974 9.22433 45.8745 9.10948 45.8745 8.99349C45.8745 8.87749 45.8974 8.76264 45.9419 8.65552C45.9864 8.54841 46.0516 8.45113 46.1338 8.36928" stroke="black" stroke-width="3" stroke-linecap="round" stroke-linejoin="round"/>
    <path d="M47.3823 9.61769C47.2167 9.78311 46.9922 9.87602 46.7581 9.87602C46.524 9.87602 46.2995 9.78311 46.1339 9.61769" stroke="black" stroke-width="3" stroke-linecap="round" stroke-linejoin="round"/>
    <path d="M47.3823 33.3518C47.4646 33.4338 47.5298 33.5313 47.5744 33.6386C47.6189 33.7459 47.6418 33.861 47.6418 33.9772C47.6418 34.0933 47.6189 34.2084 47.5744 34.3157C47.5298 34.423 47.4646 34.5205 47.3823 34.6025" stroke="#4DAAC6" stroke-width="3" stroke-linecap="round" stroke-linejoin="round"/>
    <path d="M46.1339 33.3518C46.2995 33.1864 46.524 33.0935 46.7581 33.0935C46.9922 33.0935 47.2167 33.1864 47.3823 33.3518" stroke="#4DAAC6" stroke-width="3" stroke-linecap="round" stroke-linejoin="round"/>
    <path d="M46.1338 34.6025C46.0515 34.5205 45.9862 34.423 45.9417 34.3157C45.8972 34.2084 45.8743 34.0933 45.8743 33.9772C45.8743 33.861 45.8972 33.7459 45.9417 33.6386C45.9862 33.5313 46.0515 33.4338 46.1338 33.3518" stroke="#4DAAC6" stroke-width="3" stroke-linecap="round" stroke-linejoin="round"/>
    <path d="M47.3823 34.6026C47.2167 34.768 46.9922 34.8609 46.7581 34.8609C46.524 34.8609 46.2995 34.768 46.1339 34.6026" stroke="#4DAAC6" stroke-width="3" stroke-linecap="round" stroke-linejoin="round"/>
    <path d="M19.9006 10.8661C20.0656 11.0325 20.1582 11.2573 20.1582 11.4915C20.1582 11.7258 20.0656 11.9506 19.9006 12.1169" stroke="black" stroke-width="3" stroke-linecap="round" stroke-linejoin="round"/>
    <path d="M18.6522 10.8661C18.8178 10.7007 19.0424 10.6078 19.2764 10.6078C19.5105 10.6078 19.735 10.7007 19.9006 10.8661" stroke="black" stroke-width="3" stroke-linecap="round" stroke-linejoin="round"/>
    <path d="M18.6522 12.1169C18.5699 12.0349 18.5047 11.9374 18.4602 11.8301C18.4156 11.7228 18.3927 11.6077 18.3927 11.4915C18.3927 11.3754 18.4156 11.2603 18.4602 11.153C18.5047 11.0457 18.5699 10.9482 18.6522 10.8661" stroke="black" stroke-width="3" stroke-linecap="round" stroke-linejoin="round"/>
    <path d="M19.9006 12.1169C19.735 12.2823 19.5105 12.3752 19.2764 12.3752C19.0424 12.3752 18.8178 12.2823 18.6522 12.1169" stroke="black" stroke-width="3" stroke-linecap="round" stroke-linejoin="round"/>
    <path d="M30.5193 2C31.0166 6.45172 30.5908 10.9581 29.2686 15.2379" stroke="black" stroke-width="3" stroke-linecap="round" stroke-linejoin="round"/>
    <path d="M39.2629 5.2459L38.0145 11.4903" stroke="#4DAAC6" stroke-width="3" stroke-linecap="round" stroke-linejoin="round"/>
    <path d="M55 26.4808C50.5483 25.9836 46.0419 26.4093 41.7621 27.7316" stroke="black" stroke-width="3" stroke-linecap="round" stroke-linejoin="round"/>
    <path d="M51.7542 17.7371L45.5098 18.9856" stroke="black" stroke-width="3" stroke-linecap="round" stroke-linejoin="round"/>
  </svg>

</svg>
