<?xml version="1.0" encoding="utf-8"?>
<svg version="1.1" xmlns="http://www.w3.org/2000/svg" xmlns:xlink="http://www.w3.org/1999/xlink">
  <svg id="eye" viewBox="0 0 24 24"><path d="M15 12c0 1.654-1.346 3-3 3s-3-1.346-3-3 1.346-3 3-3 3 1.346 3 3zm9-.449s-4.252 8.449-11.985 8.449c-7.18 0-12.015-8.449-12.015-8.449s4.446-7.551 12.015-7.551c7.694 0 11.985 7.551 11.985 7.551zm-7 .449c0-2.757-2.243-5-5-5s-5 2.243-5 5 2.243 5 5 5 5-2.243 5-5z"/></svg>
  <svg id="closed-eye" viewBox="0 0 24 24"><path d="m11.885 14.988 3.104-3.098.011.11c0 1.654-1.346 3-3 3zm8.048-8.032-3.274 3.268c.212.554.341 1.149.341 1.776 0 2.757-2.243 5-5 5-.631 0-1.229-.13-1.785-.344l-2.377 2.372c1.276.588 2.671.972 4.177.972 7.733 0 11.985-8.449 11.985-8.449s-1.415-2.478-4.067-4.595zm1.431-3.536-18.619 18.58-1.382-1.422 3.455-3.447c-3.022-2.45-4.818-5.58-4.818-5.58s4.446-7.551 12.015-7.551c1.825 0 3.456.426 4.886 1.075l3.081-3.075 1.382 1.42zm-13.751 10.922 1.519-1.515c-.077-.264-.132-.538-.132-.827 0-1.654 1.346-3 3-3 .291 0 .567.055.833.134l1.518-1.515c-.704-.382-1.496-.619-2.351-.619-2.757 0-5 2.243-5 5 0 .852.235 1.641.613 2.342z"/></svg>
  <svg id="sparkles" viewBox="0 0 36 36">
    <path d="M21.167,13.333l1.927-4.24,4.24-1.927L23.094,5.24,21.167,1,19.24,5.24,15,7.167l4.24,1.927Z" transform="translate(6.583 -1)"/>
    <path d="M21.167,15,19.24,19.24,15,21.167l4.24,1.927,1.927,4.24,1.927-4.24,4.24-1.927-4.24-1.927Z" transform="translate(6.583 6.583)"/>
    <path d="M17.188,12.479,13.333,4,9.479,12.479,1,16.333l8.479,3.854,3.854,8.479,3.854-8.479,8.479-3.854ZM14.86,17.86,13.333,21.22,11.807,17.86,8.446,16.333l3.361-1.526,1.526-3.361,1.526,3.361,3.361,1.526Z" transform="translate(-1 0.625)"/>
  </svg>
</svg>
