<?xml version="1.0" encoding="utf-8"?>
<svg version="1.1" xmlns="http://www.w3.org/2000/svg" xmlns:xlink="http://www.w3.org/1999/xlink">
  <svg id="eye" viewBox="0 0 24 24">
    <path d="M15 12c0 1.654-1.346 3-3 3s-3-1.346-3-3 1.346-3 3-3 3 1.346 3 3zm9-.449s-4.252 8.449-11.985 8.449c-7.18 0-12.015-8.449-12.015-8.449s4.446-7.551 12.015-7.551c7.694 0 11.985 7.551 11.985 7.551zm-7 .449c0-2.757-2.243-5-5-5s-5 2.243-5 5 2.243 5 5 5 5-2.243 5-5z"/>
  </svg>

  <svg id="closed-eye" viewBox="0 0 24 24">
    <path d="m11.885 14.988 3.104-3.098.011.11c0 1.654-1.346 3-3 3zm8.048-8.032-3.274 3.268c.212.554.341 1.149.341 1.776 0 2.757-2.243 5-5 5-.631 0-1.229-.13-1.785-.344l-2.377 2.372c1.276.588 2.671.972 4.177.972 7.733 0 11.985-8.449 11.985-8.449s-1.415-2.478-4.067-4.595zm1.431-3.536-18.619 18.58-1.382-1.422 3.455-3.447c-3.022-2.45-4.818-5.58-4.818-5.58s4.446-7.551 12.015-7.551c1.825 0 3.456.426 4.886 1.075l3.081-3.075 1.382 1.42zm-13.751 10.922 1.519-1.515c-.077-.264-.132-.538-.132-.827 0-1.654 1.346-3 3-3 .291 0 .567.055.833.134l1.518-1.515c-.704-.382-1.496-.619-2.351-.619-2.757 0-5 2.243-5 5 0 .852.235 1.641.613 2.342z"/>
  </svg>

  <svg id="sparkles" viewBox="0 0 36 36">
    <path d="M21.167,13.333l1.927-4.24,4.24-1.927L23.094,5.24,21.167,1,19.24,5.24,15,7.167l4.24,1.927Z" transform="translate(6.583 -1)"/>
    <path d="M21.167,15,19.24,19.24,15,21.167l4.24,1.927,1.927,4.24,1.927-4.24,4.24-1.927-4.24-1.927Z" transform="translate(6.583 6.583)"/>
    <path d="M17.188,12.479,13.333,4,9.479,12.479,1,16.333l8.479,3.854,3.854,8.479,3.854-8.479,8.479-3.854ZM14.86,17.86,13.333,21.22,11.807,17.86,8.446,16.333l3.361-1.526,1.526-3.361,1.526,3.361,3.361,1.526Z" transform="translate(-1 0.625)"/>
  </svg>

  <svg id="logo" viewBox="0 0 109.429 23.63">
    <g transform="translate(-107.178 -118.976)">
      <path d="M107.178,143.139V120.417H116.3c4.739,0,7.563,2.921,7.563,7.044s-2.824,7.044-7.563,7.044h-4.8v8.634ZM111.5,130.9H116.1a3.443,3.443,0,1,0,0-6.881H111.5Z" transform="translate(0 -0.791)" />
      <path d="M149.521,151.72V136.042h3.993V151.72Z" transform="translate(-23.255 -9.373)" />
      <path d="M164.355,142.393a8.06,8.06,0,0,1,8.309-8.439c4.122,0,7.466,2.467,7.822,6.232h-3.959a3.67,3.67,0,0,0-3.765-2.792c-2.759,0-4.252,2.143-4.252,5s1.526,5,4.317,5a3.632,3.632,0,0,0,3.733-2.694h4.025c-.52,3.57-3.7,6.134-7.92,6.134A8.06,8.06,0,0,1,164.355,142.393Z" transform="translate(-31.402 -8.226)" />
      <path d="M203.746,145.12h3.635a2.853,2.853,0,0,0,3.148,2.532c1.558,0,2.6-.779,2.6-1.753,0-3.635-8.959-.162-8.959-7.076,0-2.856,2.5-4.869,5.875-4.869,3.831,0,6.46,2.11,6.622,5.291h-3.635a2.817,2.817,0,0,0-2.889-2.3c-1.428,0-2.369.649-2.369,1.753,0,3.538,9.088-.357,9.088,7.044,0,3.083-2.5,5.1-6.33,5.1C206.57,150.832,203.941,148.625,203.746,145.12Z" transform="translate(-53.036 -8.226)" />
      <path d="M252.979,145.12c-.616,3.473-3.667,5.712-7.693,5.712a8.2,8.2,0,0,1-8.342-8.5c0-4.317,2.662-8.374,8.018-8.374,5.486,0,7.952,3.993,7.952,7.887,0,.552-.033,1.039-.065,1.364H240.774c.292,2.629,1.98,4.317,4.512,4.317,2.045,0,3.376-.844,3.8-2.4Zm-12.107-4.544h8.05a3.751,3.751,0,0,0-3.959-3.636C242.722,136.94,241.294,138.109,240.871,140.576Z" transform="translate(-71.269 -8.226)" />
      <path d="M279,142.347V118.976h3.96v23.371Z" transform="translate(-94.365 0)" />
      <path d="M296.712,142.347V118.976h3.96v23.371Z" transform="translate(-104.094 0)" />
      <path d="M311.98,142.393a8.554,8.554,0,1,1,8.569,8.439A8.219,8.219,0,0,1,311.98,142.393Zm13.081,0c0-2.954-1.818-5-4.512-5-2.726,0-4.544,2.045-4.544,5s1.818,5,4.544,5C323.243,147.392,325.061,145.347,325.061,142.393Z" transform="translate(-112.479 -8.226)" />
      <circle cx="2.626" cy="2.626" r="2.626" transform="translate(125.636 119.817)" />
    </g>
  </svg>

  <svg id="pencil" viewBox="0 0 12 12">
    <path d="M9.47204 10.0598H0.604598C0.444249 10.0598 0.290467 10.1235 0.177083 10.2369C0.0636986 10.3503 0 10.5041 0 10.6644C0 10.8248 0.0636986 10.9785 0.177083 11.0919C0.290467 11.2053 0.444249 11.269 0.604598 11.269H9.47204C9.63239 11.269 9.78617 11.2053 9.89956 11.0919C10.0129 10.9785 10.0766 10.8248 10.0766 10.6644C10.0766 10.5041 10.0129 10.3503 9.89956 10.2369C9.78617 10.1235 9.63239 10.0598 9.47204 10.0598Z" />
    <path d="M10.9312 1.19236L10.0767 0.337862C9.84512 0.120796 9.53961 0 9.2222 0C8.90479 0 8.59928 0.120796 8.3677 0.337862L2.95856 5.747C2.89925 5.80608 2.85981 5.88215 2.8457 5.96466L2.41845 8.38305C2.40804 8.44689 2.41283 8.51227 2.43244 8.5739C2.45205 8.63554 2.48592 8.69167 2.53131 8.73775C2.56789 8.77571 2.6117 8.80597 2.66016 8.82674C2.70861 8.84751 2.76074 8.85836 2.81345 8.85867H2.88601L5.3044 8.43142C5.38387 8.41529 5.45679 8.37603 5.514 8.31856L10.9231 2.90942C11.0379 2.79696 11.1291 2.66275 11.1913 2.51465C11.2536 2.36655 11.2858 2.20753 11.2859 2.04686C11.2839 1.72662 11.1566 1.4199 10.9312 1.19236Z" />
  </svg>

  <svg id="close" viewBox="0 0 25 25">
    <g transform="translate(-312 -99)">
      <path d="M18.05,18.309a1.269,1.269,0,0,1-1.795,0l-2.8-3.2-2.8,3.2a1.269,1.269,0,0,1-1.795-1.795l2.917-3.332L8.851,9.847a1.269,1.269,0,0,1,1.795-1.795l2.8,3.206,2.8-3.206A1.269,1.269,0,0,1,18.05,9.847l-2.917,3.334,2.917,3.332A1.27,1.27,0,0,1,18.05,18.309Z" transform="translate(311.049 98.319)"/>
    </g>
  </svg>

  <svg id="back" viewBox="0 0 10 20">
    <path d="M9,1l-8,9l8,9" stroke-width="2" fill="none"/>
  </svg>

  <svg id="forth" viewBox="0 0 10 20">
    <path d="M1,1l8,9l-8,9" stroke-width="2" fill="none"/>
  </svg>

  <svg id="down" viewBox="0 0 20 10">
    <path d="M1,1l9,8l9,-8" stroke-width="2" fill="none"/>
  </svg>

  <svg id="up" viewBox="0 0 20 10">
    <path d="M1,9 l9,-8 l9,8" stroke-width="2" fill="none"/>
  </svg>

  <svg id="close-modal" viewBox="0 0 25 25" fill="none">
    <path d="M1 1L24 24" stroke="black"/>
    <path d="M24 1L1 24" stroke="black"/>
  </svg>

  <svg width="57" height="57" viewBox="0 0 57 57" fill="none" id="confetti">
    <path d="M23.0227 33.977C25.3418 36.2961 28.0266 38.0597 30.4865 38.8796C32.9463 39.6996 34.9797 39.5088 36.1392 38.3492C37.2988 37.1896 37.4896 35.1562 36.6697 32.6964C35.8497 30.2366 34.0862 27.5518 31.7671 25.2326C29.4479 22.9135 26.7631 21.1499 24.3033 20.33C21.8434 19.5101 19.8101 19.7009 18.6505 20.8604C17.4909 22.02 17.3001 24.0534 18.1201 26.5132C18.94 28.973 20.7035 31.6578 23.0227 33.977V33.977Z" stroke="black" stroke-width="3" stroke-linecap="round" stroke-linejoin="round"/>
    <path d="M17.6652 23.0818L2.32616 49.984C2.02271 50.6404 1.92796 51.374 2.05469 52.086C2.18143 52.7979 2.52355 53.4538 3.03487 53.9651C3.54619 54.4764 4.20209 54.8186 4.91402 54.9453C5.62594 55.072 6.35961 54.9773 7.01598 54.6738L33.9182 39.3465" stroke="black" stroke-width="3" stroke-linecap="round" stroke-linejoin="round"/>
    <path d="M37.3878 18.3708C37.4701 18.4528 37.5353 18.5503 37.5799 18.6576C37.6244 18.7649 37.6473 18.88 37.6473 18.9961C37.6473 19.1123 37.6244 19.2274 37.5799 19.3347C37.5353 19.442 37.4701 19.5395 37.3878 19.6215" stroke="#4DAAC6" stroke-width="3" stroke-linecap="round" stroke-linejoin="round"/>
    <path d="M36.1394 18.3708C36.305 18.2054 36.5295 18.1124 36.7636 18.1124C36.9977 18.1124 37.2222 18.2054 37.3878 18.3708" stroke="#4DAAC6" stroke-width="3" stroke-linecap="round" stroke-linejoin="round"/>
    <path d="M36.1394 19.6121C35.9744 19.4458 35.8818 19.221 35.8818 18.9867C35.8818 18.7525 35.9744 18.5277 36.1394 18.3613" stroke="#4DAAC6" stroke-width="3" stroke-linecap="round" stroke-linejoin="round"/>
    <path d="M37.3878 19.6121C37.2222 19.7776 36.9977 19.8705 36.7636 19.8705C36.5295 19.8705 36.305 19.7776 36.1394 19.6121" stroke="#4DAAC6" stroke-width="3" stroke-linecap="round" stroke-linejoin="round"/>
    <path d="M47.3823 8.36928C47.4645 8.45113 47.5297 8.54841 47.5742 8.65552C47.6187 8.76264 47.6416 8.87749 47.6416 8.99349C47.6416 9.10948 47.6187 9.22433 47.5742 9.33145C47.5297 9.43857 47.4645 9.53585 47.3823 9.6177" stroke="black" stroke-width="3" stroke-linecap="round" stroke-linejoin="round"/>
    <path d="M46.1339 8.36929C46.2158 8.2871 46.313 8.22189 46.4202 8.17739C46.5273 8.13289 46.6421 8.10999 46.7581 8.10999C46.8741 8.10999 46.989 8.13289 47.0961 8.17739C47.2032 8.22189 47.3005 8.2871 47.3823 8.36929" stroke="black" stroke-width="3" stroke-linecap="round" stroke-linejoin="round"/>
    <path d="M46.1338 9.6177C46.0516 9.53585 45.9864 9.43857 45.9419 9.33145C45.8974 9.22433 45.8745 9.10948 45.8745 8.99349C45.8745 8.87749 45.8974 8.76264 45.9419 8.65552C45.9864 8.54841 46.0516 8.45113 46.1338 8.36928" stroke="black" stroke-width="3" stroke-linecap="round" stroke-linejoin="round"/>
    <path d="M47.3823 9.61769C47.2167 9.78311 46.9922 9.87602 46.7581 9.87602C46.524 9.87602 46.2995 9.78311 46.1339 9.61769" stroke="black" stroke-width="3" stroke-linecap="round" stroke-linejoin="round"/>
    <path d="M47.3823 33.3518C47.4646 33.4338 47.5298 33.5313 47.5744 33.6386C47.6189 33.7459 47.6418 33.861 47.6418 33.9772C47.6418 34.0933 47.6189 34.2084 47.5744 34.3157C47.5298 34.423 47.4646 34.5205 47.3823 34.6025" stroke="#4DAAC6" stroke-width="3" stroke-linecap="round" stroke-linejoin="round"/>
    <path d="M46.1339 33.3518C46.2995 33.1864 46.524 33.0935 46.7581 33.0935C46.9922 33.0935 47.2167 33.1864 47.3823 33.3518" stroke="#4DAAC6" stroke-width="3" stroke-linecap="round" stroke-linejoin="round"/>
    <path d="M46.1338 34.6025C46.0515 34.5205 45.9862 34.423 45.9417 34.3157C45.8972 34.2084 45.8743 34.0933 45.8743 33.9772C45.8743 33.861 45.8972 33.7459 45.9417 33.6386C45.9862 33.5313 46.0515 33.4338 46.1338 33.3518" stroke="#4DAAC6" stroke-width="3" stroke-linecap="round" stroke-linejoin="round"/>
    <path d="M47.3823 34.6026C47.2167 34.768 46.9922 34.8609 46.7581 34.8609C46.524 34.8609 46.2995 34.768 46.1339 34.6026" stroke="#4DAAC6" stroke-width="3" stroke-linecap="round" stroke-linejoin="round"/>
    <path d="M19.9006 10.8661C20.0656 11.0325 20.1582 11.2573 20.1582 11.4915C20.1582 11.7258 20.0656 11.9506 19.9006 12.1169" stroke="black" stroke-width="3" stroke-linecap="round" stroke-linejoin="round"/>
    <path d="M18.6522 10.8661C18.8178 10.7007 19.0424 10.6078 19.2764 10.6078C19.5105 10.6078 19.735 10.7007 19.9006 10.8661" stroke="black" stroke-width="3" stroke-linecap="round" stroke-linejoin="round"/>
    <path d="M18.6522 12.1169C18.5699 12.0349 18.5047 11.9374 18.4602 11.8301C18.4156 11.7228 18.3927 11.6077 18.3927 11.4915C18.3927 11.3754 18.4156 11.2603 18.4602 11.153C18.5047 11.0457 18.5699 10.9482 18.6522 10.8661" stroke="black" stroke-width="3" stroke-linecap="round" stroke-linejoin="round"/>
    <path d="M19.9006 12.1169C19.735 12.2823 19.5105 12.3752 19.2764 12.3752C19.0424 12.3752 18.8178 12.2823 18.6522 12.1169" stroke="black" stroke-width="3" stroke-linecap="round" stroke-linejoin="round"/>
    <path d="M30.5193 2C31.0166 6.45172 30.5908 10.9581 29.2686 15.2379" stroke="black" stroke-width="3" stroke-linecap="round" stroke-linejoin="round"/>
    <path d="M39.2629 5.2459L38.0145 11.4903" stroke="#4DAAC6" stroke-width="3" stroke-linecap="round" stroke-linejoin="round"/>
    <path d="M55 26.4808C50.5483 25.9836 46.0419 26.4093 41.7621 27.7316" stroke="black" stroke-width="3" stroke-linecap="round" stroke-linejoin="round"/>
    <path d="M51.7542 17.7371L45.5098 18.9856" stroke="black" stroke-width="3" stroke-linecap="round" stroke-linejoin="round"/>
  </svg>

  <svg id="warning" width="49" height="49" viewBox="0 0 49 49" fill="none" >
    <path d="M24.5 37.9995C24.3517 37.9995 24.2067 38.0435 24.0833 38.1259C23.96 38.2083 23.8639 38.3255 23.8071 38.4625C23.7503 38.5995 23.7355 38.7503 23.7644 38.8958C23.7934 39.0413 23.8648 39.175 23.9697 39.2798C24.0746 39.3847 24.2082 39.4562 24.3537 39.4851C24.4992 39.514 24.65 39.4992 24.787 39.4424C24.9241 39.3857 25.0412 39.2895 25.1236 39.1662C25.206 39.0429 25.25 38.8978 25.25 38.7495C25.25 38.5506 25.171 38.3598 25.0303 38.2192C24.8897 38.0785 24.6989 37.9995 24.5 37.9995Z" stroke="#E1662F" stroke-width="3" stroke-linecap="round" stroke-linejoin="round"/>
    <path d="M24.5 31.9995V16.9995" stroke="#E1662F" stroke-width="3" stroke-linecap="round"/>
    <path d="M27.742 4.01952C27.4444 3.41355 26.9828 2.90314 26.4098 2.54617C25.8368 2.18921 25.1751 2 24.5 2C23.8249 2 23.1633 2.18921 22.5902 2.54617C22.0172 2.90314 21.5557 3.41355 21.258 4.01952L2.31202 42.6155C2.08396 43.0795 1.97789 43.5939 2.00383 44.1102C2.02977 44.6265 2.18686 45.1277 2.46027 45.5664C2.73369 46.0051 3.1144 46.367 3.56647 46.6177C4.01854 46.8685 4.52706 46.9999 5.04402 46.9995H43.956C44.473 46.9999 44.9815 46.8685 45.4336 46.6177C45.8856 46.367 46.2664 46.0051 46.5398 45.5664C46.8132 45.1277 46.9703 44.6265 46.9962 44.1102C47.0221 43.5939 46.9161 43.0795 46.688 42.6155L27.742 4.01952Z" stroke="black" stroke-width="3" stroke-linecap="round" stroke-linejoin="round"/>
  </svg>

  <svg id="money-bags" width="20" height="19" viewBox="0 0 23 19" fill="none">
    <path d="M13.0643 5.97799C14.9208 7.25926 17.3337 10.3445 17.3337 13.1239C17.3337 15.9433 14.2838 18.2282 11.2086 18.2282C8.13334 18.2282 5.0835 15.9433 5.0835 13.1239C5.0835 10.3445 7.49633 7.25926 9.35291 5.97799L7.94187 2.61418C7.88506 2.51499 7.8497 2.40499 7.83808 2.29127C7.82647 2.17756 7.83885 2.06268 7.87443 1.95405C7.91001 1.84543 7.968 1.74548 8.04464 1.66068C8.12128 1.57588 8.21487 1.50811 8.31936 1.46176C10.1948 0.846081 12.2179 0.846081 14.0933 1.46176C14.1981 1.50767 14.2922 1.57512 14.3693 1.65974C14.4464 1.74435 14.5049 1.84423 14.5409 1.9529C14.5769 2.06156 14.5897 2.17659 14.5784 2.29051C14.5671 2.40444 14.532 2.51471 14.4753 2.61418L13.0643 5.97799Z" stroke="#231F20" stroke-width="1.5" stroke-linecap="round" stroke-linejoin="round"/>
    <path d="M9.35278 5.97803H13.0641" stroke="#231F20" stroke-width="1.5" stroke-linecap="round" stroke-linejoin="round"/>
    <path d="M4.40283 17.5477C1.68057 17.5477 1 14.8254 1 12.9071C1.04008 11.7831 1.35769 10.6864 1.92451 9.71489C2.49133 8.74338 3.28974 7.92723 4.24856 7.3392L3.10158 5.68498C3.0309 5.5829 2.98948 5.46344 2.98181 5.33952C2.97415 5.21559 3.00053 5.09194 3.05811 4.98193C3.11568 4.87193 3.20225 4.77977 3.30844 4.71543C3.41463 4.6511 3.5364 4.61704 3.66056 4.61694H5.76396" stroke="#231F20" stroke-width="1.5" stroke-linecap="round" stroke-linejoin="round"/>
    <path d="M9.69219 14.4568C9.88867 14.715 10.1445 14.9221 10.438 15.0605C10.7315 15.1988 11.054 15.2644 11.3782 15.2517C12.4117 15.2517 13.2502 14.6229 13.2502 13.847C13.2502 13.0712 12.4117 12.4442 11.3782 12.4442C10.3446 12.4442 9.50708 11.8153 9.50708 11.0395C9.50708 10.2636 10.3455 9.63569 11.3782 9.63569C11.7024 9.62255 12.0249 9.68787 12.3185 9.8261C12.612 9.96434 12.8678 10.1714 13.0642 10.4297" stroke="#231F20" stroke-width="1.5" stroke-linecap="round" stroke-linejoin="round"/>
    <path d="M11.3782 15.2517V16.1864" stroke="#231F20" stroke-width="1.5" stroke-linecap="round" stroke-linejoin="round"/>
    <path d="M11.3782 8.7002V9.63575" stroke="#231F20" stroke-width="1.5" stroke-linecap="round" stroke-linejoin="round"/>
    <path d="M18.014 17.5477C20.7362 17.5477 21.4168 14.8254 21.4168 12.9071C21.3767 11.7831 21.0591 10.6864 20.4923 9.71489C19.9255 8.74338 19.127 7.92723 18.1682 7.3392L19.3152 5.68498C19.3859 5.5829 19.4273 5.46344 19.435 5.33952C19.4426 5.21559 19.4163 5.09194 19.3587 4.98193C19.3011 4.87193 19.2145 4.77977 19.1084 4.71543C19.0022 4.6511 18.8804 4.61704 18.7562 4.61694H16.6528" stroke="#231F20" stroke-width="1.5" stroke-linecap="round" stroke-linejoin="round"/>
  </svg>

  <svg id="envelope" viewBox="0 0 18 14" fill="none">
    <path d="M1.5,2.5 l7.5,4 l7.5,-4" stroke-width="1.5"/>
    <rect x="1.5" y="1.5" width="15" height="11" stroke-width="1.5" rx="1.5" />
  </svg>

  <svg id="cart" width="15" height="16" viewBox="0 0 15 16" fill="none">
    <path d="M9 6.85714H7.5V5.33333H9V6.85714ZM9 3.80952H7.5V0H9V3.80952ZM4.5 12.9524C4.20333 12.9524 3.91332 13.0418 3.66664 13.2092C3.41997 13.3766 3.22771 13.6146 3.11418 13.8931C3.00065 14.1715 2.97094 14.4779 3.02882 14.7735C3.0867 15.0691 3.22956 15.3406 3.43934 15.5537C3.64912 15.7668 3.91639 15.9119 4.20736 15.9707C4.49834 16.0295 4.79994 15.9993 5.07403 15.884C5.34811 15.7687 5.58238 15.5734 5.7472 15.3228C5.91203 15.0722 6 14.7776 6 14.4762C6 14.0721 5.84196 13.6845 5.56066 13.3987C5.27936 13.1129 4.89782 12.9524 4.5 12.9524ZM12 12.9524C11.7033 12.9524 11.4133 13.0418 11.1666 13.2092C10.92 13.3766 10.7277 13.6146 10.6142 13.8931C10.5006 14.1715 10.4709 14.4779 10.5288 14.7735C10.5867 15.0691 10.7296 15.3406 10.9393 15.5537C11.1491 15.7668 11.4164 15.9119 11.7074 15.9707C11.9983 16.0295 12.2999 15.9993 12.574 15.884C12.8481 15.7687 13.0824 15.5734 13.2472 15.3228C13.412 15.0722 13.5 14.7776 13.5 14.4762C13.5 14.0721 13.342 13.6845 13.0607 13.3987C12.7794 13.1129 12.3978 12.9524 12 12.9524ZM5.325 9.14286H10.9123C11.1801 9.14384 11.4433 9.0716 11.6742 8.93372C11.905 8.79584 12.0952 8.59739 12.2246 8.35918L15 3.01714L13.6877 2.28571L10.9123 7.61905H5.64729L2.45229 0.761905H0V2.28571H1.5L4.2 8.06879L3.18771 9.92653C3.0616 10.1587 2.99719 10.4202 3.00083 10.6854C3.00447 10.9505 3.07604 11.2101 3.20848 11.4386C3.34092 11.6671 3.52968 11.8566 3.75614 11.9884C3.98261 12.1203 4.23898 12.1899 4.5 12.1905H13.5V10.6667H4.5L5.325 9.14286Z" fill="currentColor" stroke="none"/>
  </svg>

  <svg id="gallery" width="16" height="16" viewBox="0 0 16 16" fill="none">
    <path d="M12.1907 14.4761H1.5237V3.81242H8.38148V2.28579H1.5237C1.11947 2.28696 0.732174 2.44827 0.446598 2.73439C0.161022 3.02051 0.00043674 3.40814 0 3.81242V14.4761C0.00116608 14.8799 0.162073 15.2669 0.447571 15.5524C0.733068 15.8379 1.11995 15.9988 1.5237 16H12.1907C12.5946 15.999 12.9816 15.8381 13.2672 15.5526C13.5528 15.267 13.7138 14.88 13.715 14.4761V7.62042H12.1907V14.4761ZM6.25559 12.0627L4.76392 10.2642L2.66676 12.9545H11.0493L8.3522 9.36308L6.25559 12.0627ZM13.7139 2.28635V0H12.1907V2.28579H9.90518C9.91292 2.29353 9.90518 3.80966 9.90518 3.80966H12.1907V6.08827C12.1985 6.096 13.7144 6.08827 13.7144 6.08827V3.81242H16V2.28579L13.7139 2.28635Z" fill="currentColor" stroke="none"/>
  </svg>

  <svg id="phone" viewBox="0 0 15 13" fill="none">
    <path d="M8.23361 11.9845L7.03277 10.835C6.84688 10.6568 6.75134 10.4241 6.76675 10.1869C6.78216 9.94981 6.90729 9.7273 7.11514 9.56744C7.32299 9.40757 7.5969 9.32316 7.87775 9.33243C8.1586 9.34169 8.42389 9.44388 8.61636 9.61696L8.63329 9.63279L9.26575 10.2459V6.88514C9.26242 6.76894 9.28664 6.65334 9.33696 6.54517C9.38729 6.43699 9.46272 6.33841 9.55881 6.25523C9.6549 6.17204 9.7697 6.10594 9.89648 6.06081C10.0233 6.01568 10.1594 5.99243 10.297 5.99243C10.4346 5.99243 10.5707 6.01568 10.6975 6.06081C10.8243 6.10594 10.9391 6.17204 11.0352 6.25523C11.1313 6.33841 11.2067 6.43699 11.257 6.54517C11.3073 6.65334 11.3316 6.76894 11.3282 6.88514V8.93387H11.7412C12.0423 8.93387 12.3404 8.98399 12.6185 9.08136C12.8967 9.17872 13.1494 9.32144 13.3623 9.50134C13.5751 9.68125 13.744 9.89483 13.8591 10.1299C13.9743 10.3649 14.0335 10.6168 14.0334 10.8712V11.9845" stroke="white" stroke-linecap="round" stroke-linejoin="round"/>
    <path d="M6.81562 6.46528L6.34338 6.8643C5.91418 7.22732 5.4391 7.54941 4.92669 7.82481V7.82481C4.68706 7.95345 4.40273 8.00933 4.12051 7.98323C3.83828 7.95714 3.57498 7.85063 3.37395 7.68124L3.00027 7.34353C2.96157 7.31093 2.93086 7.27219 2.90991 7.22954C2.88896 7.18688 2.87817 7.14116 2.87817 7.09498C2.87817 7.0488 2.88896 7.00307 2.90991 6.96042C2.93086 6.91777 2.96157 6.87903 3.00027 6.84642L3.73492 6.22516C3.81302 6.15936 3.9188 6.12241 4.02909 6.12241C4.13937 6.12241 4.24515 6.15936 4.32325 6.22516V6.22516C4.40137 6.29111 4.50728 6.32816 4.61771 6.32816C4.72815 6.32816 4.83406 6.29111 4.91218 6.22516L6.0858 5.23093C6.12442 5.19833 6.15505 5.15963 6.17595 5.11702C6.19684 5.07442 6.2076 5.02875 6.2076 4.98263C6.2076 4.93651 6.19684 4.89084 6.17595 4.84824C6.15505 4.80563 6.12442 4.76693 6.0858 4.73433V4.73433C6.00793 4.66834 5.9642 4.57896 5.9642 4.48577C5.9642 4.39259 6.00793 4.3032 6.0858 4.23722L6.82106 3.61544C6.89915 3.54964 7.00494 3.5127 7.11522 3.5127C7.2255 3.5127 7.33129 3.54964 7.40938 3.61544L7.78306 3.95315C7.98411 4.12293 8.11059 4.34559 8.1416 4.58433C8.1726 4.82307 8.10627 5.06361 7.95357 5.26618C7.6273 5.69985 7.2457 6.10196 6.81562 6.46528V6.46528Z" stroke="white" stroke-linecap="round" stroke-linejoin="round"/>
    <path d="M5.76649 11.9845H2.73294C2.50531 11.9845 2.27992 11.9466 2.06963 11.873C1.85934 11.7994 1.66828 11.6915 1.50735 11.5554C1.34643 11.4194 1.21879 11.2579 1.13174 11.0802C1.04469 10.9025 0.999921 10.7121 1 10.5197V2.46477C0.999921 2.27244 1.04469 2.08198 1.13174 1.90427C1.21879 1.72655 1.34643 1.56508 1.50735 1.42905C1.66828 1.29303 1.85934 1.18513 2.06963 1.11151C2.27992 1.03789 2.50531 1 2.73294 1H7.93296C8.16064 0.999933 8.38609 1.03777 8.59645 1.11136C8.80681 1.18495 8.99795 1.29284 9.15894 1.42887C9.31993 1.5649 9.44762 1.7264 9.53471 1.90415C9.6218 2.08189 9.66658 2.27239 9.6665 2.46477V3.92903" stroke="white" stroke-linecap="round" stroke-linejoin="round"/>
    <path d="M1 9.67358H4.6267" stroke="white" stroke-linecap="round" stroke-linejoin="round"/>
  </svg>

  <svg id="document" viewBox="0 0 21 21" fill="none">
    <path d="M4.79998 2.26672H2.26666C1.93072 2.26672 1.60854 2.40017 1.371 2.63772C1.13345 2.87527 1 3.19745 1 3.53339V18.7333C1 19.0693 1.13345 19.3914 1.371 19.629C1.60854 19.8665 1.93072 20 2.26666 20H18.7333C19.0692 20 19.3914 19.8665 19.6289 19.629C19.8665 19.3914 19.9999 19.0693 19.9999 18.7333V3.53339C19.9999 3.19745 19.8665 2.87527 19.6289 2.63772C19.3914 2.40017 19.0692 2.26672 18.7333 2.26672H9.86663" stroke="white" stroke-linecap="round" stroke-linejoin="round"/>
    <path d="M9.86645 9.86663L7.33313 7.96748L4.79981 9.86748V1.63418C4.79969 1.55093 4.81599 1.46849 4.84777 1.39155C4.87955 1.31461 4.92618 1.2447 4.985 1.1858C5.04383 1.1269 5.11368 1.08017 5.19058 1.04829C5.26747 1.01641 5.34989 1 5.43314 1H9.23312C9.40109 1 9.56218 1.06673 9.68095 1.1855C9.79973 1.30427 9.86645 1.46536 9.86645 1.63333V9.86663Z" stroke="white" stroke-linecap="round" stroke-linejoin="round"/>
    <path d="M4.7998 16.2001H13.6664" stroke="white" stroke-linecap="round" stroke-linejoin="round"/>
    <path d="M4.7998 12.3999H16.1998" stroke="white" stroke-linecap="round" stroke-linejoin="round"/>
    <path d="M16.1999 8.6001H12.3999" stroke="white" stroke-linecap="round" stroke-linejoin="round"/>
  </svg>

  <svg id="checkmark" viewBox="0 0 16 16" fill="none">
    <path d="M1 8.22222L6.15789 14L15 1" stroke="white" stroke-linecap="round" stroke-linejoin="round"/>
  </svg>

  <svg id="google" viewBox="0 0 25 24" fill="none">
    <g clip-path="url(#clip0)">
      <path d="M24.245 12.27C24.245 11.48 24.175 10.73 24.055 10H12.755V14.51H19.225C18.935 15.99 18.085 17.24 16.825 18.09V21.09H20.685C22.945 19 24.245 15.92 24.245 12.27Z" fill="#4285F4"/>
      <path d="M12.755 24C15.995 24 18.705 22.92 20.685 21.09L16.825 18.09C15.745 18.81 14.375 19.25 12.755 19.25C9.62498 19.25 6.97498 17.14 6.02498 14.29H2.04498V17.38C4.01498 21.3 8.06498 24 12.755 24Z" fill="#34A853"/>
      <path d="M6.02501 14.2901C5.77501 13.5701 5.645 12.8001 5.645 12.0001C5.645 11.2001 5.78501 10.4301 6.02501 9.71012V6.62012H2.045C1.225 8.24012 0.755005 10.0601 0.755005 12.0001C0.755005 13.9401 1.225 15.7601 2.045 17.3801L6.02501 14.2901Z" fill="#FBBC05"/>
      <path d="M12.755 4.75C14.525 4.75 16.105 5.36 17.355 6.55L20.775 3.13C18.705 1.19 15.995 0 12.755 0C8.06498 0 4.01498 2.7 2.04498 6.62L6.02498 9.71C6.97498 6.86 9.62498 4.75 12.755 4.75Z" fill="#EA4335"/>
    </g>
    <defs>
      <clipPath id="clip0">
        <rect width="24" height="24" fill="white" transform="translate(0.5)"/>
      </clipPath>
    </defs>
  </svg>

  <svg id="wedding" viewBox="0 0 13 13">
    <path d="M6.5 0C4.77609 0 3.12279 0.684819 1.90381 1.90381C0.684819 3.12279 0 4.77609 0 6.5L0 12.4583C0 12.602 0.0570683 12.7398 0.158651 12.8414C0.260233 12.9429 0.398008 13 0.541667 13H12.4583C12.602 13 12.7398 12.9429 12.8414 12.8414C12.9429 12.7398 13 12.602 13 12.4583V6.5C13 4.77609 12.3152 3.12279 11.0962 1.90381C9.87721 0.684819 8.22391 0 6.5 0V0ZM11.8083 8.6125C10.8713 9.08917 10.075 10.2375 9.67958 11.7163C9.66501 11.774 9.63144 11.8251 9.58428 11.8615C9.53713 11.8978 9.47912 11.9173 9.41958 11.9167H3.58042C3.52088 11.9173 3.46287 11.8978 3.41572 11.8615C3.36856 11.8251 3.335 11.774 3.32042 11.7163C2.925 10.2537 2.12875 9.08917 1.19167 8.6125C1.15923 8.59378 1.13221 8.56698 1.11322 8.5347C1.09423 8.50242 1.08394 8.46578 1.08333 8.42833C1.08397 8.39573 1.09475 8.36413 1.11416 8.33792C1.13357 8.31171 1.16066 8.2922 1.19167 8.28208C2.67042 7.77833 3.79167 5.60083 3.79167 2.97917C3.79037 2.6659 3.77047 2.35299 3.73208 2.04208C3.72705 1.98818 3.73765 1.93397 3.76263 1.88593C3.78761 1.8379 3.8259 1.79808 3.87292 1.77125C4.42255 1.46421 5.02223 1.25698 5.64417 1.15917C5.68244 1.15336 5.72151 1.15567 5.75883 1.16593C5.79616 1.1762 5.83091 1.19419 5.86083 1.21875C5.89176 1.24451 5.91656 1.27683 5.93342 1.31337C5.95029 1.34991 5.9588 1.38976 5.95833 1.43V4.94542C5.95793 4.96637 5.95286 4.98696 5.94349 5.0057C5.93412 5.02445 5.92069 5.04086 5.90417 5.05375C5.88468 5.06292 5.86341 5.06768 5.84188 5.06768C5.82034 5.06768 5.79907 5.06292 5.77958 5.05375C5.52481 4.96706 5.24748 4.97396 4.99734 5.07323C4.74719 5.17249 4.54059 5.35762 4.41458 5.59542C4.3114 5.79324 4.27566 6.01936 4.31282 6.23936C4.34998 6.45936 4.45799 6.6612 4.62042 6.81417L6.24542 8.43917C6.27946 8.47733 6.32119 8.50788 6.36786 8.52879C6.41454 8.5497 6.46511 8.56051 6.51625 8.56051C6.5674 8.56051 6.61796 8.5497 6.66464 8.52879C6.71131 8.50788 6.75304 8.47733 6.78708 8.43917L8.41208 6.81417C8.57451 6.6612 8.68252 6.45936 8.71968 6.23936C8.75684 6.01936 8.7211 5.79324 8.61792 5.59542C8.49191 5.35762 8.28531 5.17249 8.03516 5.07323C7.78502 4.97396 7.50769 4.96706 7.25292 5.05375C7.23343 5.06292 7.21216 5.06768 7.19063 5.06768C7.16909 5.06768 7.14782 5.06292 7.12833 5.05375C7.11181 5.04086 7.09838 5.02445 7.08901 5.0057C7.07964 4.98696 7.07457 4.96637 7.07417 4.94542V1.43C7.07289 1.39041 7.08107 1.35109 7.09802 1.31529C7.11498 1.27949 7.14022 1.24826 7.17167 1.22417C7.20055 1.19771 7.23504 1.17812 7.27256 1.16687C7.31008 1.15561 7.34966 1.15298 7.38833 1.15917C8.01027 1.25698 8.60995 1.46421 9.15958 1.77125C9.2066 1.79808 9.24489 1.8379 9.26987 1.88593C9.29485 1.93397 9.30545 1.98818 9.30042 2.04208C9.25115 2.35234 9.2204 2.66525 9.20833 2.97917C9.20833 5.60083 10.3296 7.77833 11.8083 8.28208C11.8393 8.2922 11.8664 8.31171 11.8858 8.33792C11.9053 8.36413 11.916 8.39573 11.9167 8.42833C11.9161 8.46578 11.9058 8.50242 11.8868 8.5347C11.8678 8.56698 11.8408 8.59378 11.8083 8.6125Z" />
  </svg>

  <svg id="newborn" viewBox="0 0 15 15" fill="none">
    <g fill="currentColor">
      <path d="M6.59379 7.36244C6.59379 7.19668 6.52795 7.03771 6.41073 6.9205C6.29352 6.80329 6.13455 6.73745 5.96879 6.73745C5.82851 6.73226 5.69057 6.77445 5.57719 6.85721C5.46381 6.93998 5.3816 7.05851 5.34379 7.1937C5.32681 7.2653 5.28604 7.32902 5.22813 7.37443C5.17023 7.41985 5.09863 7.44427 5.02504 7.4437C4.95312 7.44496 4.88281 7.42234 4.82513 7.37936C4.76744 7.33638 4.72565 7.27548 4.70629 7.2062C4.68309 7.04043 4.59498 6.89068 4.46136 6.78988C4.32774 6.68908 4.15955 6.64549 3.99379 6.6687C3.82803 6.6919 3.67828 6.78001 3.57748 6.91363C3.47668 7.04724 3.43309 7.21544 3.45629 7.3812C3.47047 7.56911 3.52178 7.75235 3.60725 7.9203C3.69272 8.08825 3.81066 8.23758 3.95423 8.35965C4.0978 8.48172 4.26416 8.57409 4.44367 8.63143C4.62319 8.68877 4.81229 8.70993 5.00004 8.69369C5.19334 8.71801 5.38958 8.70225 5.57652 8.6474C5.76346 8.59256 5.9371 8.49979 6.08662 8.3749C6.23614 8.25001 6.35834 8.09565 6.4456 7.92147C6.53285 7.74728 6.5833 7.55698 6.59379 7.36244Z"/>
      <path d="M10.8623 6.73763C10.7228 6.73208 10.5855 6.77338 10.4723 6.85493C10.359 6.93648 10.2763 7.05361 10.2373 7.18763C10.2146 7.25235 10.1723 7.30841 10.1163 7.34806C10.0603 7.38772 9.9934 7.40902 9.9248 7.40902C9.8562 7.40902 9.78929 7.38772 9.73332 7.34806C9.67734 7.30841 9.63506 7.25235 9.6123 7.18763C9.5745 7.05244 9.49228 6.93392 9.3789 6.85115C9.26552 6.76839 9.12758 6.7262 8.9873 6.73138C8.82154 6.73138 8.66257 6.79723 8.54536 6.91444C8.42815 7.03165 8.3623 7.19062 8.3623 7.35638C8.37569 7.54402 8.42626 7.72713 8.51107 7.89504C8.59588 8.06296 8.71324 8.21233 8.85632 8.33447C8.99939 8.45661 9.16533 8.54907 9.34447 8.60648C9.52361 8.66389 9.71239 8.6851 9.8998 8.66888C10.0876 8.68512 10.2767 8.66396 10.4562 8.60662C10.6357 8.54928 10.802 8.4569 10.9456 8.33484C11.0892 8.21277 11.2071 8.06344 11.2926 7.89549C11.3781 7.72754 11.4294 7.5443 11.4436 7.35638C11.4424 7.19901 11.3819 7.04788 11.2741 6.93318C11.1663 6.81848 11.0193 6.74865 10.8623 6.73763Z"/>
      <path d="M9.25606 10.1874C9.1135 10.1029 8.94321 10.0785 8.78264 10.1195C8.62207 10.1605 8.48436 10.2636 8.39981 10.4062C8.27985 10.5178 8.13765 10.6027 7.98255 10.6555C7.82744 10.7083 7.66294 10.7277 7.49981 10.7124C7.33668 10.7277 7.17218 10.7083 7.01707 10.6555C6.86197 10.6027 6.71977 10.5178 6.59981 10.4062C6.56379 10.3265 6.51145 10.2552 6.44618 10.197C6.3809 10.1389 6.30413 10.095 6.22085 10.0683C6.13756 10.0417 6.0496 10.0328 5.96266 10.0422C5.87572 10.0517 5.79174 10.0793 5.71614 10.1233C5.64053 10.1672 5.575 10.2265 5.52376 10.2974C5.47253 10.3683 5.43674 10.4491 5.4187 10.5347C5.40067 10.6203 5.4008 10.7087 5.41908 10.7942C5.43735 10.8797 5.47337 10.9605 5.52481 11.0312C5.74788 11.3413 6.04624 11.5895 6.39177 11.7524C6.7373 11.9154 7.11863 11.9876 7.49981 11.9624C7.87987 11.989 8.26046 11.9187 8.6059 11.758C8.95134 11.5973 9.25032 11.3515 9.47481 11.0437C9.55932 10.9011 9.58375 10.7308 9.54273 10.5703C9.50171 10.4097 9.39859 10.272 9.25606 10.1874Z"/>
      <path d="M14.1061 6.20625C13.9863 6.11761 13.902 5.98904 13.8686 5.84375C13.5546 4.38136 12.7537 3.06882 11.5967 2.12081C10.4398 1.1728 8.99546 0.645441 7.49988 0.625C6.0043 0.645441 4.55992 1.1728 3.40301 2.12081C2.2461 3.06882 1.44513 4.38136 1.13113 5.84375C1.09773 5.98904 1.01349 6.11761 0.893627 6.20625C0.592582 6.42709 0.35307 6.7213 0.197892 7.06088C0.0427145 7.40046 -0.0229644 7.77411 0.00710796 8.14626C0.0371803 8.5184 0.162003 8.87666 0.369693 9.18692C0.577384 9.49718 0.861029 9.74912 1.19363 9.91875C1.32507 9.98343 1.42761 10.0949 1.48113 10.2312C1.96127 11.4403 2.78961 12.4796 3.86113 13.2173C4.93265 13.955 6.19908 14.3579 7.49988 14.375C8.80067 14.3579 10.0671 13.955 11.1386 13.2173C12.2101 12.4796 13.0385 11.4403 13.5186 10.2312C13.5721 10.0949 13.6747 9.98343 13.8061 9.91875C14.1387 9.74912 14.4224 9.49718 14.6301 9.18692C14.8378 8.87666 14.9626 8.5184 14.9926 8.14626C15.0227 7.77411 14.957 7.40046 14.8019 7.06088C14.6467 6.7213 14.4072 6.42709 14.1061 6.20625ZM12.9999 8.8875C12.8906 8.90867 12.7889 8.95865 12.7054 9.03227C12.6219 9.10588 12.5596 9.20047 12.5249 9.30625C12.2091 10.3984 11.5498 11.3597 10.6446 12.0476C9.73947 12.7355 8.6367 13.1133 7.49988 13.125C6.36736 13.108 5.27025 12.7277 4.37011 12.0402C3.46996 11.3527 2.81437 10.3944 2.49988 9.30625C2.46517 9.20047 2.40284 9.10588 2.31933 9.03227C2.23583 8.95865 2.13417 8.90867 2.02488 8.8875C1.82371 8.84912 1.64065 8.74593 1.50366 8.59369C1.36668 8.44145 1.28331 8.24855 1.2663 8.04446C1.2493 7.84038 1.29958 7.63634 1.40948 7.46353C1.51938 7.29072 1.68284 7.15865 1.87488 7.0875C1.97878 7.04899 2.07058 6.98356 2.14087 6.89789C2.21115 6.81223 2.2574 6.70942 2.27488 6.6C2.43607 5.31741 3.05202 4.1352 4.0108 3.26816C4.96959 2.40113 6.20759 1.9068 7.49988 1.875C7.72671 1.88128 7.94357 1.96962 8.11022 2.12363C8.27687 2.27764 8.38201 2.48687 8.40613 2.7125C8.42187 2.87643 8.37227 3.03996 8.26811 3.16752C8.16395 3.29509 8.01365 3.37639 7.84988 3.39375C7.79711 3.40026 7.74357 3.39508 7.69303 3.37859C7.64249 3.3621 7.59619 3.33469 7.55743 3.29831C7.51866 3.26193 7.48837 3.21747 7.46871 3.16807C7.44904 3.11868 7.44048 3.06557 7.44363 3.0125C7.48009 2.84674 7.44922 2.67328 7.3578 2.53029C7.26637 2.38729 7.12189 2.28647 6.95613 2.25C6.79037 2.21353 6.61691 2.24441 6.47391 2.33583C6.33092 2.42725 6.23009 2.57174 6.19363 2.7375C6.13623 3.02166 6.15838 3.31615 6.25763 3.58854C6.35687 3.86092 6.52938 4.10062 6.75613 4.28125C7.12358 4.5631 7.58776 4.68781 8.04698 4.62806C8.50621 4.56832 8.92303 4.32898 9.20613 3.9625C9.51629 3.58696 9.66466 3.10363 9.61863 2.61875C9.62406 2.59218 9.63606 2.5674 9.65353 2.54666C9.671 2.52592 9.69337 2.50988 9.71863 2.5C9.74238 2.48629 9.76933 2.47907 9.79675 2.47907C9.82418 2.47907 9.85112 2.48629 9.87488 2.5C10.6416 2.9194 11.3 3.51168 11.798 4.22987C12.296 4.94806 12.6197 5.77239 12.7436 6.6375C12.7611 6.74692 12.8073 6.84973 12.8776 6.93539C12.9479 7.02106 13.0397 7.08649 13.1436 7.125C13.3357 7.19562 13.4994 7.32714 13.6097 7.49949C13.72 7.67184 13.7709 7.87555 13.7546 8.07953C13.7383 8.28352 13.6557 8.47657 13.5195 8.62922C13.3832 8.78188 13.2007 8.88576 12.9999 8.925V8.8875Z"/>
    </g>
  </svg>

  <svg id="family" viewBox="0 0 14 14" fill="none">
    <g fill="currentColor">
      <path d="M1.95736 2.91667C2.76277 2.91667 3.41569 2.26375 3.41569 1.45833C3.41569 0.652918 2.76277 0 1.95736 0C1.15194 0 0.499023 0.652918 0.499023 1.45833C0.499023 2.26375 1.15194 2.91667 1.95736 2.91667Z"/>
      <path d="M2.17929 6.33503C2.88475 6.85429 3.67394 7.24888 4.51262 7.50169C4.62839 7.53194 4.74907 7.53844 4.86741 7.5208C4.98575 7.50317 5.0993 7.46177 5.20122 7.39909C5.30314 7.33642 5.39131 7.25376 5.46044 7.15611C5.52957 7.05845 5.57822 6.94781 5.60346 6.83086C5.63172 6.71467 5.63619 6.59397 5.6166 6.47601C5.59701 6.35805 5.55377 6.24528 5.48946 6.14446C5.42516 6.04365 5.34113 5.95689 5.24243 5.88939C5.14373 5.82189 5.0324 5.77505 4.91512 5.75169C4.09639 5.56413 3.35271 5.13539 2.78012 4.52086C2.50788 4.24558 2.19984 4.00817 1.86429 3.81503C1.80041 3.80645 1.73567 3.80645 1.67179 3.81503C1.47969 3.81742 1.29363 3.88255 1.14198 4.0005C0.990326 4.11845 0.881397 4.28275 0.831791 4.46836L0.0501248 7.77003C-0.0107052 8.04145 -0.0162294 8.32235 0.033882 8.59596C0.0839933 8.86957 0.188713 9.13028 0.341791 9.36252L0.954291 10.2784C0.976562 10.3113 0.991698 10.3486 0.998729 10.3878C1.00576 10.427 1.00453 10.4672 0.995125 10.5059L0.534292 12.5884C0.481155 12.8011 0.506092 13.0258 0.604572 13.2217C0.703051 13.4176 0.868536 13.5716 1.07096 13.6559C1.16855 13.6897 1.271 13.7075 1.37429 13.7084C1.5741 13.7079 1.76782 13.6395 1.92364 13.5144C2.07946 13.3894 2.18812 13.215 2.23179 13.02L2.70429 10.885C2.76504 10.6164 2.77051 10.3383 2.72037 10.0675C2.67023 9.79678 2.56552 9.53904 2.41262 9.31003L1.82929 8.39419C1.80734 8.36106 1.7924 8.32378 1.78538 8.28466C1.77836 8.24554 1.7794 8.20539 1.78846 8.16669L2.17929 6.33503Z"/>
      <path d="M6.74686 7.76999L7.33019 7.88666C7.45328 7.90985 7.57826 7.92157 7.70352 7.92166C8.20453 7.9207 8.68479 7.72146 9.03936 7.36749L9.24352 7.16332C9.27018 7.14251 9.30303 7.1312 9.33686 7.1312C9.37068 7.1312 9.40353 7.14251 9.43019 7.16332L10.5969 7.98582C10.6126 7.99637 10.626 8.01014 10.636 8.02623C10.6461 8.04232 10.6526 8.06036 10.6552 8.07916L10.8244 9.07082C10.8674 9.33327 10.9892 9.57644 11.1736 9.76812C11.358 9.95979 11.5963 10.0909 11.8569 10.1442C12.1087 10.2141 12.3665 10.261 12.6269 10.2842C12.8099 10.2868 12.9872 10.2205 13.1236 10.0984C13.26 9.97638 13.3455 9.80749 13.3631 9.6253C13.3808 9.44311 13.3292 9.26096 13.2188 9.11501C13.1083 8.96906 12.947 8.87 12.7669 8.83749L12.341 8.75582C12.3218 8.75599 12.3028 8.75203 12.2853 8.74422C12.2678 8.73641 12.2521 8.72493 12.2394 8.71056C12.2267 8.69618 12.2172 8.67924 12.2116 8.66089C12.206 8.64253 12.2044 8.62319 12.2069 8.60416L12.0494 7.68832C12.0204 7.52109 11.9586 7.36125 11.8675 7.21806C11.7764 7.07488 11.6578 6.95119 11.5185 6.85416L10.0777 5.82166C9.82481 5.64089 9.51597 5.55574 9.20618 5.58138C8.89639 5.60702 8.60575 5.74177 8.38602 5.96166L8.01269 6.34082C7.92936 6.42084 7.81902 6.46664 7.70352 6.46916C7.56935 6.46916 7.06186 6.32916 6.89269 6.32916C6.72409 6.32845 6.56046 6.38619 6.42964 6.49254C6.29883 6.5989 6.20891 6.7473 6.17519 6.91249C6.13899 7.10183 6.17862 7.29782 6.28556 7.45822C6.39249 7.61861 6.55815 7.73058 6.74686 7.76999Z"/>
      <path d="M8.70119 5.1041C8.86505 4.89672 8.95365 4.63985 8.95246 4.37555C8.95128 4.11124 8.86038 3.85517 8.69466 3.64927C8.52894 3.44337 8.29821 3.29985 8.04027 3.2422C7.78233 3.18455 7.51245 3.2162 7.27484 3.33196C7.03723 3.44772 6.84597 3.64073 6.73238 3.87938C6.61879 4.11803 6.5896 4.38818 6.64959 4.64559C6.70958 4.903 6.8552 5.13241 7.0626 5.29625C7.27 5.46009 7.52688 5.54865 7.79119 5.54743C7.86286 5.55634 7.93535 5.55634 8.00702 5.54743C8.28461 5.48897 8.53139 5.33136 8.70119 5.1041Z"/>
    </g>
  </svg>

  <svg id="other" viewBox="0 0 14 10" fill="none">
    <g fill="currentColor">
      <path d="M7.99219 7.58325C9.11402 7.58325 10.0234 6.67383 10.0234 5.552C10.0234 4.43017 9.11402 3.52075 7.99219 3.52075C6.87036 3.52075 5.96094 4.43017 5.96094 5.552C5.96094 6.67383 6.87036 7.58325 7.99219 7.58325Z"/>
      <path d="M11.6161 1.75488H10.9065C10.8499 1.75329 10.7949 1.73495 10.7486 1.70218C10.7024 1.6694 10.6668 1.62366 10.6465 1.57072C10.2945 0.861133 9.96404 0.129883 9.21112 0.129883H6.50279C5.92321 0.129883 5.61446 0.552383 5.06196 1.32155C4.85612 1.60322 4.78571 1.75488 4.60696 1.75488H1.35696C0.235708 1.75488 0.002791 2.4103 0.002791 2.9628V8.59072C-0.00948013 8.77173 0.0188174 8.9532 0.0856186 9.12188C0.15242 9.29057 0.256039 9.44221 0.388916 9.56574C0.521792 9.68927 0.680572 9.78158 0.85367 9.83593C1.02677 9.89028 1.20982 9.90529 1.38946 9.87988H11.6161C11.7958 9.90529 11.9788 9.89028 12.1519 9.83593C12.325 9.78158 12.4838 9.68927 12.6167 9.56574C12.7495 9.44221 12.8532 9.29057 12.92 9.12188C12.9868 8.9532 13.0151 8.77173 13.0028 8.59072V2.9628C13.0028 2.4103 12.7645 1.75488 11.6161 1.75488ZM11.107 5.54655C11.108 6.16279 10.9263 6.76549 10.5847 7.27839C10.2431 7.7913 9.75705 8.19134 9.18803 8.42791C8.61901 8.66447 7.9926 8.72693 7.38808 8.60736C6.78355 8.4878 6.22808 8.19159 5.79195 7.75623C5.35583 7.32086 5.05866 6.7659 4.93804 6.16159C4.81742 5.55727 4.87878 4.93075 5.11436 4.36132C5.34994 3.79189 5.74914 3.30514 6.26144 2.96266C6.77375 2.62019 7.37614 2.43738 7.99237 2.43738C8.81704 2.43881 9.6076 2.76667 10.1912 3.34929C10.7749 3.9319 11.1041 4.72189 11.107 5.54655ZM2.71112 3.79155C2.71006 3.92523 2.66944 4.0556 2.59439 4.16623C2.51935 4.27686 2.41323 4.3628 2.28942 4.41322C2.16561 4.46363 2.02964 4.47627 1.89866 4.44954C1.76768 4.42281 1.64754 4.3579 1.55339 4.26299C1.45924 4.16809 1.39529 4.04744 1.3696 3.91625C1.34391 3.78505 1.35763 3.64919 1.40903 3.52579C1.46043 3.40238 1.54722 3.29696 1.65844 3.22279C1.76967 3.14863 1.90036 3.10905 2.03404 3.10905C2.12362 3.10832 2.21244 3.12551 2.29527 3.15961C2.37811 3.19372 2.45328 3.24405 2.51637 3.30765C2.57946 3.37124 2.6292 3.44682 2.66264 3.52992C2.69609 3.61303 2.71257 3.70198 2.71112 3.79155Z"/>
      <path d="M1.35677 1.20792H2.98177C3.01754 1.20865 3.05309 1.20215 3.08628 1.1888C3.11947 1.17545 3.14962 1.15553 3.17492 1.13023C3.20022 1.10494 3.22014 1.07479 3.23349 1.04159C3.24684 1.0084 3.25334 0.972852 3.2526 0.937084V0.8125C3.2526 0.597012 3.167 0.390349 3.01463 0.237976C2.86226 0.0856024 2.65559 0 2.4401 0H1.89844C1.68295 0 1.47629 0.0856024 1.32391 0.237976C1.17154 0.390349 1.08594 0.597012 1.08594 0.8125V0.937084C1.08594 1.00891 1.11447 1.0778 1.16526 1.12859C1.21605 1.17938 1.28494 1.20792 1.35677 1.20792Z"/>
    </g>
  </svg>

  <svg id="portrait" viewBox="0 0 13 16" fill="none">
    <g fill="currentColor">
      <path d="M6.3335 8C7.12462 8 7.89798 7.76541 8.55578 7.32588C9.21357 6.88636 9.72626 6.26164 10.029 5.53074C10.3318 4.79983 10.411 3.99557 10.2566 3.21964C10.1023 2.44372 9.72133 1.73098 9.16192 1.17157C8.60251 0.612165 7.88978 0.231202 7.11386 0.0768607C6.33793 -0.0774802 5.53367 0.00173314 4.80276 0.304484C4.07186 0.607234 3.44714 1.11992 3.00762 1.77772C2.56809 2.43552 2.3335 3.20888 2.3335 4C2.3335 5.06087 2.75492 6.07828 3.50507 6.82843C4.25521 7.57858 5.27263 8 6.3335 8ZM6.3335 6.66667C5.89672 6.66688 5.46659 6.5598 5.08089 6.35484C4.6952 6.14989 4.36575 5.85333 4.1215 5.49124C3.87725 5.12915 3.72568 4.7126 3.68011 4.27822C3.63455 3.84383 3.69637 3.4049 3.86016 3C3.86999 2.97756 3.88464 2.95756 3.90308 2.94143C3.92152 2.9253 3.94328 2.91343 3.96683 2.90667C3.9871 2.89497 4.01009 2.88881 4.0335 2.88881C4.0569 2.88881 4.07989 2.89497 4.10016 2.90667C5.09398 3.49959 6.22958 3.81286 7.38683 3.81334C7.85744 3.81543 8.32687 3.76625 8.78683 3.66667C8.8073 3.65558 8.83021 3.64978 8.85349 3.64978C8.87678 3.64978 8.89969 3.65558 8.92016 3.66667C8.9397 3.67866 8.956 3.69526 8.96763 3.71502C8.97925 3.73478 8.98584 3.7571 8.98683 3.78C8.99012 3.83551 8.99012 3.89116 8.98683 3.94667C8.9939 4.3002 8.9306 4.65162 8.80059 4.98045C8.67059 5.30929 8.47648 5.60899 8.22956 5.86211C7.98265 6.11523 7.68785 6.31672 7.36234 6.45484C7.03683 6.59297 6.6871 6.66497 6.3335 6.66667Z"/>
      <path d="M6.33333 8.66675C4.65417 8.66851 3.04429 9.33634 1.85694 10.5237C0.669592 11.711 0.00176475 13.3209 0 15.0001C0 15.0885 0.035119 15.1733 0.0976311 15.2358C0.160143 15.2983 0.244928 15.3334 0.333333 15.3334H12.3333C12.4217 15.3334 12.5065 15.2983 12.569 15.2358C12.6315 15.1733 12.6667 15.0885 12.6667 15.0001C12.6649 13.3209 11.9971 11.711 10.8097 10.5237C9.62238 9.33634 8.0125 8.66851 6.33333 8.66675Z"/>
    </g>
  </svg>

  <svg id="event" viewBox="0 0 10 16" fill="none">
    <path d="M9.9125 4.95625C9.9125 3.64177 9.39032 2.38113 8.46085 1.45165C7.53137 0.522175 6.27073 0 4.95625 0C3.64177 0 2.38113 0.522175 1.45165 1.45165C0.522175 2.38113 0 3.64177 0 4.95625C0 7.26875 1.54375 9.9875 3.65 10.8188C3.672 10.8257 3.69201 10.8379 3.70833 10.8542C3.72465 10.8705 3.7368 10.8905 3.74375 10.9125C3.75303 10.9342 3.75782 10.9576 3.75782 10.9813C3.75782 11.0049 3.75303 11.0283 3.74375 11.05L3.51875 11.3875C3.4456 11.494 3.40338 11.6188 3.39676 11.7478C3.39015 11.8769 3.41939 12.0053 3.48125 12.1188C3.54119 12.2329 3.63097 12.3286 3.74104 12.3958C3.8511 12.4629 3.97733 12.4989 4.10625 12.5H4.1875C4.22894 12.5 4.26868 12.5165 4.29798 12.5458C4.32729 12.5751 4.34375 12.6148 4.34375 12.6563V13.4375C4.32699 13.6459 4.35547 13.8554 4.42726 14.0517C4.49905 14.2481 4.61244 14.4266 4.75967 14.575C4.90689 14.7234 5.08446 14.8382 5.28021 14.9116C5.47595 14.9849 5.68525 15.0151 5.89375 15C6.05951 15 6.21848 14.9342 6.33569 14.8169C6.4529 14.6997 6.51875 14.5408 6.51875 14.375C6.51875 14.2092 6.4529 14.0503 6.33569 13.9331C6.21848 13.8159 6.05951 13.75 5.89375 13.75C5.6125 13.75 5.58125 13.7188 5.58125 13.4375V12.6563C5.58125 12.6148 5.59771 12.5751 5.62701 12.5458C5.65632 12.5165 5.69606 12.5 5.7375 12.5H5.81875C5.94767 12.4989 6.07389 12.4629 6.18396 12.3958C6.29403 12.3286 6.38381 12.2329 6.44375 12.1188C6.50561 12.0053 6.53485 11.8769 6.52823 11.7478C6.52162 11.6188 6.47939 11.494 6.40625 11.3875L6.20625 11.05C6.19697 11.0283 6.19218 11.0049 6.19218 10.9813C6.19218 10.9576 6.19697 10.9342 6.20625 10.9125C6.2132 10.8905 6.22535 10.8705 6.24167 10.8542C6.25799 10.8379 6.278 10.8257 6.3 10.8188C8.36875 10 9.9125 7.26875 9.9125 4.95625ZM4.95625 2.34375C4.44169 2.33866 3.93576 2.4761 3.49451 2.74085C3.05326 3.0056 2.6939 3.38733 2.45625 3.84375C2.41801 3.92051 2.35918 3.98512 2.28634 4.03037C2.21349 4.07562 2.1295 4.09973 2.04375 4.1C1.96939 4.09885 1.89644 4.07954 1.83125 4.04375C1.72391 3.98531 1.64322 3.88774 1.60597 3.77134C1.56872 3.65493 1.57778 3.52865 1.63125 3.41875C1.94872 2.81154 2.4265 2.30292 3.01268 1.94812C3.59886 1.59333 4.27105 1.40592 4.95625 1.40625C5.08057 1.40625 5.1998 1.45564 5.2877 1.54354C5.37561 1.63145 5.425 1.75068 5.425 1.875C5.425 1.99932 5.37561 2.11855 5.2877 2.20646C5.1998 2.29436 5.08057 2.34375 4.95625 2.34375Z" fill="currentColor"/>
  </svg>
</svg>
