<?xml version="1.0" encoding="utf-8"?>
<svg version="1.1" xmlns="http://www.w3.org/2000/svg" xmlns:xlink="http://www.w3.org/1999/xlink">
  <svg id="eye" viewBox="0 0 24 24"><path d="M15 12c0 1.654-1.346 3-3 3s-3-1.346-3-3 1.346-3 3-3 3 1.346 3 3zm9-.449s-4.252 8.449-11.985 8.449c-7.18 0-12.015-8.449-12.015-8.449s4.446-7.551 12.015-7.551c7.694 0 11.985 7.551 11.985 7.551zm-7 .449c0-2.757-2.243-5-5-5s-5 2.243-5 5 2.243 5 5 5 5-2.243 5-5z"/></svg>
  <svg id="closed-eye" viewBox="0 0 24 24"><path d="m11.885 14.988 3.104-3.098.011.11c0 1.654-1.346 3-3 3zm8.048-8.032-3.274 3.268c.212.554.341 1.149.341 1.776 0 2.757-2.243 5-5 5-.631 0-1.229-.13-1.785-.344l-2.377 2.372c1.276.588 2.671.972 4.177.972 7.733 0 11.985-8.449 11.985-8.449s-1.415-2.478-4.067-4.595zm1.431-3.536-18.619 18.58-1.382-1.422 3.455-3.447c-3.022-2.45-4.818-5.58-4.818-5.58s4.446-7.551 12.015-7.551c1.825 0 3.456.426 4.886 1.075l3.081-3.075 1.382 1.42zm-13.751 10.922 1.519-1.515c-.077-.264-.132-.538-.132-.827 0-1.654 1.346-3 3-3 .291 0 .567.055.833.134l1.518-1.515c-.704-.382-1.496-.619-2.351-.619-2.757 0-5 2.243-5 5 0 .852.235 1.641.613 2.342z"/></svg>
  <svg id="sparkles" viewBox="0 0 36 36">
    <path d="M21.167,13.333l1.927-4.24,4.24-1.927L23.094,5.24,21.167,1,19.24,5.24,15,7.167l4.24,1.927Z" transform="translate(6.583 -1)"/>
    <path d="M21.167,15,19.24,19.24,15,21.167l4.24,1.927,1.927,4.24,1.927-4.24,4.24-1.927-4.24-1.927Z" transform="translate(6.583 6.583)"/>
    <path d="M17.188,12.479,13.333,4,9.479,12.479,1,16.333l8.479,3.854,3.854,8.479,3.854-8.479,8.479-3.854ZM14.86,17.86,13.333,21.22,11.807,17.86,8.446,16.333l3.361-1.526,1.526-3.361,1.526,3.361,3.361,1.526Z" transform="translate(-1 0.625)"/>
  </svg>
  <svg id="logo" viewBox="0 0 109.429 23.63">
    <g transform="translate(-107.178 -118.976)">
      <path d="M107.178,143.139V120.417H116.3c4.739,0,7.563,2.921,7.563,7.044s-2.824,7.044-7.563,7.044h-4.8v8.634ZM111.5,130.9H116.1a3.443,3.443,0,1,0,0-6.881H111.5Z" transform="translate(0 -0.791)" />
      <path d="M149.521,151.72V136.042h3.993V151.72Z" transform="translate(-23.255 -9.373)" />
      <path d="M164.355,142.393a8.06,8.06,0,0,1,8.309-8.439c4.122,0,7.466,2.467,7.822,6.232h-3.959a3.67,3.67,0,0,0-3.765-2.792c-2.759,0-4.252,2.143-4.252,5s1.526,5,4.317,5a3.632,3.632,0,0,0,3.733-2.694h4.025c-.52,3.57-3.7,6.134-7.92,6.134A8.06,8.06,0,0,1,164.355,142.393Z" transform="translate(-31.402 -8.226)" />
      <path d="M203.746,145.12h3.635a2.853,2.853,0,0,0,3.148,2.532c1.558,0,2.6-.779,2.6-1.753,0-3.635-8.959-.162-8.959-7.076,0-2.856,2.5-4.869,5.875-4.869,3.831,0,6.46,2.11,6.622,5.291h-3.635a2.817,2.817,0,0,0-2.889-2.3c-1.428,0-2.369.649-2.369,1.753,0,3.538,9.088-.357,9.088,7.044,0,3.083-2.5,5.1-6.33,5.1C206.57,150.832,203.941,148.625,203.746,145.12Z" transform="translate(-53.036 -8.226)" />
      <path d="M252.979,145.12c-.616,3.473-3.667,5.712-7.693,5.712a8.2,8.2,0,0,1-8.342-8.5c0-4.317,2.662-8.374,8.018-8.374,5.486,0,7.952,3.993,7.952,7.887,0,.552-.033,1.039-.065,1.364H240.774c.292,2.629,1.98,4.317,4.512,4.317,2.045,0,3.376-.844,3.8-2.4Zm-12.107-4.544h8.05a3.751,3.751,0,0,0-3.959-3.636C242.722,136.94,241.294,138.109,240.871,140.576Z" transform="translate(-71.269 -8.226)" />
      <path d="M279,142.347V118.976h3.96v23.371Z" transform="translate(-94.365 0)" />
      <path d="M296.712,142.347V118.976h3.96v23.371Z" transform="translate(-104.094 0)" />
      <path d="M311.98,142.393a8.554,8.554,0,1,1,8.569,8.439A8.219,8.219,0,0,1,311.98,142.393Zm13.081,0c0-2.954-1.818-5-4.512-5-2.726,0-4.544,2.045-4.544,5s1.818,5,4.544,5C323.243,147.392,325.061,145.347,325.061,142.393Z" transform="translate(-112.479 -8.226)" />
      <circle cx="2.626" cy="2.626" r="2.626" transform="translate(125.636 119.817)" />
    </g>
  </svg>
  <svg id="pencil" viewBox="0 0 25 25">
    <g transform="translate(-297 -100)">
      <path d="M2.5,12H0V9.5L7.373,2.128l2.5,2.5Zm8.086-8.086h0l-2.5-2.5L9.306.195a.664.664,0,0,1,.94,0l1.56,1.56a.666.666,0,0,1,0,.94l-1.22,1.219Z" transform="translate(304 107)" />
    </g>
  </svg>
  <svg id="close" viewBox="0 0 25 25">
    <g transform="translate(-312 -99)">
      <path d="M18.05,18.309a1.269,1.269,0,0,1-1.795,0l-2.8-3.2-2.8,3.2a1.269,1.269,0,0,1-1.795-1.795l2.917-3.332L8.851,9.847a1.269,1.269,0,0,1,1.795-1.795l2.8,3.206,2.8-3.206A1.269,1.269,0,0,1,18.05,9.847l-2.917,3.334,2.917,3.332A1.27,1.27,0,0,1,18.05,18.309Z" transform="translate(311.049 98.319)"/>
    </g>
  </svg>
</svg>
