<?xml version="1.0" encoding="utf-8"?>
<svg version="1.1" xmlns="http://www.w3.org/2000/svg" xmlns:xlink="http://www.w3.org/1999/xlink">
  <svg id="eye" viewBox="0 0 24 24"><path d="M15 12c0 1.654-1.346 3-3 3s-3-1.346-3-3 1.346-3 3-3 3 1.346 3 3zm9-.449s-4.252 8.449-11.985 8.449c-7.18 0-12.015-8.449-12.015-8.449s4.446-7.551 12.015-7.551c7.694 0 11.985 7.551 11.985 7.551zm-7 .449c0-2.757-2.243-5-5-5s-5 2.243-5 5 2.243 5 5 5 5-2.243 5-5z"/></svg>
  <svg id="closed-eye" viewBox="0 0 24 24"><path d="m11.885 14.988 3.104-3.098.011.11c0 1.654-1.346 3-3 3zm8.048-8.032-3.274 3.268c.212.554.341 1.149.341 1.776 0 2.757-2.243 5-5 5-.631 0-1.229-.13-1.785-.344l-2.377 2.372c1.276.588 2.671.972 4.177.972 7.733 0 11.985-8.449 11.985-8.449s-1.415-2.478-4.067-4.595zm1.431-3.536-18.619 18.58-1.382-1.422 3.455-3.447c-3.022-2.45-4.818-5.58-4.818-5.58s4.446-7.551 12.015-7.551c1.825 0 3.456.426 4.886 1.075l3.081-3.075 1.382 1.42zm-13.751 10.922 1.519-1.515c-.077-.264-.132-.538-.132-.827 0-1.654 1.346-3 3-3 .291 0 .567.055.833.134l1.518-1.515c-.704-.382-1.496-.619-2.351-.619-2.757 0-5 2.243-5 5 0 .852.235 1.641.613 2.342z"/></svg>
  <svg id="sparkles" viewBox="0 0 36 36">
    <path d="M21.167,13.333l1.927-4.24,4.24-1.927L23.094,5.24,21.167,1,19.24,5.24,15,7.167l4.24,1.927Z" transform="translate(6.583 -1)"/>
    <path d="M21.167,15,19.24,19.24,15,21.167l4.24,1.927,1.927,4.24,1.927-4.24,4.24-1.927-4.24-1.927Z" transform="translate(6.583 6.583)"/>
    <path d="M17.188,12.479,13.333,4,9.479,12.479,1,16.333l8.479,3.854,3.854,8.479,3.854-8.479,8.479-3.854ZM14.86,17.86,13.333,21.22,11.807,17.86,8.446,16.333l3.361-1.526,1.526-3.361,1.526,3.361,3.361,1.526Z" transform="translate(-1 0.625)"/>
  </svg>
  <svg id="logo" viewBox="0 0 109.429 23.63">
    <g transform="translate(-107.178 -118.976)">
      <path d="M107.178,143.139V120.417H116.3c4.739,0,7.563,2.921,7.563,7.044s-2.824,7.044-7.563,7.044h-4.8v8.634ZM111.5,130.9H116.1a3.443,3.443,0,1,0,0-6.881H111.5Z" transform="translate(0 -0.791)" />
      <path d="M149.521,151.72V136.042h3.993V151.72Z" transform="translate(-23.255 -9.373)" />
      <path d="M164.355,142.393a8.06,8.06,0,0,1,8.309-8.439c4.122,0,7.466,2.467,7.822,6.232h-3.959a3.67,3.67,0,0,0-3.765-2.792c-2.759,0-4.252,2.143-4.252,5s1.526,5,4.317,5a3.632,3.632,0,0,0,3.733-2.694h4.025c-.52,3.57-3.7,6.134-7.92,6.134A8.06,8.06,0,0,1,164.355,142.393Z" transform="translate(-31.402 -8.226)" />
      <path d="M203.746,145.12h3.635a2.853,2.853,0,0,0,3.148,2.532c1.558,0,2.6-.779,2.6-1.753,0-3.635-8.959-.162-8.959-7.076,0-2.856,2.5-4.869,5.875-4.869,3.831,0,6.46,2.11,6.622,5.291h-3.635a2.817,2.817,0,0,0-2.889-2.3c-1.428,0-2.369.649-2.369,1.753,0,3.538,9.088-.357,9.088,7.044,0,3.083-2.5,5.1-6.33,5.1C206.57,150.832,203.941,148.625,203.746,145.12Z" transform="translate(-53.036 -8.226)" />
      <path d="M252.979,145.12c-.616,3.473-3.667,5.712-7.693,5.712a8.2,8.2,0,0,1-8.342-8.5c0-4.317,2.662-8.374,8.018-8.374,5.486,0,7.952,3.993,7.952,7.887,0,.552-.033,1.039-.065,1.364H240.774c.292,2.629,1.98,4.317,4.512,4.317,2.045,0,3.376-.844,3.8-2.4Zm-12.107-4.544h8.05a3.751,3.751,0,0,0-3.959-3.636C242.722,136.94,241.294,138.109,240.871,140.576Z" transform="translate(-71.269 -8.226)" />
      <path d="M279,142.347V118.976h3.96v23.371Z" transform="translate(-94.365 0)" />
      <path d="M296.712,142.347V118.976h3.96v23.371Z" transform="translate(-104.094 0)" />
      <path d="M311.98,142.393a8.554,8.554,0,1,1,8.569,8.439A8.219,8.219,0,0,1,311.98,142.393Zm13.081,0c0-2.954-1.818-5-4.512-5-2.726,0-4.544,2.045-4.544,5s1.818,5,4.544,5C323.243,147.392,325.061,145.347,325.061,142.393Z" transform="translate(-112.479 -8.226)" />
      <circle cx="2.626" cy="2.626" r="2.626" transform="translate(125.636 119.817)" />
    </g>
  </svg>
  <svg id="pencil" viewBox="0 0 25 25">
    <g transform="translate(-297 -100)">
      <path d="M2.5,12H0V9.5L7.373,2.128l2.5,2.5Zm8.086-8.086h0l-2.5-2.5L9.306.195a.664.664,0,0,1,.94,0l1.56,1.56a.666.666,0,0,1,0,.94l-1.22,1.219Z" transform="translate(304 107)" />
    </g>
  </svg>
  <svg id="close" viewBox="0 0 25 25">
    <g transform="translate(-312 -99)">
      <path d="M18.05,18.309a1.269,1.269,0,0,1-1.795,0l-2.8-3.2-2.8,3.2a1.269,1.269,0,0,1-1.795-1.795l2.917-3.332L8.851,9.847a1.269,1.269,0,0,1,1.795-1.795l2.8,3.206,2.8-3.206A1.269,1.269,0,0,1,18.05,9.847l-2.917,3.334,2.917,3.332A1.27,1.27,0,0,1,18.05,18.309Z" transform="translate(311.049 98.319)"/>
    </g>
  </svg>
  <svg id="back" viewBox="0 0 10 20">
    <path d="M9,1l-8,9l8,9" stroke-width="2" fill="none"/>
  </svg>
  <svg id="forth" viewBox="0 0 10 20">
    <path d="M1,1l8,9l-8,9" stroke-width="2" fill="none"/>
  </svg>
  <svg id="down" viewBox="0 0 20 10">
    <path d="M1,1l9,8l9,-8" stroke-width="2" fill="none"/>
  </svg>
  <svg id="close-modal" viewBox="0 0 20 20">
    <path d="M1,1L18,18M1,18L18,1" stroke-width="2" stroke-linecap="round"/>
  </svg>
  <svg width="57" height="57" viewBox="0 0 57 57" fill="none" id="confetti">
    <path d="M23.0227 33.977C25.3418 36.2961 28.0266 38.0597 30.4865 38.8796C32.9463 39.6996 34.9797 39.5088 36.1392 38.3492C37.2988 37.1896 37.4896 35.1562 36.6697 32.6964C35.8497 30.2366 34.0862 27.5518 31.7671 25.2326C29.4479 22.9135 26.7631 21.1499 24.3033 20.33C21.8434 19.5101 19.8101 19.7009 18.6505 20.8604C17.4909 22.02 17.3001 24.0534 18.1201 26.5132C18.94 28.973 20.7035 31.6578 23.0227 33.977V33.977Z" stroke="black" stroke-width="3" stroke-linecap="round" stroke-linejoin="round"/>
    <path d="M17.6652 23.0818L2.32616 49.984C2.02271 50.6404 1.92796 51.374 2.05469 52.086C2.18143 52.7979 2.52355 53.4538 3.03487 53.9651C3.54619 54.4764 4.20209 54.8186 4.91402 54.9453C5.62594 55.072 6.35961 54.9773 7.01598 54.6738L33.9182 39.3465" stroke="black" stroke-width="3" stroke-linecap="round" stroke-linejoin="round"/>
    <path d="M37.3878 18.3708C37.4701 18.4528 37.5353 18.5503 37.5799 18.6576C37.6244 18.7649 37.6473 18.88 37.6473 18.9961C37.6473 19.1123 37.6244 19.2274 37.5799 19.3347C37.5353 19.442 37.4701 19.5395 37.3878 19.6215" stroke="#4DAAC6" stroke-width="3" stroke-linecap="round" stroke-linejoin="round"/>
    <path d="M36.1394 18.3708C36.305 18.2054 36.5295 18.1124 36.7636 18.1124C36.9977 18.1124 37.2222 18.2054 37.3878 18.3708" stroke="#4DAAC6" stroke-width="3" stroke-linecap="round" stroke-linejoin="round"/>
    <path d="M36.1394 19.6121C35.9744 19.4458 35.8818 19.221 35.8818 18.9867C35.8818 18.7525 35.9744 18.5277 36.1394 18.3613" stroke="#4DAAC6" stroke-width="3" stroke-linecap="round" stroke-linejoin="round"/>
    <path d="M37.3878 19.6121C37.2222 19.7776 36.9977 19.8705 36.7636 19.8705C36.5295 19.8705 36.305 19.7776 36.1394 19.6121" stroke="#4DAAC6" stroke-width="3" stroke-linecap="round" stroke-linejoin="round"/>
    <path d="M47.3823 8.36928C47.4645 8.45113 47.5297 8.54841 47.5742 8.65552C47.6187 8.76264 47.6416 8.87749 47.6416 8.99349C47.6416 9.10948 47.6187 9.22433 47.5742 9.33145C47.5297 9.43857 47.4645 9.53585 47.3823 9.6177" stroke="black" stroke-width="3" stroke-linecap="round" stroke-linejoin="round"/>
    <path d="M46.1339 8.36929C46.2158 8.2871 46.313 8.22189 46.4202 8.17739C46.5273 8.13289 46.6421 8.10999 46.7581 8.10999C46.8741 8.10999 46.989 8.13289 47.0961 8.17739C47.2032 8.22189 47.3005 8.2871 47.3823 8.36929" stroke="black" stroke-width="3" stroke-linecap="round" stroke-linejoin="round"/>
    <path d="M46.1338 9.6177C46.0516 9.53585 45.9864 9.43857 45.9419 9.33145C45.8974 9.22433 45.8745 9.10948 45.8745 8.99349C45.8745 8.87749 45.8974 8.76264 45.9419 8.65552C45.9864 8.54841 46.0516 8.45113 46.1338 8.36928" stroke="black" stroke-width="3" stroke-linecap="round" stroke-linejoin="round"/>
    <path d="M47.3823 9.61769C47.2167 9.78311 46.9922 9.87602 46.7581 9.87602C46.524 9.87602 46.2995 9.78311 46.1339 9.61769" stroke="black" stroke-width="3" stroke-linecap="round" stroke-linejoin="round"/>
    <path d="M47.3823 33.3518C47.4646 33.4338 47.5298 33.5313 47.5744 33.6386C47.6189 33.7459 47.6418 33.861 47.6418 33.9772C47.6418 34.0933 47.6189 34.2084 47.5744 34.3157C47.5298 34.423 47.4646 34.5205 47.3823 34.6025" stroke="#4DAAC6" stroke-width="3" stroke-linecap="round" stroke-linejoin="round"/>
    <path d="M46.1339 33.3518C46.2995 33.1864 46.524 33.0935 46.7581 33.0935C46.9922 33.0935 47.2167 33.1864 47.3823 33.3518" stroke="#4DAAC6" stroke-width="3" stroke-linecap="round" stroke-linejoin="round"/>
    <path d="M46.1338 34.6025C46.0515 34.5205 45.9862 34.423 45.9417 34.3157C45.8972 34.2084 45.8743 34.0933 45.8743 33.9772C45.8743 33.861 45.8972 33.7459 45.9417 33.6386C45.9862 33.5313 46.0515 33.4338 46.1338 33.3518" stroke="#4DAAC6" stroke-width="3" stroke-linecap="round" stroke-linejoin="round"/>
    <path d="M47.3823 34.6026C47.2167 34.768 46.9922 34.8609 46.7581 34.8609C46.524 34.8609 46.2995 34.768 46.1339 34.6026" stroke="#4DAAC6" stroke-width="3" stroke-linecap="round" stroke-linejoin="round"/>
    <path d="M19.9006 10.8661C20.0656 11.0325 20.1582 11.2573 20.1582 11.4915C20.1582 11.7258 20.0656 11.9506 19.9006 12.1169" stroke="black" stroke-width="3" stroke-linecap="round" stroke-linejoin="round"/>
    <path d="M18.6522 10.8661C18.8178 10.7007 19.0424 10.6078 19.2764 10.6078C19.5105 10.6078 19.735 10.7007 19.9006 10.8661" stroke="black" stroke-width="3" stroke-linecap="round" stroke-linejoin="round"/>
    <path d="M18.6522 12.1169C18.5699 12.0349 18.5047 11.9374 18.4602 11.8301C18.4156 11.7228 18.3927 11.6077 18.3927 11.4915C18.3927 11.3754 18.4156 11.2603 18.4602 11.153C18.5047 11.0457 18.5699 10.9482 18.6522 10.8661" stroke="black" stroke-width="3" stroke-linecap="round" stroke-linejoin="round"/>
    <path d="M19.9006 12.1169C19.735 12.2823 19.5105 12.3752 19.2764 12.3752C19.0424 12.3752 18.8178 12.2823 18.6522 12.1169" stroke="black" stroke-width="3" stroke-linecap="round" stroke-linejoin="round"/>
    <path d="M30.5193 2C31.0166 6.45172 30.5908 10.9581 29.2686 15.2379" stroke="black" stroke-width="3" stroke-linecap="round" stroke-linejoin="round"/>
    <path d="M39.2629 5.2459L38.0145 11.4903" stroke="#4DAAC6" stroke-width="3" stroke-linecap="round" stroke-linejoin="round"/>
    <path d="M55 26.4808C50.5483 25.9836 46.0419 26.4093 41.7621 27.7316" stroke="black" stroke-width="3" stroke-linecap="round" stroke-linejoin="round"/>
    <path d="M51.7542 17.7371L45.5098 18.9856" stroke="black" stroke-width="3" stroke-linecap="round" stroke-linejoin="round"/>
  </svg>

  <svg id="warning" width="49" height="49" viewBox="0 0 49 49" fill="none" >
    <path d="M24.5 37.9995C24.3517 37.9995 24.2067 38.0435 24.0833 38.1259C23.96 38.2083 23.8639 38.3255 23.8071 38.4625C23.7503 38.5995 23.7355 38.7503 23.7644 38.8958C23.7934 39.0413 23.8648 39.175 23.9697 39.2798C24.0746 39.3847 24.2082 39.4562 24.3537 39.4851C24.4992 39.514 24.65 39.4992 24.787 39.4424C24.9241 39.3857 25.0412 39.2895 25.1236 39.1662C25.206 39.0429 25.25 38.8978 25.25 38.7495C25.25 38.5506 25.171 38.3598 25.0303 38.2192C24.8897 38.0785 24.6989 37.9995 24.5 37.9995Z" stroke="#E1662F" stroke-width="3" stroke-linecap="round" stroke-linejoin="round"/>
    <path d="M24.5 31.9995V16.9995" stroke="#E1662F" stroke-width="3" stroke-linecap="round"/>
    <path d="M27.742 4.01952C27.4444 3.41355 26.9828 2.90314 26.4098 2.54617C25.8368 2.18921 25.1751 2 24.5 2C23.8249 2 23.1633 2.18921 22.5902 2.54617C22.0172 2.90314 21.5557 3.41355 21.258 4.01952L2.31202 42.6155C2.08396 43.0795 1.97789 43.5939 2.00383 44.1102C2.02977 44.6265 2.18686 45.1277 2.46027 45.5664C2.73369 46.0051 3.1144 46.367 3.56647 46.6177C4.01854 46.8685 4.52706 46.9999 5.04402 46.9995H43.956C44.473 46.9999 44.9815 46.8685 45.4336 46.6177C45.8856 46.367 46.2664 46.0051 46.5398 45.5664C46.8132 45.1277 46.9703 44.6265 46.9962 44.1102C47.0221 43.5939 46.9161 43.0795 46.688 42.6155L27.742 4.01952Z" stroke="black" stroke-width="3" stroke-linecap="round" stroke-linejoin="round"/>
  </svg>

  <svg id="money-bags" width="20" height="19" viewBox="0 0 23 19" fill="none">
    <path d="M13.0643 5.97799C14.9208 7.25926 17.3337 10.3445 17.3337 13.1239C17.3337 15.9433 14.2838 18.2282 11.2086 18.2282C8.13334 18.2282 5.0835 15.9433 5.0835 13.1239C5.0835 10.3445 7.49633 7.25926 9.35291 5.97799L7.94187 2.61418C7.88506 2.51499 7.8497 2.40499 7.83808 2.29127C7.82647 2.17756 7.83885 2.06268 7.87443 1.95405C7.91001 1.84543 7.968 1.74548 8.04464 1.66068C8.12128 1.57588 8.21487 1.50811 8.31936 1.46176C10.1948 0.846081 12.2179 0.846081 14.0933 1.46176C14.1981 1.50767 14.2922 1.57512 14.3693 1.65974C14.4464 1.74435 14.5049 1.84423 14.5409 1.9529C14.5769 2.06156 14.5897 2.17659 14.5784 2.29051C14.5671 2.40444 14.532 2.51471 14.4753 2.61418L13.0643 5.97799Z" stroke="#231F20" stroke-width="1.5" stroke-linecap="round" stroke-linejoin="round"/>
    <path d="M9.35278 5.97803H13.0641" stroke="#231F20" stroke-width="1.5" stroke-linecap="round" stroke-linejoin="round"/>
    <path d="M4.40283 17.5477C1.68057 17.5477 1 14.8254 1 12.9071C1.04008 11.7831 1.35769 10.6864 1.92451 9.71489C2.49133 8.74338 3.28974 7.92723 4.24856 7.3392L3.10158 5.68498C3.0309 5.5829 2.98948 5.46344 2.98181 5.33952C2.97415 5.21559 3.00053 5.09194 3.05811 4.98193C3.11568 4.87193 3.20225 4.77977 3.30844 4.71543C3.41463 4.6511 3.5364 4.61704 3.66056 4.61694H5.76396" stroke="#231F20" stroke-width="1.5" stroke-linecap="round" stroke-linejoin="round"/>
    <path d="M9.69219 14.4568C9.88867 14.715 10.1445 14.9221 10.438 15.0605C10.7315 15.1988 11.054 15.2644 11.3782 15.2517C12.4117 15.2517 13.2502 14.6229 13.2502 13.847C13.2502 13.0712 12.4117 12.4442 11.3782 12.4442C10.3446 12.4442 9.50708 11.8153 9.50708 11.0395C9.50708 10.2636 10.3455 9.63569 11.3782 9.63569C11.7024 9.62255 12.0249 9.68787 12.3185 9.8261C12.612 9.96434 12.8678 10.1714 13.0642 10.4297" stroke="#231F20" stroke-width="1.5" stroke-linecap="round" stroke-linejoin="round"/>
    <path d="M11.3782 15.2517V16.1864" stroke="#231F20" stroke-width="1.5" stroke-linecap="round" stroke-linejoin="round"/>
    <path d="M11.3782 8.7002V9.63575" stroke="#231F20" stroke-width="1.5" stroke-linecap="round" stroke-linejoin="round"/>
    <path d="M18.014 17.5477C20.7362 17.5477 21.4168 14.8254 21.4168 12.9071C21.3767 11.7831 21.0591 10.6864 20.4923 9.71489C19.9255 8.74338 19.127 7.92723 18.1682 7.3392L19.3152 5.68498C19.3859 5.5829 19.4273 5.46344 19.435 5.33952C19.4426 5.21559 19.4163 5.09194 19.3587 4.98193C19.3011 4.87193 19.2145 4.77977 19.1084 4.71543C19.0022 4.6511 18.8804 4.61704 18.7562 4.61694H16.6528" stroke="#231F20" stroke-width="1.5" stroke-linecap="round" stroke-linejoin="round"/>
  </svg>

  <svg id="envelope" viewBox="0 0 18 14" fill="none">
    <path d="M1.5,2.5 l7.5,4 l7.5,-4" stroke-width="1.5"/>
    <rect x="1.5" y="1.5" width="15" height="11" stroke-width="1.5" rx="1.5" />
  </svg>

  <svg id="cart" width="15" height="16" viewBox="0 0 15 16" fill="none">
    <path d="M9 6.85714H7.5V5.33333H9V6.85714ZM9 3.80952H7.5V0H9V3.80952ZM4.5 12.9524C4.20333 12.9524 3.91332 13.0418 3.66664 13.2092C3.41997 13.3766 3.22771 13.6146 3.11418 13.8931C3.00065 14.1715 2.97094 14.4779 3.02882 14.7735C3.0867 15.0691 3.22956 15.3406 3.43934 15.5537C3.64912 15.7668 3.91639 15.9119 4.20736 15.9707C4.49834 16.0295 4.79994 15.9993 5.07403 15.884C5.34811 15.7687 5.58238 15.5734 5.7472 15.3228C5.91203 15.0722 6 14.7776 6 14.4762C6 14.0721 5.84196 13.6845 5.56066 13.3987C5.27936 13.1129 4.89782 12.9524 4.5 12.9524ZM12 12.9524C11.7033 12.9524 11.4133 13.0418 11.1666 13.2092C10.92 13.3766 10.7277 13.6146 10.6142 13.8931C10.5006 14.1715 10.4709 14.4779 10.5288 14.7735C10.5867 15.0691 10.7296 15.3406 10.9393 15.5537C11.1491 15.7668 11.4164 15.9119 11.7074 15.9707C11.9983 16.0295 12.2999 15.9993 12.574 15.884C12.8481 15.7687 13.0824 15.5734 13.2472 15.3228C13.412 15.0722 13.5 14.7776 13.5 14.4762C13.5 14.0721 13.342 13.6845 13.0607 13.3987C12.7794 13.1129 12.3978 12.9524 12 12.9524ZM5.325 9.14286H10.9123C11.1801 9.14384 11.4433 9.0716 11.6742 8.93372C11.905 8.79584 12.0952 8.59739 12.2246 8.35918L15 3.01714L13.6877 2.28571L10.9123 7.61905H5.64729L2.45229 0.761905H0V2.28571H1.5L4.2 8.06879L3.18771 9.92653C3.0616 10.1587 2.99719 10.4202 3.00083 10.6854C3.00447 10.9505 3.07604 11.2101 3.20848 11.4386C3.34092 11.6671 3.52968 11.8566 3.75614 11.9884C3.98261 12.1203 4.23898 12.1899 4.5 12.1905H13.5V10.6667H4.5L5.325 9.14286Z" fill="currentColor" stroke="none"/>
  </svg>

  <svg id="gallery" width="16" height="16" viewBox="0 0 16 16" fill="none">
    <path d="M12.1907 14.4761H1.5237V3.81242H8.38148V2.28579H1.5237C1.11947 2.28696 0.732174 2.44827 0.446598 2.73439C0.161022 3.02051 0.00043674 3.40814 0 3.81242V14.4761C0.00116608 14.8799 0.162073 15.2669 0.447571 15.5524C0.733068 15.8379 1.11995 15.9988 1.5237 16H12.1907C12.5946 15.999 12.9816 15.8381 13.2672 15.5526C13.5528 15.267 13.7138 14.88 13.715 14.4761V7.62042H12.1907V14.4761ZM6.25559 12.0627L4.76392 10.2642L2.66676 12.9545H11.0493L8.3522 9.36308L6.25559 12.0627ZM13.7139 2.28635V0H12.1907V2.28579H9.90518C9.91292 2.29353 9.90518 3.80966 9.90518 3.80966H12.1907V6.08827C12.1985 6.096 13.7144 6.08827 13.7144 6.08827V3.81242H16V2.28579L13.7139 2.28635Z" fill="currentColor" stroke="none"/>
  </svg>
</svg>
