<svg width="26" height="26" viewBox="0 0 26 26" fill="none" xmlns="http://www.w3.org/2000/svg">
<path d="M26 7.57512C26 7.05156 25.7946 6.54944 25.4289 6.17923C25.0632 5.80901 24.5672 5.60103 24.05 5.60103H19.6612C19.5114 5.60106 19.3661 5.54868 19.25 5.45275C19.1339 5.35682 19.0542 5.22324 19.0242 5.0746C18.7507 3.64599 17.9946 2.35826 16.8857 1.43233C15.7768 0.506402 14.3841 0 12.9467 0C11.5093 0 10.1166 0.506402 9.0077 1.43233C7.89878 2.35826 7.14271 3.64599 6.8692 5.0746C6.83878 5.22301 6.75888 5.35631 6.6429 5.45216C6.52692 5.54801 6.38192 5.60057 6.2322 5.60103H1.95C1.43283 5.60103 0.936838 5.80901 0.571142 6.17923C0.205446 6.54944 0 7.05156 0 7.57512C0 8.09869 0.205446 8.6008 0.571142 8.97102C0.936838 9.34123 1.43283 9.54922 1.95 9.54922H2.6C2.77239 9.54922 2.93772 9.61855 3.05962 9.74195C3.18152 9.86535 3.25 10.0327 3.25 10.2072V22.0518C3.25 23.0989 3.66089 24.1032 4.39228 24.8436C5.12368 25.584 6.11566 26 7.15 26H18.85C19.8843 26 20.8763 25.584 21.6077 24.8436C22.3391 24.1032 22.75 23.0989 22.75 22.0518V10.2072C22.75 10.0327 22.8185 9.86535 22.9404 9.74195C23.0623 9.61855 23.2276 9.54922 23.4 9.54922H24.05C24.5672 9.54922 25.0632 9.34123 25.4289 8.97102C25.7946 8.6008 26 8.09869 26 7.57512ZM12.9454 3.28476C13.418 3.28359 13.8836 3.40015 14.3012 3.62415C14.7188 3.84815 15.0756 4.17272 15.34 4.56924C15.4064 4.66883 15.4451 4.78471 15.452 4.90468C15.4588 5.02464 15.4336 5.14427 15.379 5.25096C15.3237 5.35667 15.241 5.44512 15.1397 5.5068C15.0385 5.56849 14.9226 5.60106 14.8044 5.60103H11.0994C10.9808 5.60115 10.8644 5.56842 10.7629 5.50638C10.6614 5.44435 10.5785 5.35538 10.5234 5.24911C10.4682 5.14283 10.4428 5.0233 10.4499 4.90347C10.4571 4.78363 10.4964 4.66805 10.5638 4.56924C10.8257 4.17325 11.1801 3.84883 11.5955 3.62476C12.011 3.4007 12.4747 3.28391 12.9454 3.28476ZM10.725 20.0672C10.725 20.5035 10.5538 20.9219 10.249 21.2304C9.9443 21.5389 9.53098 21.7123 9.1 21.7123C8.66902 21.7123 8.2557 21.5389 7.95095 21.2304C7.6462 20.9219 7.475 20.5035 7.475 20.0672V13.4869C7.475 13.0506 7.6462 12.6321 7.95095 12.3236C8.2557 12.0151 8.66902 11.8418 9.1 11.8418C9.53098 11.8418 9.9443 12.0151 10.249 12.3236C10.5538 12.6321 10.725 13.0506 10.725 13.4869V20.0672ZM18.525 20.0672C18.525 20.5035 18.3538 20.9219 18.049 21.2304C17.7443 21.5389 17.331 21.7123 16.9 21.7123C16.469 21.7123 16.0557 21.5389 15.751 21.2304C15.4462 20.9219 15.275 20.5035 15.275 20.0672V13.4869C15.275 13.0506 15.4462 12.6321 15.751 12.3236C16.0557 12.0151 16.469 11.8418 16.9 11.8418C17.331 11.8418 17.7443 12.0151 18.049 12.3236C18.3538 12.6321 18.525 13.0506 18.525 13.4869V20.0672Z" fill="#F2F2F2"/>
</svg>
