<svg width="18" height="18" viewBox="0 0 18 18" fill="none" xmlns="http://www.w3.org/2000/svg">
<path d="M18 5.24432C18 4.88185 17.8578 4.53423 17.6046 4.27793C17.3514 4.02163 17.008 3.87764 16.65 3.87764H13.6116C13.5079 3.87766 13.4073 3.84139 13.3269 3.77498C13.2466 3.70857 13.1913 3.61609 13.1706 3.51319C12.9812 2.52415 12.4578 1.63264 11.6901 0.991612C10.9224 0.350586 9.95825 0 8.9631 0C7.96795 0 7.00381 0.350586 6.2361 0.991612C5.46839 1.63264 4.94495 2.52415 4.7556 3.51319C4.73454 3.61593 4.67923 3.70822 4.59893 3.77457C4.51864 3.84093 4.41825 3.87732 4.3146 3.87764H1.35C0.991958 3.87764 0.64858 4.02163 0.395406 4.27793C0.142232 4.53423 0 4.88185 0 5.24432C0 5.60678 0.142232 5.9544 0.395406 6.21071C0.64858 6.46701 0.991958 6.611 1.35 6.611H1.8C1.91935 6.611 2.03381 6.65899 2.1182 6.74443C2.20259 6.82986 2.25 6.94573 2.25 7.06656V15.2666C2.25 15.9916 2.53446 16.6868 3.04081 17.1994C3.54716 17.712 4.23392 18 4.95 18H13.05C13.7661 18 14.4528 17.712 14.9592 17.1994C15.4655 16.6868 15.75 15.9916 15.75 15.2666V7.06656C15.75 6.94573 15.7974 6.82986 15.8818 6.74443C15.9662 6.65899 16.0807 6.611 16.2 6.611H16.65C17.008 6.611 17.3514 6.46701 17.6046 6.21071C17.8578 5.9544 18 5.60678 18 5.24432ZM8.9622 2.27406C9.28938 2.27326 9.61173 2.35395 9.90084 2.50903C10.1899 2.6641 10.4369 2.8888 10.62 3.16332C10.666 3.23227 10.6928 3.31249 10.6975 3.39554C10.7023 3.4786 10.6848 3.56141 10.647 3.63528C10.6087 3.70846 10.5514 3.7697 10.4814 3.8124C10.4113 3.85511 10.331 3.87766 10.2492 3.87764H7.6842C7.6021 3.87772 7.52154 3.85506 7.45125 3.81211C7.38096 3.76917 7.32361 3.70757 7.28542 3.634C7.24722 3.56042 7.22964 3.47767 7.23457 3.39471C7.23951 3.31174 7.26677 3.23172 7.3134 3.16332C7.49471 2.88917 7.74007 2.66458 8.02769 2.50945C8.31531 2.35433 8.63631 2.27347 8.9622 2.27406ZM7.425 13.8927C7.425 14.1947 7.30647 14.4844 7.09549 14.698C6.88452 14.9116 6.59837 15.0316 6.3 15.0316C6.00163 15.0316 5.71548 14.9116 5.5045 14.698C5.29353 14.4844 5.175 14.1947 5.175 13.8927V9.33707C5.175 9.03501 5.29353 8.74533 5.5045 8.53174C5.71548 8.31816 6.00163 8.19817 6.3 8.19817C6.59837 8.19817 6.88452 8.31816 7.09549 8.53174C7.30647 8.74533 7.425 9.03501 7.425 9.33707V13.8927ZM12.825 13.8927C12.825 14.1947 12.7065 14.4844 12.4955 14.698C12.2845 14.9116 11.9984 15.0316 11.7 15.0316C11.4016 15.0316 11.1155 14.9116 10.9045 14.698C10.6935 14.4844 10.575 14.1947 10.575 13.8927V9.33707C10.575 9.03501 10.6935 8.74533 10.9045 8.53174C11.1155 8.31816 11.4016 8.19817 11.7 8.19817C11.9984 8.19817 12.2845 8.31816 12.4955 8.53174C12.7065 8.74533 12.825 9.03501 12.825 9.33707V13.8927Z" fill="#898989"/>
</svg>
